STARTFONT 2.1
COMMENT
COMMENT Converted from OpenType font "RuthlessSketch_Italic.ttf" by "otf2bdf 3.0".
COMMENT
FONT -FreeType-Ruthless Sketch-Medium-I-Normal--11-80-100-100-P-62-ISO10646-1
SIZE 8 100 100
FONTBOUNDINGBOX 15 12 -5 -2
STARTPROPERTIES 19
FOUNDRY "FreeType"
FAMILY_NAME "Ruthless Sketch"
WEIGHT_NAME "Medium"
SLANT "I"
SETWIDTH_NAME "Normal"
ADD_STYLE_NAME ""
PIXEL_SIZE 11
POINT_SIZE 80
RESOLUTION_X 100
RESOLUTION_Y 100
SPACING "P"
AVERAGE_WIDTH 62
CHARSET_REGISTRY "ISO10646"
CHARSET_ENCODING "1"
FONT_ASCENT 10
FONT_DESCENT 2
COPYRIGHT "© 2024 GGBotNet. All Rights Reserved."
_OTF_FONTFILE "RuthlessSketch_Italic.ttf"
_OTF_PSNAME "RuthlessSketch-Italic"
ENDPROPERTIES
CHARS 1105
STARTCHAR 0020
ENCODING 32
SWIDTH 270 0
DWIDTH 3 0
BBX 0 0 0 0
BITMAP
ENDCHAR
STARTCHAR 0021
ENCODING 33
SWIDTH 270 0
DWIDTH 3 0
BBX 4 8 1 0
BITMAP
70
60
60
40
C0
00
C0
C0
ENDCHAR
STARTCHAR 0022
ENCODING 34
SWIDTH 360 0
DWIDTH 4 0
BBX 4 4 2 4
BITMAP
B0
B0
A0
A0
ENDCHAR
STARTCHAR 0023
ENCODING 35
SWIDTH 450 0
DWIDTH 5 0
BBX 7 8 0 0
BITMAP
0A
1A
7E
7C
3C
7C
50
90
ENDCHAR
STARTCHAR 0024
ENCODING 36
SWIDTH 450 0
DWIDTH 5 0
BBX 7 10 0 -1
BITMAP
08
0C
3E
38
38
1C
7C
78
F0
20
ENDCHAR
STARTCHAR 0025
ENCODING 37
SWIDTH 540 0
DWIDTH 6 0
BBX 6 8 1 0
BITMAP
04
6C
A8
50
28
54
D8
80
ENDCHAR
STARTCHAR 0026
ENCODING 38
SWIDTH 450 0
DWIDTH 5 0
BBX 5 8 1 0
BITMAP
30
70
70
68
F8
98
F8
68
ENDCHAR
STARTCHAR 0027
ENCODING 39
SWIDTH 180 0
DWIDTH 2 0
BBX 2 4 2 4
BITMAP
C0
C0
80
80
ENDCHAR
STARTCHAR 0028
ENCODING 40
SWIDTH 270 0
DWIDTH 3 0
BBX 4 11 1 -2
BITMAP
10
30
60
C0
C0
80
80
80
C0
40
40
ENDCHAR
STARTCHAR 0029
ENCODING 41
SWIDTH 270 0
DWIDTH 3 0
BBX 5 10 0 -2
BITMAP
30
10
10
18
18
10
10
30
20
C0
ENDCHAR
STARTCHAR 002A
ENCODING 42
SWIDTH 270 0
DWIDTH 3 0
BBX 3 3 2 5
BITMAP
E0
40
80
ENDCHAR
STARTCHAR 002B
ENCODING 43
SWIDTH 450 0
DWIDTH 5 0
BBX 5 5 1 1
BITMAP
30
F8
F8
60
60
ENDCHAR
STARTCHAR 002C
ENCODING 44
SWIDTH 180 0
DWIDTH 2 0
BBX 2 4 0 -2
BITMAP
40
C0
80
80
ENDCHAR
STARTCHAR 002D
ENCODING 45
SWIDTH 360 0
DWIDTH 4 0
BBX 4 2 1 3
BITMAP
F0
F0
ENDCHAR
STARTCHAR 002E
ENCODING 46
SWIDTH 180 0
DWIDTH 2 0
BBX 2 2 0 0
BITMAP
40
C0
ENDCHAR
STARTCHAR 002F
ENCODING 47
SWIDTH 450 0
DWIDTH 5 0
BBX 6 9 0 -1
BITMAP
04
0C
18
18
30
30
60
E0
C0
ENDCHAR
STARTCHAR 0030
ENCODING 48
SWIDTH 360 0
DWIDTH 4 0
BBX 4 8 1 0
BITMAP
20
70
70
D0
D0
F0
E0
60
ENDCHAR
STARTCHAR 0031
ENCODING 49
SWIDTH 360 0
DWIDTH 4 0
BBX 3 8 2 0
BITMAP
20
E0
E0
60
60
E0
E0
E0
ENDCHAR
STARTCHAR 0032
ENCODING 50
SWIDTH 450 0
DWIDTH 5 0
BBX 5 8 1 0
BITMAP
30
78
50
10
20
78
F8
E0
ENDCHAR
STARTCHAR 0033
ENCODING 51
SWIDTH 450 0
DWIDTH 5 0
BBX 6 8 0 0
BITMAP
18
38
10
38
0C
0C
D8
70
ENDCHAR
STARTCHAR 0034
ENCODING 52
SWIDTH 360 0
DWIDTH 4 0
BBX 5 8 1 0
BITMAP
20
20
60
78
F8
20
60
60
ENDCHAR
STARTCHAR 0035
ENCODING 53
SWIDTH 450 0
DWIDTH 5 0
BBX 5 8 1 0
BITMAP
18
38
60
70
18
18
B0
E0
ENDCHAR
STARTCHAR 0036
ENCODING 54
SWIDTH 450 0
DWIDTH 5 0
BBX 5 8 1 0
BITMAP
08
38
40
F0
F8
D8
98
F0
ENDCHAR
STARTCHAR 0037
ENCODING 55
SWIDTH 360 0
DWIDTH 4 0
BBX 6 8 0 0
BITMAP
04
3C
4C
18
38
30
70
C0
ENDCHAR
STARTCHAR 0038
ENCODING 56
SWIDTH 450 0
DWIDTH 5 0
BBX 5 8 1 0
BITMAP
30
78
70
70
D8
D8
F8
70
ENDCHAR
STARTCHAR 0039
ENCODING 57
SWIDTH 450 0
DWIDTH 5 0
BBX 5 7 1 0
BITMAP
78
D8
F8
78
10
F0
E0
ENDCHAR
STARTCHAR 003A
ENCODING 58
SWIDTH 180 0
DWIDTH 2 0
BBX 3 5 0 0
BITMAP
60
40
00
40
C0
ENDCHAR
STARTCHAR 003B
ENCODING 59
SWIDTH 180 0
DWIDTH 2 0
BBX 3 7 0 -2
BITMAP
60
00
00
40
C0
80
80
ENDCHAR
STARTCHAR 003C
ENCODING 60
SWIDTH 450 0
DWIDTH 5 0
BBX 5 6 1 1
BITMAP
08
38
F0
E0
78
30
ENDCHAR
STARTCHAR 003D
ENCODING 61
SWIDTH 450 0
DWIDTH 5 0
BBX 5 4 1 2
BITMAP
F8
F8
18
F8
ENDCHAR
STARTCHAR 003E
ENCODING 62
SWIDTH 450 0
DWIDTH 5 0
BBX 5 6 1 1
BITMAP
40
E0
78
38
E0
80
ENDCHAR
STARTCHAR 003F
ENCODING 63
SWIDTH 450 0
DWIDTH 5 0
BBX 5 8 1 0
BITMAP
78
78
18
38
60
60
40
C0
ENDCHAR
STARTCHAR 0040
ENCODING 64
SWIDTH 630 0
DWIDTH 7 0
BBX 7 10 1 -2
BITMAP
3C
7E
66
DE
D6
F6
D8
C8
F8
70
ENDCHAR
STARTCHAR 0041
ENCODING 65
SWIDTH 630 0
DWIDTH 7 0
BBX 6 7 1 1
BITMAP
18
18
38
78
58
F8
9C
ENDCHAR
STARTCHAR 0042
ENCODING 66
SWIDTH 450 0
DWIDTH 5 0
BBX 5 8 1 0
BITMAP
70
78
58
70
F8
D8
F8
F0
ENDCHAR
STARTCHAR 0043
ENCODING 67
SWIDTH 450 0
DWIDTH 5 0
BBX 6 8 1 0
BITMAP
10
7C
78
C0
C0
F8
F8
60
ENDCHAR
STARTCHAR 0044
ENCODING 68
SWIDTH 450 0
DWIDTH 5 0
BBX 5 8 1 0
BITMAP
60
70
F8
D8
D0
F0
E0
80
ENDCHAR
STARTCHAR 0045
ENCODING 69
SWIDTH 450 0
DWIDTH 5 0
BBX 5 8 1 0
BITMAP
78
70
70
70
70
78
78
E0
ENDCHAR
STARTCHAR 0046
ENCODING 70
SWIDTH 450 0
DWIDTH 5 0
BBX 6 8 1 0
BITMAP
3C
7C
C0
E0
E0
C0
80
C0
ENDCHAR
STARTCHAR 0047
ENCODING 71
SWIDTH 450 0
DWIDTH 5 0
BBX 6 8 1 0
BITMAP
18
3C
60
40
D8
D8
F0
E0
ENDCHAR
STARTCHAR 0048
ENCODING 72
SWIDTH 540 0
DWIDTH 6 0
BBX 7 8 0 0
BITMAP
08
3E
36
3E
7E
6C
6C
EC
ENDCHAR
STARTCHAR 0049
ENCODING 73
SWIDTH 270 0
DWIDTH 3 0
BBX 4 7 1 1
BITMAP
70
60
60
E0
E0
C0
C0
ENDCHAR
STARTCHAR 004A
ENCODING 74
SWIDTH 450 0
DWIDTH 5 0
BBX 5 7 1 1
BITMAP
18
38
38
38
30
F0
E0
ENDCHAR
STARTCHAR 004B
ENCODING 75
SWIDTH 540 0
DWIDTH 6 0
BBX 7 8 0 0
BITMAP
0A
36
7C
78
78
78
6C
E8
ENDCHAR
STARTCHAR 004C
ENCODING 76
SWIDTH 450 0
DWIDTH 5 0
BBX 5 8 1 0
BITMAP
10
70
70
70
E0
E0
F8
F8
ENDCHAR
STARTCHAR 004D
ENCODING 77
SWIDTH 630 0
DWIDTH 7 0
BBX 8 7 0 1
BITMAP
13
33
3F
7E
66
66
CE
ENDCHAR
STARTCHAR 004E
ENCODING 78
SWIDTH 540 0
DWIDTH 6 0
BBX 7 7 0 0
BITMAP
3E
36
76
7C
7C
6C
FC
ENDCHAR
STARTCHAR 004F
ENCODING 79
SWIDTH 450 0
DWIDTH 5 0
BBX 6 8 1 0
BITMAP
30
78
78
CC
DC
F8
F8
70
ENDCHAR
STARTCHAR 0050
ENCODING 80
SWIDTH 450 0
DWIDTH 5 0
BBX 6 8 0 0
BITMAP
18
3C
34
74
7C
60
E0
E0
ENDCHAR
STARTCHAR 0051
ENCODING 81
SWIDTH 540 0
DWIDTH 6 0
BBX 6 8 1 0
BITMAP
30
78
7C
CC
C8
F8
F8
7C
ENDCHAR
STARTCHAR 0052
ENCODING 82
SWIDTH 540 0
DWIDTH 6 0
BBX 6 8 1 0
BITMAP
30
78
EC
F8
F0
F8
F8
D8
ENDCHAR
STARTCHAR 0053
ENCODING 83
SWIDTH 450 0
DWIDTH 5 0
BBX 7 8 0 0
BITMAP
0E
3C
3C
20
38
0C
F8
70
ENDCHAR
STARTCHAR 0054
ENCODING 84
SWIDTH 540 0
DWIDTH 6 0
BBX 7 8 1 0
BITMAP
04
7E
FC
30
30
30
20
20
ENDCHAR
STARTCHAR 0055
ENCODING 85
SWIDTH 540 0
DWIDTH 6 0
BBX 6 7 1 1
BITMAP
64
4C
CC
CC
F8
F0
60
ENDCHAR
STARTCHAR 0056
ENCODING 86
SWIDTH 540 0
DWIDTH 6 0
BBX 6 7 2 0
BITMAP
CC
D8
D8
70
70
70
20
ENDCHAR
STARTCHAR 0057
ENCODING 87
SWIDTH 720 0
DWIDTH 8 0
BBX 7 7 2 1
BITMAP
D6
D6
FC
FC
F8
58
50
ENDCHAR
STARTCHAR 0058
ENCODING 88
SWIDTH 540 0
DWIDTH 6 0
BBX 6 8 1 0
BITMAP
04
6C
6C
78
30
78
D8
C0
ENDCHAR
STARTCHAR 0059
ENCODING 89
SWIDTH 540 0
DWIDTH 6 0
BBX 6 8 2 0
BITMAP
04
CC
D8
F0
70
60
60
60
ENDCHAR
STARTCHAR 005A
ENCODING 90
SWIDTH 540 0
DWIDTH 6 0
BBX 6 8 1 0
BITMAP
18
7C
98
30
30
60
7C
38
ENDCHAR
STARTCHAR 005B
ENCODING 91
SWIDTH 270 0
DWIDTH 3 0
BBX 6 11 0 -2
BITMAP
3C
38
20
60
60
60
40
40
C0
F0
E0
ENDCHAR
STARTCHAR 005C
ENCODING 92
SWIDTH 450 0
DWIDTH 5 0
BBX 3 9 2 -1
BITMAP
C0
C0
C0
C0
C0
40
60
60
40
ENDCHAR
STARTCHAR 005D
ENCODING 93
SWIDTH 270 0
DWIDTH 3 0
BBX 6 11 0 -2
BITMAP
3C
38
18
18
18
10
10
30
30
F0
C0
ENDCHAR
STARTCHAR 005E
ENCODING 94
SWIDTH 450 0
DWIDTH 5 0
BBX 5 4 1 4
BITMAP
10
30
78
D8
ENDCHAR
STARTCHAR 005F
ENCODING 95
SWIDTH 360 0
DWIDTH 4 0
BBX 4 1 0 -1
BITMAP
F0
ENDCHAR
STARTCHAR 0060
ENCODING 96
SWIDTH 180 0
DWIDTH 2 0
BBX 2 2 2 8
BITMAP
C0
40
ENDCHAR
STARTCHAR 0061
ENCODING 97
SWIDTH 630 0
DWIDTH 7 0
BBX 6 7 1 1
BITMAP
18
18
38
78
58
F8
9C
ENDCHAR
STARTCHAR 0062
ENCODING 98
SWIDTH 450 0
DWIDTH 5 0
BBX 5 8 1 0
BITMAP
70
78
58
70
F8
D8
F8
F0
ENDCHAR
STARTCHAR 0063
ENCODING 99
SWIDTH 450 0
DWIDTH 5 0
BBX 6 8 1 0
BITMAP
10
7C
78
C0
C0
F8
F8
60
ENDCHAR
STARTCHAR 0064
ENCODING 100
SWIDTH 450 0
DWIDTH 5 0
BBX 5 8 1 0
BITMAP
60
70
F8
D8
D0
F0
E0
80
ENDCHAR
STARTCHAR 0065
ENCODING 101
SWIDTH 450 0
DWIDTH 5 0
BBX 5 8 1 0
BITMAP
78
70
70
70
70
78
78
E0
ENDCHAR
STARTCHAR 0066
ENCODING 102
SWIDTH 450 0
DWIDTH 5 0
BBX 6 8 1 0
BITMAP
3C
7C
C0
E0
E0
C0
80
C0
ENDCHAR
STARTCHAR 0067
ENCODING 103
SWIDTH 450 0
DWIDTH 5 0
BBX 6 8 1 0
BITMAP
18
3C
60
40
D8
D8
F0
E0
ENDCHAR
STARTCHAR 0068
ENCODING 104
SWIDTH 540 0
DWIDTH 6 0
BBX 7 8 0 0
BITMAP
08
3E
36
3E
7E
6C
6C
EC
ENDCHAR
STARTCHAR 0069
ENCODING 105
SWIDTH 270 0
DWIDTH 3 0
BBX 4 7 1 1
BITMAP
70
60
60
E0
E0
C0
C0
ENDCHAR
STARTCHAR 006A
ENCODING 106
SWIDTH 450 0
DWIDTH 5 0
BBX 5 7 1 1
BITMAP
18
38
38
38
30
F0
E0
ENDCHAR
STARTCHAR 006B
ENCODING 107
SWIDTH 540 0
DWIDTH 6 0
BBX 7 8 0 0
BITMAP
0A
36
7C
78
78
78
6C
E8
ENDCHAR
STARTCHAR 006C
ENCODING 108
SWIDTH 450 0
DWIDTH 5 0
BBX 5 8 1 0
BITMAP
10
70
70
70
E0
E0
F8
F8
ENDCHAR
STARTCHAR 006D
ENCODING 109
SWIDTH 630 0
DWIDTH 7 0
BBX 8 7 0 1
BITMAP
13
33
3F
7E
66
66
CE
ENDCHAR
STARTCHAR 006E
ENCODING 110
SWIDTH 540 0
DWIDTH 6 0
BBX 7 7 0 0
BITMAP
3E
36
76
7C
7C
6C
FC
ENDCHAR
STARTCHAR 006F
ENCODING 111
SWIDTH 450 0
DWIDTH 5 0
BBX 6 8 1 0
BITMAP
30
78
78
CC
DC
F8
F8
70
ENDCHAR
STARTCHAR 0070
ENCODING 112
SWIDTH 450 0
DWIDTH 5 0
BBX 6 8 0 0
BITMAP
18
3C
34
74
7C
60
E0
E0
ENDCHAR
STARTCHAR 0071
ENCODING 113
SWIDTH 540 0
DWIDTH 6 0
BBX 6 8 1 0
BITMAP
30
78
7C
CC
C8
F8
F8
7C
ENDCHAR
STARTCHAR 0072
ENCODING 114
SWIDTH 540 0
DWIDTH 6 0
BBX 6 8 1 0
BITMAP
30
78
EC
F8
F0
F8
F8
D8
ENDCHAR
STARTCHAR 0073
ENCODING 115
SWIDTH 450 0
DWIDTH 5 0
BBX 7 8 0 0
BITMAP
0E
3C
3C
20
38
0C
F8
70
ENDCHAR
STARTCHAR 0074
ENCODING 116
SWIDTH 540 0
DWIDTH 6 0
BBX 7 8 1 0
BITMAP
04
7E
FC
30
30
30
20
20
ENDCHAR
STARTCHAR 0075
ENCODING 117
SWIDTH 540 0
DWIDTH 6 0
BBX 6 7 1 1
BITMAP
64
4C
CC
CC
F8
F0
60
ENDCHAR
STARTCHAR 0076
ENCODING 118
SWIDTH 540 0
DWIDTH 6 0
BBX 6 7 2 0
BITMAP
CC
D8
D8
70
70
70
20
ENDCHAR
STARTCHAR 0077
ENCODING 119
SWIDTH 720 0
DWIDTH 8 0
BBX 7 7 2 1
BITMAP
D6
D6
FC
FC
F8
58
50
ENDCHAR
STARTCHAR 0078
ENCODING 120
SWIDTH 540 0
DWIDTH 6 0
BBX 6 8 1 0
BITMAP
04
6C
6C
78
30
78
D8
C0
ENDCHAR
STARTCHAR 0079
ENCODING 121
SWIDTH 540 0
DWIDTH 6 0
BBX 6 8 2 0
BITMAP
04
CC
D8
F0
70
60
60
60
ENDCHAR
STARTCHAR 007A
ENCODING 122
SWIDTH 540 0
DWIDTH 6 0
BBX 6 8 1 0
BITMAP
18
7C
98
30
30
60
7C
38
ENDCHAR
STARTCHAR 007B
ENCODING 123
SWIDTH 270 0
DWIDTH 3 0
BBX 4 10 1 -1
BITMAP
10
30
20
60
C0
C0
40
40
C0
40
ENDCHAR
STARTCHAR 007C
ENCODING 124
SWIDTH 180 0
DWIDTH 2 0
BBX 4 11 0 -2
BITMAP
30
20
20
60
60
60
40
40
C0
C0
C0
ENDCHAR
STARTCHAR 007D
ENCODING 125
SWIDTH 270 0
DWIDTH 3 0
BBX 5 10 0 -1
BITMAP
30
10
10
30
38
30
20
20
40
C0
ENDCHAR
STARTCHAR 007E
ENCODING 126
SWIDTH 450 0
DWIDTH 5 0
BBX 5 2 1 3
BITMAP
F8
F8
ENDCHAR
STARTCHAR 00A0
ENCODING 160
SWIDTH 270 0
DWIDTH 3 0
BBX 0 0 0 0
BITMAP
ENDCHAR
STARTCHAR 00A1
ENCODING 161
SWIDTH 270 0
DWIDTH 3 0
BBX 4 8 0 -2
BITMAP
30
20
00
60
60
60
E0
E0
ENDCHAR
STARTCHAR 00A2
ENCODING 162
SWIDTH 450 0
DWIDTH 5 0
BBX 6 10 1 -1
BITMAP
08
08
7C
78
D0
F0
E0
F8
70
C0
ENDCHAR
STARTCHAR 00A3
ENCODING 163
SWIDTH 540 0
DWIDTH 6 0
BBX 7 8 0 0
BITMAP
04
1E
1E
30
7C
30
7C
FC
ENDCHAR
STARTCHAR 00A4
ENCODING 164
SWIDTH 360 0
DWIDTH 4 0
BBX 5 4 1 2
BITMAP
78
50
50
F0
ENDCHAR
STARTCHAR 00A5
ENCODING 165
SWIDTH 540 0
DWIDTH 6 0
BBX 7 8 1 0
BITMAP
02
66
6C
78
78
30
F8
30
ENDCHAR
STARTCHAR 00A6
ENCODING 166
SWIDTH 180 0
DWIDTH 2 0
BBX 4 11 0 -2
BITMAP
30
20
20
60
00
00
40
C0
C0
C0
80
ENDCHAR
STARTCHAR 00A7
ENCODING 167
SWIDTH 450 0
DWIDTH 5 0
BBX 5 10 1 -1
BITMAP
10
78
68
70
F8
D8
78
30
F0
60
ENDCHAR
STARTCHAR 00A8
ENCODING 168
SWIDTH 270 0
DWIDTH 3 0
BBX 3 1 2 8
BITMAP
A0
ENDCHAR
STARTCHAR 00A9
ENCODING 169
SWIDTH 630 0
DWIDTH 7 0
BBX 7 7 1 0
BITMAP
7E
5A
BA
A2
B4
CC
70
ENDCHAR
STARTCHAR 00AA
ENCODING 170
SWIDTH 270 0
DWIDTH 3 0
BBX 3 3 1 5
BITMAP
20
60
E0
ENDCHAR
STARTCHAR 00AB
ENCODING 171
SWIDTH 450 0
DWIDTH 5 0
BBX 5 5 1 0
BITMAP
28
D8
A0
D0
50
ENDCHAR
STARTCHAR 00AC
ENCODING 172
SWIDTH 450 0
DWIDTH 5 0
BBX 5 3 1 2
BITMAP
F8
F8
18
ENDCHAR
STARTCHAR 00AD
ENCODING 173
SWIDTH 360 0
DWIDTH 4 0
BBX 4 2 1 3
BITMAP
F0
F0
ENDCHAR
STARTCHAR 00AE
ENCODING 174
SWIDTH 450 0
DWIDTH 5 0
BBX 5 5 1 3
BITMAP
30
78
A8
B8
70
ENDCHAR
STARTCHAR 00AF
ENCODING 175
SWIDTH 270 0
DWIDTH 3 0
BBX 3 1 2 8
BITMAP
E0
ENDCHAR
STARTCHAR 00B0
ENCODING 176
SWIDTH 270 0
DWIDTH 3 0
BBX 4 4 1 4
BITMAP
60
50
F0
40
ENDCHAR
STARTCHAR 00B1
ENCODING 177
SWIDTH 450 0
DWIDTH 5 0
BBX 6 6 0 0
BITMAP
18
7C
7C
30
00
F8
ENDCHAR
STARTCHAR 00B2
ENCODING 178
SWIDTH 270 0
DWIDTH 3 0
BBX 3 4 1 4
BITMAP
40
20
40
E0
ENDCHAR
STARTCHAR 00B3
ENCODING 179
SWIDTH 180 0
DWIDTH 2 0
BBX 3 3 1 5
BITMAP
40
20
C0
ENDCHAR
STARTCHAR 00B4
ENCODING 180
SWIDTH 180 0
DWIDTH 2 0
BBX 2 2 2 8
BITMAP
40
C0
ENDCHAR
STARTCHAR 00B5
ENCODING 181
SWIDTH 540 0
DWIDTH 6 0
BBX 7 8 0 -2
BITMAP
66
66
6E
7C
7C
F8
C0
80
ENDCHAR
STARTCHAR 00B6
ENCODING 182
SWIDTH 360 0
DWIDTH 4 0
BBX 5 9 1 -1
BITMAP
38
78
F0
F0
D0
50
70
60
A0
ENDCHAR
STARTCHAR 00B7
ENCODING 183
SWIDTH 180 0
DWIDTH 2 0
BBX 2 2 1 3
BITMAP
C0
C0
ENDCHAR
STARTCHAR 00B8
ENCODING 184
SWIDTH 270 0
DWIDTH 3 0
BBX 3 2 0 -2
BITMAP
60
E0
ENDCHAR
STARTCHAR 00B9
ENCODING 185
SWIDTH 180 0
DWIDTH 2 0
BBX 1 3 2 5
BITMAP
80
80
80
ENDCHAR
STARTCHAR 00BA
ENCODING 186
SWIDTH 270 0
DWIDTH 3 0
BBX 3 4 1 4
BITMAP
40
60
A0
E0
ENDCHAR
STARTCHAR 00BB
ENCODING 187
SWIDTH 450 0
DWIDTH 5 0
BBX 6 5 0 0
BITMAP
50
78
2C
58
90
ENDCHAR
STARTCHAR 00BC
ENCODING 188
SWIDTH 540 0
DWIDTH 6 0
BBX 6 8 1 0
BITMAP
04
4C
48
50
28
50
D8
88
ENDCHAR
STARTCHAR 00BD
ENCODING 189
SWIDTH 540 0
DWIDTH 6 0
BBX 6 8 1 0
BITMAP
04
4C
48
50
28
48
C8
98
ENDCHAR
STARTCHAR 00BE
ENCODING 190
SWIDTH 540 0
DWIDTH 6 0
BBX 6 8 1 0
BITMAP
04
4C
28
D0
28
50
D8
88
ENDCHAR
STARTCHAR 00BF
ENCODING 191
SWIDTH 450 0
DWIDTH 5 0
BBX 5 8 0 -2
BITMAP
18
18
00
30
70
C0
D8
F0
ENDCHAR
STARTCHAR 00C0
ENCODING 192
SWIDTH 630 0
DWIDTH 7 0
BBX 6 10 1 0
BITMAP
10
18
00
18
18
38
78
58
F8
9C
ENDCHAR
STARTCHAR 00C1
ENCODING 193
SWIDTH 630 0
DWIDTH 7 0
BBX 7 10 1 0
BITMAP
06
0C
00
18
18
38
78
58
F8
9C
ENDCHAR
STARTCHAR 00C2
ENCODING 194
SWIDTH 630 0
DWIDTH 7 0
BBX 6 10 1 0
BITMAP
08
1C
00
18
18
38
78
58
F8
9C
ENDCHAR
STARTCHAR 00C3
ENCODING 195
SWIDTH 630 0
DWIDTH 7 0
BBX 6 9 1 1
BITMAP
1C
00
18
18
38
78
58
F8
9C
ENDCHAR
STARTCHAR 00C4
ENCODING 196
SWIDTH 630 0
DWIDTH 7 0
BBX 6 9 1 0
BITMAP
14
00
18
18
38
78
58
F8
9C
ENDCHAR
STARTCHAR 00C5
ENCODING 197
SWIDTH 630 0
DWIDTH 7 0
BBX 6 10 1 0
BITMAP
08
14
1C
18
18
38
78
58
F8
9C
ENDCHAR
STARTCHAR 00C6
ENCODING 198
SWIDTH 720 0
DWIDTH 8 0
BBX 8 8 0 0
BITMAP
07
0F
0F
1D
3E
2F
7F
CE
ENDCHAR
STARTCHAR 00C7
ENCODING 199
SWIDTH 450 0
DWIDTH 5 0
BBX 6 10 1 -2
BITMAP
10
7C
78
C0
C0
F8
F8
60
60
E0
ENDCHAR
STARTCHAR 00C8
ENCODING 200
SWIDTH 450 0
DWIDTH 5 0
BBX 5 10 1 0
BITMAP
60
20
78
70
70
70
70
78
78
E0
ENDCHAR
STARTCHAR 00C9
ENCODING 201
SWIDTH 450 0
DWIDTH 5 0
BBX 5 10 1 0
BITMAP
10
30
78
70
70
70
70
78
78
E0
ENDCHAR
STARTCHAR 00CA
ENCODING 202
SWIDTH 450 0
DWIDTH 5 0
BBX 5 10 1 0
BITMAP
20
70
78
70
70
70
70
78
78
E0
ENDCHAR
STARTCHAR 00CB
ENCODING 203
SWIDTH 450 0
DWIDTH 5 0
BBX 5 9 1 0
BITMAP
50
78
70
70
70
70
78
78
E0
ENDCHAR
STARTCHAR 00CC
ENCODING 204
SWIDTH 270 0
DWIDTH 3 0
BBX 4 10 1 0
BITMAP
20
30
00
70
60
60
E0
E0
C0
C0
ENDCHAR
STARTCHAR 00CD
ENCODING 205
SWIDTH 270 0
DWIDTH 3 0
BBX 5 10 1 0
BITMAP
08
10
00
70
60
60
E0
E0
C0
C0
ENDCHAR
STARTCHAR 00CE
ENCODING 206
SWIDTH 270 0
DWIDTH 3 0
BBX 5 10 1 0
BITMAP
10
38
00
70
60
60
E0
E0
C0
C0
ENDCHAR
STARTCHAR 00CF
ENCODING 207
SWIDTH 270 0
DWIDTH 3 0
BBX 5 9 1 0
BITMAP
28
00
70
60
60
E0
E0
C0
C0
ENDCHAR
STARTCHAR 00D0
ENCODING 208
SWIDTH 450 0
DWIDTH 5 0
BBX 5 8 1 0
BITMAP
20
78
78
E8
D8
70
60
40
ENDCHAR
STARTCHAR 00D1
ENCODING 209
SWIDTH 540 0
DWIDTH 6 0
BBX 7 9 0 1
BITMAP
0E
00
3E
36
76
7C
7C
6C
FC
ENDCHAR
STARTCHAR 00D2
ENCODING 210
SWIDTH 450 0
DWIDTH 5 0
BBX 6 10 1 0
BITMAP
60
20
30
78
78
CC
DC
F8
F8
70
ENDCHAR
STARTCHAR 00D3
ENCODING 211
SWIDTH 450 0
DWIDTH 5 0
BBX 6 10 1 0
BITMAP
08
10
30
78
78
CC
DC
F8
F8
70
ENDCHAR
STARTCHAR 00D4
ENCODING 212
SWIDTH 450 0
DWIDTH 5 0
BBX 6 10 1 0
BITMAP
10
78
30
78
78
CC
DC
F8
F8
70
ENDCHAR
STARTCHAR 00D5
ENCODING 213
SWIDTH 450 0
DWIDTH 5 0
BBX 6 10 1 0
BITMAP
08
70
30
78
78
CC
DC
F8
F8
70
ENDCHAR
STARTCHAR 00D6
ENCODING 214
SWIDTH 450 0
DWIDTH 5 0
BBX 6 9 1 0
BITMAP
70
30
78
78
CC
DC
F8
F8
70
ENDCHAR
STARTCHAR 00D7
ENCODING 215
SWIDTH 360 0
DWIDTH 4 0
BBX 4 4 1 2
BITMAP
50
70
70
F0
ENDCHAR
STARTCHAR 00D8
ENCODING 216
SWIDTH 450 0
DWIDTH 5 0
BBX 8 8 0 0
BITMAP
1B
3E
3C
7E
56
7C
7C
F8
ENDCHAR
STARTCHAR 00D9
ENCODING 217
SWIDTH 540 0
DWIDTH 6 0
BBX 6 10 1 0
BITMAP
10
10
00
64
4C
CC
CC
F8
F0
60
ENDCHAR
STARTCHAR 00DA
ENCODING 218
SWIDTH 540 0
DWIDTH 6 0
BBX 6 10 1 0
BITMAP
04
08
00
64
4C
CC
CC
F8
F0
60
ENDCHAR
STARTCHAR 00DB
ENCODING 219
SWIDTH 540 0
DWIDTH 6 0
BBX 6 10 1 0
BITMAP
08
1C
00
64
4C
CC
CC
F8
F0
60
ENDCHAR
STARTCHAR 00DC
ENCODING 220
SWIDTH 540 0
DWIDTH 6 0
BBX 6 9 1 0
BITMAP
14
00
64
4C
CC
CC
F8
F0
60
ENDCHAR
STARTCHAR 00DD
ENCODING 221
SWIDTH 540 0
DWIDTH 6 0
BBX 6 10 2 0
BITMAP
08
10
04
CC
D8
F0
70
60
60
60
ENDCHAR
STARTCHAR 00DE
ENCODING 222
SWIDTH 450 0
DWIDTH 5 0
BBX 5 8 1 0
BITMAP
60
60
F8
C8
D8
F8
E0
C0
ENDCHAR
STARTCHAR 00DF
ENCODING 223
SWIDTH 540 0
DWIDTH 6 0
BBX 6 9 1 -1
BITMAP
30
78
D8
D0
F8
CC
98
B8
80
ENDCHAR
STARTCHAR 00E0
ENCODING 224
SWIDTH 630 0
DWIDTH 7 0
BBX 6 10 1 0
BITMAP
10
18
00
18
18
38
78
58
F8
9C
ENDCHAR
STARTCHAR 00E1
ENCODING 225
SWIDTH 630 0
DWIDTH 7 0
BBX 7 10 1 0
BITMAP
06
0C
00
18
18
38
78
58
F8
9C
ENDCHAR
STARTCHAR 00E2
ENCODING 226
SWIDTH 630 0
DWIDTH 7 0
BBX 6 10 1 0
BITMAP
08
1C
00
18
18
38
78
58
F8
9C
ENDCHAR
STARTCHAR 00E3
ENCODING 227
SWIDTH 630 0
DWIDTH 7 0
BBX 6 9 1 1
BITMAP
1C
00
18
18
38
78
58
F8
9C
ENDCHAR
STARTCHAR 00E4
ENCODING 228
SWIDTH 630 0
DWIDTH 7 0
BBX 6 9 1 0
BITMAP
14
00
18
18
38
78
58
F8
9C
ENDCHAR
STARTCHAR 00E5
ENCODING 229
SWIDTH 630 0
DWIDTH 7 0
BBX 6 10 1 0
BITMAP
08
14
1C
18
18
38
78
58
F8
9C
ENDCHAR
STARTCHAR 00E6
ENCODING 230
SWIDTH 720 0
DWIDTH 8 0
BBX 8 8 0 0
BITMAP
07
0F
0F
1D
3E
2F
7F
CE
ENDCHAR
STARTCHAR 00E7
ENCODING 231
SWIDTH 450 0
DWIDTH 5 0
BBX 6 10 1 -2
BITMAP
10
7C
78
C0
C0
F8
F8
60
60
E0
ENDCHAR
STARTCHAR 00E8
ENCODING 232
SWIDTH 450 0
DWIDTH 5 0
BBX 5 10 1 0
BITMAP
60
20
78
70
70
70
70
78
78
E0
ENDCHAR
STARTCHAR 00E9
ENCODING 233
SWIDTH 450 0
DWIDTH 5 0
BBX 5 10 1 0
BITMAP
10
30
78
70
70
70
70
78
78
E0
ENDCHAR
STARTCHAR 00EA
ENCODING 234
SWIDTH 450 0
DWIDTH 5 0
BBX 5 10 1 0
BITMAP
20
70
78
70
70
70
70
78
78
E0
ENDCHAR
STARTCHAR 00EB
ENCODING 235
SWIDTH 450 0
DWIDTH 5 0
BBX 5 9 1 0
BITMAP
50
78
70
70
70
70
78
78
E0
ENDCHAR
STARTCHAR 00EC
ENCODING 236
SWIDTH 270 0
DWIDTH 3 0
BBX 4 10 1 0
BITMAP
20
30
00
70
60
60
E0
E0
C0
C0
ENDCHAR
STARTCHAR 00ED
ENCODING 237
SWIDTH 270 0
DWIDTH 3 0
BBX 5 10 1 0
BITMAP
08
10
00
70
60
60
E0
E0
C0
C0
ENDCHAR
STARTCHAR 00EE
ENCODING 238
SWIDTH 270 0
DWIDTH 3 0
BBX 5 10 1 0
BITMAP
10
38
00
70
60
60
E0
E0
C0
C0
ENDCHAR
STARTCHAR 00EF
ENCODING 239
SWIDTH 270 0
DWIDTH 3 0
BBX 5 9 1 0
BITMAP
28
00
70
60
60
E0
E0
C0
C0
ENDCHAR
STARTCHAR 00F0
ENCODING 240
SWIDTH 450 0
DWIDTH 5 0
BBX 5 8 1 0
BITMAP
20
78
78
E8
D8
70
60
40
ENDCHAR
STARTCHAR 00F1
ENCODING 241
SWIDTH 540 0
DWIDTH 6 0
BBX 7 9 0 1
BITMAP
0E
00
3E
36
76
7C
7C
6C
FC
ENDCHAR
STARTCHAR 00F2
ENCODING 242
SWIDTH 450 0
DWIDTH 5 0
BBX 6 10 1 0
BITMAP
60
20
30
78
78
CC
DC
F8
F8
70
ENDCHAR
STARTCHAR 00F3
ENCODING 243
SWIDTH 450 0
DWIDTH 5 0
BBX 6 10 1 0
BITMAP
08
10
30
78
78
CC
DC
F8
F8
70
ENDCHAR
STARTCHAR 00F4
ENCODING 244
SWIDTH 450 0
DWIDTH 5 0
BBX 6 10 1 0
BITMAP
10
78
30
78
78
CC
DC
F8
F8
70
ENDCHAR
STARTCHAR 00F5
ENCODING 245
SWIDTH 450 0
DWIDTH 5 0
BBX 6 10 1 0
BITMAP
08
70
30
78
78
CC
DC
F8
F8
70
ENDCHAR
STARTCHAR 00F6
ENCODING 246
SWIDTH 450 0
DWIDTH 5 0
BBX 6 9 1 0
BITMAP
70
30
78
78
CC
DC
F8
F8
70
ENDCHAR
STARTCHAR 00F7
ENCODING 247
SWIDTH 450 0
DWIDTH 5 0
BBX 5 6 1 1
BITMAP
30
30
F8
F8
60
60
ENDCHAR
STARTCHAR 00F8
ENCODING 248
SWIDTH 450 0
DWIDTH 5 0
BBX 8 8 0 0
BITMAP
1B
3E
3C
7E
56
7C
7C
F8
ENDCHAR
STARTCHAR 00F9
ENCODING 249
SWIDTH 540 0
DWIDTH 6 0
BBX 6 10 1 0
BITMAP
10
10
00
64
4C
CC
CC
F8
F0
60
ENDCHAR
STARTCHAR 00FA
ENCODING 250
SWIDTH 540 0
DWIDTH 6 0
BBX 6 10 1 0
BITMAP
04
08
00
64
4C
CC
CC
F8
F0
60
ENDCHAR
STARTCHAR 00FB
ENCODING 251
SWIDTH 540 0
DWIDTH 6 0
BBX 6 10 1 0
BITMAP
08
1C
00
64
4C
CC
CC
F8
F0
60
ENDCHAR
STARTCHAR 00FC
ENCODING 252
SWIDTH 540 0
DWIDTH 6 0
BBX 6 9 1 0
BITMAP
14
00
64
4C
CC
CC
F8
F0
60
ENDCHAR
STARTCHAR 00FD
ENCODING 253
SWIDTH 540 0
DWIDTH 6 0
BBX 6 10 2 0
BITMAP
08
10
04
CC
D8
F0
70
60
60
60
ENDCHAR
STARTCHAR 00FE
ENCODING 254
SWIDTH 450 0
DWIDTH 5 0
BBX 5 8 1 0
BITMAP
60
60
F8
C8
D8
F8
E0
C0
ENDCHAR
STARTCHAR 00FF
ENCODING 255
SWIDTH 540 0
DWIDTH 6 0
BBX 6 9 2 0
BITMAP
28
04
CC
D8
F0
70
60
60
60
ENDCHAR
STARTCHAR 0100
ENCODING 256
SWIDTH 630 0
DWIDTH 7 0
BBX 6 9 1 0
BITMAP
1C
00
18
18
38
78
58
F8
9C
ENDCHAR
STARTCHAR 0101
ENCODING 257
SWIDTH 630 0
DWIDTH 7 0
BBX 6 9 1 0
BITMAP
1C
00
18
18
38
78
58
F8
9C
ENDCHAR
STARTCHAR 0102
ENCODING 258
SWIDTH 630 0
DWIDTH 7 0
BBX 6 10 1 0
BITMAP
14
1C
00
18
18
38
78
58
F8
9C
ENDCHAR
STARTCHAR 0103
ENCODING 259
SWIDTH 630 0
DWIDTH 7 0
BBX 6 10 1 0
BITMAP
14
1C
00
18
18
38
78
58
F8
9C
ENDCHAR
STARTCHAR 0104
ENCODING 260
SWIDTH 630 0
DWIDTH 7 0
BBX 6 9 1 -1
BITMAP
18
18
38
78
58
F8
9C
10
38
ENDCHAR
STARTCHAR 0105
ENCODING 261
SWIDTH 630 0
DWIDTH 7 0
BBX 6 9 1 -1
BITMAP
18
18
38
78
58
F8
9C
10
38
ENDCHAR
STARTCHAR 0106
ENCODING 262
SWIDTH 450 0
DWIDTH 5 0
BBX 6 10 1 0
BITMAP
04
08
10
7C
78
C0
C0
F8
F8
60
ENDCHAR
STARTCHAR 0107
ENCODING 263
SWIDTH 450 0
DWIDTH 5 0
BBX 6 10 1 0
BITMAP
04
08
10
7C
78
C0
C0
F8
F8
60
ENDCHAR
STARTCHAR 0108
ENCODING 264
SWIDTH 450 0
DWIDTH 5 0
BBX 6 10 1 0
BITMAP
08
1C
10
7C
78
C0
C0
F8
F8
60
ENDCHAR
STARTCHAR 0109
ENCODING 265
SWIDTH 450 0
DWIDTH 5 0
BBX 6 10 1 0
BITMAP
08
1C
10
7C
78
C0
C0
F8
F8
60
ENDCHAR
STARTCHAR 010A
ENCODING 266
SWIDTH 450 0
DWIDTH 5 0
BBX 6 9 1 0
BITMAP
18
10
7C
78
C0
C0
F8
F8
60
ENDCHAR
STARTCHAR 010B
ENCODING 267
SWIDTH 450 0
DWIDTH 5 0
BBX 6 9 1 0
BITMAP
18
10
7C
78
C0
C0
F8
F8
60
ENDCHAR
STARTCHAR 010C
ENCODING 268
SWIDTH 450 0
DWIDTH 5 0
BBX 6 10 1 0
BITMAP
14
18
10
7C
78
C0
C0
F8
F8
60
ENDCHAR
STARTCHAR 010D
ENCODING 269
SWIDTH 450 0
DWIDTH 5 0
BBX 6 10 1 0
BITMAP
14
18
10
7C
78
C0
C0
F8
F8
60
ENDCHAR
STARTCHAR 010E
ENCODING 270
SWIDTH 450 0
DWIDTH 5 0
BBX 5 10 1 0
BITMAP
18
30
60
70
F8
D8
D0
F0
E0
80
ENDCHAR
STARTCHAR 010F
ENCODING 271
SWIDTH 450 0
DWIDTH 5 0
BBX 5 10 1 0
BITMAP
18
30
60
70
F8
D8
D0
F0
E0
80
ENDCHAR
STARTCHAR 0110
ENCODING 272
SWIDTH 450 0
DWIDTH 5 0
BBX 5 8 1 0
BITMAP
20
78
78
E8
D8
70
60
40
ENDCHAR
STARTCHAR 0111
ENCODING 273
SWIDTH 450 0
DWIDTH 5 0
BBX 5 8 1 0
BITMAP
20
78
78
E8
D8
70
60
40
ENDCHAR
STARTCHAR 0112
ENCODING 274
SWIDTH 450 0
DWIDTH 5 0
BBX 5 9 1 0
BITMAP
70
78
70
70
70
70
78
78
E0
ENDCHAR
STARTCHAR 0113
ENCODING 275
SWIDTH 450 0
DWIDTH 5 0
BBX 5 9 1 0
BITMAP
70
78
70
70
70
70
78
78
E0
ENDCHAR
STARTCHAR 0114
ENCODING 276
SWIDTH 450 0
DWIDTH 5 0
BBX 5 10 1 0
BITMAP
58
70
78
70
70
70
70
78
78
E0
ENDCHAR
STARTCHAR 0115
ENCODING 277
SWIDTH 450 0
DWIDTH 5 0
BBX 5 10 1 0
BITMAP
58
70
78
70
70
70
70
78
78
E0
ENDCHAR
STARTCHAR 0116
ENCODING 278
SWIDTH 450 0
DWIDTH 5 0
BBX 5 9 1 0
BITMAP
20
78
70
70
70
70
78
78
E0
ENDCHAR
STARTCHAR 0117
ENCODING 279
SWIDTH 450 0
DWIDTH 5 0
BBX 5 9 1 0
BITMAP
20
78
70
70
70
70
78
78
E0
ENDCHAR
STARTCHAR 0118
ENCODING 280
SWIDTH 450 0
DWIDTH 5 0
BBX 5 10 1 -2
BITMAP
78
70
70
70
70
78
78
E0
40
70
ENDCHAR
STARTCHAR 0119
ENCODING 281
SWIDTH 450 0
DWIDTH 5 0
BBX 5 10 1 -2
BITMAP
78
70
70
70
70
78
78
E0
40
70
ENDCHAR
STARTCHAR 011A
ENCODING 282
SWIDTH 450 0
DWIDTH 5 0
BBX 5 10 1 0
BITMAP
18
30
78
70
70
70
70
78
78
E0
ENDCHAR
STARTCHAR 011B
ENCODING 283
SWIDTH 450 0
DWIDTH 5 0
BBX 5 10 1 0
BITMAP
18
30
78
70
70
70
70
78
78
E0
ENDCHAR
STARTCHAR 011C
ENCODING 284
SWIDTH 450 0
DWIDTH 5 0
BBX 6 9 1 1
BITMAP
38
18
3C
60
40
D8
D8
F0
E0
ENDCHAR
STARTCHAR 011D
ENCODING 285
SWIDTH 450 0
DWIDTH 5 0
BBX 6 9 1 1
BITMAP
38
18
3C
60
40
D8
D8
F0
E0
ENDCHAR
STARTCHAR 011E
ENCODING 286
SWIDTH 450 0
DWIDTH 5 0
BBX 6 10 1 0
BITMAP
24
18
18
3C
60
40
D8
D8
F0
E0
ENDCHAR
STARTCHAR 011F
ENCODING 287
SWIDTH 450 0
DWIDTH 5 0
BBX 6 10 1 0
BITMAP
24
18
18
3C
60
40
D8
D8
F0
E0
ENDCHAR
STARTCHAR 0120
ENCODING 288
SWIDTH 450 0
DWIDTH 5 0
BBX 6 9 1 0
BITMAP
10
18
3C
60
40
D8
D8
F0
E0
ENDCHAR
STARTCHAR 0121
ENCODING 289
SWIDTH 450 0
DWIDTH 5 0
BBX 6 9 1 0
BITMAP
10
18
3C
60
40
D8
D8
F0
E0
ENDCHAR
STARTCHAR 0122
ENCODING 290
SWIDTH 450 0
DWIDTH 5 0
BBX 6 10 1 -2
BITMAP
18
3C
60
40
D8
D8
F0
E0
C0
80
ENDCHAR
STARTCHAR 0123
ENCODING 291
SWIDTH 450 0
DWIDTH 5 0
BBX 6 10 1 -2
BITMAP
18
3C
60
40
D8
D8
F0
E0
C0
80
ENDCHAR
STARTCHAR 0124
ENCODING 292
SWIDTH 540 0
DWIDTH 6 0
BBX 7 9 0 1
BITMAP
0E
08
3E
36
3E
7E
6C
6C
EC
ENDCHAR
STARTCHAR 0125
ENCODING 293
SWIDTH 540 0
DWIDTH 6 0
BBX 7 9 0 1
BITMAP
0E
08
3E
36
3E
7E
6C
6C
EC
ENDCHAR
STARTCHAR 0126
ENCODING 294
SWIDTH 540 0
DWIDTH 6 0
BBX 8 8 0 0
BITMAP
08
3F
7F
3E
7E
6C
6C
EC
ENDCHAR
STARTCHAR 0127
ENCODING 295
SWIDTH 540 0
DWIDTH 6 0
BBX 8 8 0 0
BITMAP
08
3F
7F
3E
7E
6C
6C
EC
ENDCHAR
STARTCHAR 0128
ENCODING 296
SWIDTH 270 0
DWIDTH 3 0
BBX 5 9 1 1
BITMAP
38
00
70
60
60
E0
E0
C0
C0
ENDCHAR
STARTCHAR 0129
ENCODING 297
SWIDTH 270 0
DWIDTH 3 0
BBX 5 9 1 1
BITMAP
38
00
70
60
60
E0
E0
C0
C0
ENDCHAR
STARTCHAR 012A
ENCODING 298
SWIDTH 270 0
DWIDTH 3 0
BBX 5 9 1 0
BITMAP
38
00
70
60
60
E0
E0
C0
C0
ENDCHAR
STARTCHAR 012B
ENCODING 299
SWIDTH 270 0
DWIDTH 3 0
BBX 5 9 1 0
BITMAP
38
00
70
60
60
E0
E0
C0
C0
ENDCHAR
STARTCHAR 012C
ENCODING 300
SWIDTH 270 0
DWIDTH 3 0
BBX 5 10 1 0
BITMAP
28
30
00
70
60
60
E0
E0
C0
C0
ENDCHAR
STARTCHAR 012D
ENCODING 301
SWIDTH 270 0
DWIDTH 3 0
BBX 5 10 1 0
BITMAP
28
30
00
70
60
60
E0
E0
C0
C0
ENDCHAR
STARTCHAR 012E
ENCODING 302
SWIDTH 270 0
DWIDTH 3 0
BBX 5 9 0 -1
BITMAP
38
30
30
70
70
60
60
40
E0
ENDCHAR
STARTCHAR 012F
ENCODING 303
SWIDTH 270 0
DWIDTH 3 0
BBX 5 9 0 -1
BITMAP
38
30
30
70
70
60
60
40
E0
ENDCHAR
STARTCHAR 0130
ENCODING 304
SWIDTH 270 0
DWIDTH 3 0
BBX 4 9 1 0
BITMAP
10
00
70
60
60
E0
E0
C0
C0
ENDCHAR
STARTCHAR 0131
ENCODING 305
SWIDTH 270 0
DWIDTH 3 0
BBX 4 9 1 0
BITMAP
10
00
70
60
60
E0
E0
C0
C0
ENDCHAR
STARTCHAR 0132
ENCODING 306
SWIDTH 540 0
DWIDTH 6 0
BBX 8 7 0 1
BITMAP
33
37
37
66
6E
7E
DC
ENDCHAR
STARTCHAR 0133
ENCODING 307
SWIDTH 540 0
DWIDTH 6 0
BBX 8 7 0 1
BITMAP
33
37
37
66
6E
7E
DC
ENDCHAR
STARTCHAR 0134
ENCODING 308
SWIDTH 450 0
DWIDTH 5 0
BBX 6 10 1 0
BITMAP
08
1C
00
18
38
38
38
30
F0
E0
ENDCHAR
STARTCHAR 0135
ENCODING 309
SWIDTH 450 0
DWIDTH 5 0
BBX 6 10 1 0
BITMAP
08
1C
00
18
38
38
38
30
F0
E0
ENDCHAR
STARTCHAR 0136
ENCODING 310
SWIDTH 540 0
DWIDTH 6 0
BBX 7 10 0 -2
BITMAP
0A
36
7C
78
78
78
6C
E8
30
20
ENDCHAR
STARTCHAR 0137
ENCODING 311
SWIDTH 540 0
DWIDTH 6 0
BBX 7 10 0 -2
BITMAP
0A
36
7C
78
78
78
6C
E8
30
20
ENDCHAR
STARTCHAR 0138
ENCODING 312
SWIDTH 450 0
DWIDTH 5 0
BBX 6 6 0 0
BITMAP
34
7C
78
78
F8
EC
ENDCHAR
STARTCHAR 0139
ENCODING 313
SWIDTH 450 0
DWIDTH 5 0
BBX 6 10 1 0
BITMAP
0C
18
10
70
70
70
E0
E0
F8
F8
ENDCHAR
STARTCHAR 013A
ENCODING 314
SWIDTH 450 0
DWIDTH 5 0
BBX 6 10 1 0
BITMAP
0C
18
10
70
70
70
E0
E0
F8
F8
ENDCHAR
STARTCHAR 013B
ENCODING 315
SWIDTH 450 0
DWIDTH 5 0
BBX 5 10 1 -2
BITMAP
10
70
70
70
E0
E0
F8
F8
40
C0
ENDCHAR
STARTCHAR 013C
ENCODING 316
SWIDTH 450 0
DWIDTH 5 0
BBX 5 10 1 -2
BITMAP
10
70
70
70
E0
E0
F8
F8
40
C0
ENDCHAR
STARTCHAR 013D
ENCODING 317
SWIDTH 450 0
DWIDTH 5 0
BBX 6 8 1 0
BITMAP
14
74
70
70
E0
E0
F8
F8
ENDCHAR
STARTCHAR 013E
ENCODING 318
SWIDTH 450 0
DWIDTH 5 0
BBX 6 8 1 0
BITMAP
14
74
70
70
E0
E0
F8
F8
ENDCHAR
STARTCHAR 013F
ENCODING 319
SWIDTH 450 0
DWIDTH 5 0
BBX 5 8 1 0
BITMAP
10
70
70
70
E8
E0
F8
F8
ENDCHAR
STARTCHAR 0140
ENCODING 320
SWIDTH 450 0
DWIDTH 5 0
BBX 5 8 1 0
BITMAP
10
70
70
70
E8
E0
F8
F8
ENDCHAR
STARTCHAR 0141
ENCODING 321
SWIDTH 540 0
DWIDTH 6 0
BBX 6 8 1 0
BITMAP
18
38
3C
78
70
E0
F8
F8
ENDCHAR
STARTCHAR 0142
ENCODING 322
SWIDTH 540 0
DWIDTH 6 0
BBX 6 8 1 0
BITMAP
18
38
3C
78
70
E0
F8
F8
ENDCHAR
STARTCHAR 0143
ENCODING 323
SWIDTH 540 0
DWIDTH 6 0
BBX 7 10 0 0
BITMAP
02
06
00
3E
36
76
7C
7C
6C
FC
ENDCHAR
STARTCHAR 0144
ENCODING 324
SWIDTH 540 0
DWIDTH 6 0
BBX 7 10 0 0
BITMAP
02
06
00
3E
36
76
7C
7C
6C
FC
ENDCHAR
STARTCHAR 0145
ENCODING 325
SWIDTH 540 0
DWIDTH 6 0
BBX 7 9 0 -2
BITMAP
3E
36
76
7C
7C
6C
FC
20
60
ENDCHAR
STARTCHAR 0146
ENCODING 326
SWIDTH 540 0
DWIDTH 6 0
BBX 7 9 0 -2
BITMAP
3E
36
76
7C
7C
6C
FC
20
60
ENDCHAR
STARTCHAR 0147
ENCODING 327
SWIDTH 540 0
DWIDTH 6 0
BBX 7 9 0 0
BITMAP
0E
00
3E
36
76
7C
7C
6C
FC
ENDCHAR
STARTCHAR 0148
ENCODING 328
SWIDTH 540 0
DWIDTH 6 0
BBX 7 9 0 0
BITMAP
0E
00
3E
36
76
7C
7C
6C
FC
ENDCHAR
STARTCHAR 0149
ENCODING 329
SWIDTH 630 0
DWIDTH 7 0
BBX 7 8 1 0
BITMAP
60
7E
F6
BE
3C
6C
6C
6C
ENDCHAR
STARTCHAR 014A
ENCODING 330
SWIDTH 540 0
DWIDTH 6 0
BBX 6 9 1 -1
BITMAP
58
7C
FC
CC
CC
C8
98
98
70
ENDCHAR
STARTCHAR 014B
ENCODING 331
SWIDTH 540 0
DWIDTH 6 0
BBX 6 9 1 -1
BITMAP
58
7C
FC
CC
CC
C8
98
98
70
ENDCHAR
STARTCHAR 014C
ENCODING 332
SWIDTH 450 0
DWIDTH 5 0
BBX 6 9 1 0
BITMAP
78
30
78
78
CC
DC
F8
F8
70
ENDCHAR
STARTCHAR 014D
ENCODING 333
SWIDTH 450 0
DWIDTH 5 0
BBX 6 9 1 0
BITMAP
78
30
78
78
CC
DC
F8
F8
70
ENDCHAR
STARTCHAR 014E
ENCODING 334
SWIDTH 450 0
DWIDTH 5 0
BBX 6 10 1 0
BITMAP
08
30
30
78
78
CC
DC
F8
F8
70
ENDCHAR
STARTCHAR 014F
ENCODING 335
SWIDTH 450 0
DWIDTH 5 0
BBX 6 10 1 0
BITMAP
08
30
30
78
78
CC
DC
F8
F8
70
ENDCHAR
STARTCHAR 0150
ENCODING 336
SWIDTH 450 0
DWIDTH 5 0
BBX 6 10 1 0
BITMAP
3C
28
30
78
78
CC
DC
F8
F8
70
ENDCHAR
STARTCHAR 0151
ENCODING 337
SWIDTH 450 0
DWIDTH 5 0
BBX 6 10 1 0
BITMAP
3C
28
30
78
78
CC
DC
F8
F8
70
ENDCHAR
STARTCHAR 0152
ENCODING 338
SWIDTH 720 0
DWIDTH 8 0
BBX 7 8 1 0
BITMAP
0E
3E
7E
DA
DC
FE
FE
FC
ENDCHAR
STARTCHAR 0153
ENCODING 339
SWIDTH 720 0
DWIDTH 8 0
BBX 7 8 1 0
BITMAP
0E
3E
7E
DA
DC
FE
FE
FC
ENDCHAR
STARTCHAR 0154
ENCODING 340
SWIDTH 540 0
DWIDTH 6 0
BBX 6 10 1 0
BITMAP
10
30
30
78
EC
F8
F0
F8
F8
D8
ENDCHAR
STARTCHAR 0155
ENCODING 341
SWIDTH 540 0
DWIDTH 6 0
BBX 6 10 1 0
BITMAP
10
30
30
78
EC
F8
F0
F8
F8
D8
ENDCHAR
STARTCHAR 0156
ENCODING 342
SWIDTH 540 0
DWIDTH 6 0
BBX 6 10 1 -2
BITMAP
30
78
EC
F8
F0
F8
F8
D8
20
60
ENDCHAR
STARTCHAR 0157
ENCODING 343
SWIDTH 540 0
DWIDTH 6 0
BBX 6 10 1 -2
BITMAP
30
78
EC
F8
F0
F8
F8
D8
20
60
ENDCHAR
STARTCHAR 0158
ENCODING 344
SWIDTH 540 0
DWIDTH 6 0
BBX 6 10 1 0
BITMAP
10
70
30
78
EC
F8
F0
F8
F8
D8
ENDCHAR
STARTCHAR 0159
ENCODING 345
SWIDTH 540 0
DWIDTH 6 0
BBX 6 10 1 0
BITMAP
10
70
30
78
EC
F8
F0
F8
F8
D8
ENDCHAR
STARTCHAR 015A
ENCODING 346
SWIDTH 450 0
DWIDTH 5 0
BBX 7 10 0 0
BITMAP
06
04
0E
3C
3C
20
38
0C
F8
70
ENDCHAR
STARTCHAR 015B
ENCODING 347
SWIDTH 450 0
DWIDTH 5 0
BBX 7 10 0 0
BITMAP
06
04
0E
3C
3C
20
38
0C
F8
70
ENDCHAR
STARTCHAR 015C
ENCODING 348
SWIDTH 450 0
DWIDTH 5 0
BBX 7 10 0 0
BITMAP
04
1E
0E
3C
3C
20
38
0C
F8
70
ENDCHAR
STARTCHAR 015D
ENCODING 349
SWIDTH 450 0
DWIDTH 5 0
BBX 7 10 0 0
BITMAP
04
1E
0E
3C
3C
20
38
0C
F8
70
ENDCHAR
STARTCHAR 015E
ENCODING 350
SWIDTH 450 0
DWIDTH 5 0
BBX 7 10 0 -2
BITMAP
0E
3C
3C
20
38
0C
F8
70
30
70
ENDCHAR
STARTCHAR 015F
ENCODING 351
SWIDTH 450 0
DWIDTH 5 0
BBX 7 10 0 -2
BITMAP
0E
3C
3C
20
38
0C
F8
70
30
70
ENDCHAR
STARTCHAR 0160
ENCODING 352
SWIDTH 450 0
DWIDTH 5 0
BBX 7 10 0 0
BITMAP
02
0C
0E
3C
3C
20
38
0C
F8
70
ENDCHAR
STARTCHAR 0161
ENCODING 353
SWIDTH 450 0
DWIDTH 5 0
BBX 7 10 0 0
BITMAP
02
0C
0E
3C
3C
20
38
0C
F8
70
ENDCHAR
STARTCHAR 0162
ENCODING 354
SWIDTH 540 0
DWIDTH 6 0
BBX 7 10 1 -2
BITMAP
04
7E
FC
30
30
30
20
20
20
60
ENDCHAR
STARTCHAR 0163
ENCODING 355
SWIDTH 540 0
DWIDTH 6 0
BBX 7 10 1 -2
BITMAP
04
7E
FC
30
30
30
20
20
20
60
ENDCHAR
STARTCHAR 0164
ENCODING 356
SWIDTH 540 0
DWIDTH 6 0
BBX 7 10 1 0
BITMAP
14
18
04
7E
FC
30
30
30
20
20
ENDCHAR
STARTCHAR 0165
ENCODING 357
SWIDTH 540 0
DWIDTH 6 0
BBX 7 10 1 0
BITMAP
14
18
04
7E
FC
30
30
30
20
20
ENDCHAR
STARTCHAR 0166
ENCODING 358
SWIDTH 540 0
DWIDTH 6 0
BBX 7 8 1 0
BITMAP
04
7E
FC
30
78
30
20
20
ENDCHAR
STARTCHAR 0167
ENCODING 359
SWIDTH 540 0
DWIDTH 6 0
BBX 7 8 1 0
BITMAP
04
7E
FC
30
78
30
20
20
ENDCHAR
STARTCHAR 0168
ENCODING 360
SWIDTH 540 0
DWIDTH 6 0
BBX 6 9 1 1
BITMAP
1C
00
64
4C
CC
CC
F8
F0
60
ENDCHAR
STARTCHAR 0169
ENCODING 361
SWIDTH 540 0
DWIDTH 6 0
BBX 6 9 1 1
BITMAP
1C
00
64
4C
CC
CC
F8
F0
60
ENDCHAR
STARTCHAR 016A
ENCODING 362
SWIDTH 540 0
DWIDTH 6 0
BBX 6 9 1 0
BITMAP
1C
00
64
4C
CC
CC
F8
F0
60
ENDCHAR
STARTCHAR 016B
ENCODING 363
SWIDTH 540 0
DWIDTH 6 0
BBX 6 9 1 0
BITMAP
1C
00
64
4C
CC
CC
F8
F0
60
ENDCHAR
STARTCHAR 016C
ENCODING 364
SWIDTH 540 0
DWIDTH 6 0
BBX 6 10 1 0
BITMAP
14
1C
00
64
4C
CC
CC
F8
F0
60
ENDCHAR
STARTCHAR 016D
ENCODING 365
SWIDTH 540 0
DWIDTH 6 0
BBX 6 10 1 0
BITMAP
14
1C
00
64
4C
CC
CC
F8
F0
60
ENDCHAR
STARTCHAR 016E
ENCODING 366
SWIDTH 540 0
DWIDTH 6 0
BBX 6 10 1 0
BITMAP
1C
14
08
64
4C
CC
CC
F8
F0
60
ENDCHAR
STARTCHAR 016F
ENCODING 367
SWIDTH 540 0
DWIDTH 6 0
BBX 6 10 1 0
BITMAP
1C
14
08
64
4C
CC
CC
F8
F0
60
ENDCHAR
STARTCHAR 0170
ENCODING 368
SWIDTH 540 0
DWIDTH 6 0
BBX 7 10 1 0
BITMAP
0A
14
00
64
4C
CC
CC
F8
F0
60
ENDCHAR
STARTCHAR 0171
ENCODING 369
SWIDTH 540 0
DWIDTH 6 0
BBX 7 10 1 0
BITMAP
0A
14
00
64
4C
CC
CC
F8
F0
60
ENDCHAR
STARTCHAR 0172
ENCODING 370
SWIDTH 540 0
DWIDTH 6 0
BBX 6 9 1 -1
BITMAP
64
4C
CC
CC
F8
F0
60
40
60
ENDCHAR
STARTCHAR 0173
ENCODING 371
SWIDTH 540 0
DWIDTH 6 0
BBX 6 9 1 -1
BITMAP
64
4C
CC
CC
F8
F0
60
40
60
ENDCHAR
STARTCHAR 0174
ENCODING 372
SWIDTH 720 0
DWIDTH 8 0
BBX 7 9 2 1
BITMAP
38
00
D6
D6
FC
FC
F8
58
50
ENDCHAR
STARTCHAR 0175
ENCODING 373
SWIDTH 720 0
DWIDTH 8 0
BBX 7 9 2 1
BITMAP
38
00
D6
D6
FC
FC
F8
58
50
ENDCHAR
STARTCHAR 0176
ENCODING 374
SWIDTH 540 0
DWIDTH 6 0
BBX 6 10 2 0
BITMAP
10
38
04
CC
D8
F0
70
60
60
60
ENDCHAR
STARTCHAR 0177
ENCODING 375
SWIDTH 540 0
DWIDTH 6 0
BBX 6 10 2 0
BITMAP
10
38
04
CC
D8
F0
70
60
60
60
ENDCHAR
STARTCHAR 0178
ENCODING 376
SWIDTH 540 0
DWIDTH 6 0
BBX 6 9 2 0
BITMAP
28
04
CC
D8
F0
70
60
60
60
ENDCHAR
STARTCHAR 0179
ENCODING 377
SWIDTH 540 0
DWIDTH 6 0
BBX 6 10 1 0
BITMAP
0C
18
18
7C
98
30
30
60
7C
38
ENDCHAR
STARTCHAR 017A
ENCODING 378
SWIDTH 540 0
DWIDTH 6 0
BBX 6 10 1 0
BITMAP
0C
18
18
7C
98
30
30
60
7C
38
ENDCHAR
STARTCHAR 017B
ENCODING 379
SWIDTH 540 0
DWIDTH 6 0
BBX 6 9 1 0
BITMAP
10
18
7C
98
30
30
60
7C
38
ENDCHAR
STARTCHAR 017C
ENCODING 380
SWIDTH 540 0
DWIDTH 6 0
BBX 6 9 1 0
BITMAP
10
18
7C
98
30
30
60
7C
38
ENDCHAR
STARTCHAR 017D
ENCODING 381
SWIDTH 540 0
DWIDTH 6 0
BBX 6 9 1 1
BITMAP
18
18
7C
98
30
30
60
7C
38
ENDCHAR
STARTCHAR 017E
ENCODING 382
SWIDTH 540 0
DWIDTH 6 0
BBX 6 9 1 1
BITMAP
18
18
7C
98
30
30
60
7C
38
ENDCHAR
STARTCHAR 017F
ENCODING 383
SWIDTH 360 0
DWIDTH 4 0
BBX 6 10 0 -2
BITMAP
18
3C
60
60
60
60
60
40
C0
40
ENDCHAR
STARTCHAR 0180
ENCODING 384
SWIDTH 450 0
DWIDTH 5 0
BBX 5 8 1 0
BITMAP
70
78
58
70
F8
F8
F8
F0
ENDCHAR
STARTCHAR 0181
ENCODING 385
SWIDTH 630 0
DWIDTH 7 0
BBX 7 8 1 0
BITMAP
18
7C
F6
B4
FC
36
3E
38
ENDCHAR
STARTCHAR 0186
ENCODING 390
SWIDTH 450 0
DWIDTH 5 0
BBX 5 8 1 0
BITMAP
20
78
78
18
18
F8
F0
E0
ENDCHAR
STARTCHAR 0187
ENCODING 391
SWIDTH 450 0
DWIDTH 5 0
BBX 6 10 1 0
BITMAP
04
1C
18
7C
78
C0
C0
F8
F8
60
ENDCHAR
STARTCHAR 0188
ENCODING 392
SWIDTH 450 0
DWIDTH 5 0
BBX 6 10 1 0
BITMAP
04
1C
18
7C
78
C0
C0
F8
F8
60
ENDCHAR
STARTCHAR 0189
ENCODING 393
SWIDTH 450 0
DWIDTH 5 0
BBX 5 8 1 0
BITMAP
20
78
78
E8
D8
70
60
40
ENDCHAR
STARTCHAR 018A
ENCODING 394
SWIDTH 630 0
DWIDTH 7 0
BBX 7 8 1 0
BITMAP
18
7C
FE
B6
F4
3C
38
20
ENDCHAR
STARTCHAR 018F
ENCODING 399
SWIDTH 450 0
DWIDTH 5 0
BBX 5 8 1 0
BITMAP
30
78
18
F8
F8
D8
F0
60
ENDCHAR
STARTCHAR 0190
ENCODING 400
SWIDTH 450 0
DWIDTH 5 0
BBX 5 8 1 0
BITMAP
30
78
C0
E0
70
C0
F8
F0
ENDCHAR
STARTCHAR 0191
ENCODING 401
SWIDTH 450 0
DWIDTH 5 0
BBX 8 9 -1 -1
BITMAP
0F
1F
30
38
38
30
70
60
E0
ENDCHAR
STARTCHAR 0192
ENCODING 402
SWIDTH 450 0
DWIDTH 5 0
BBX 8 9 -1 -1
BITMAP
0F
1F
30
38
38
30
70
60
E0
ENDCHAR
STARTCHAR 0193
ENCODING 403
SWIDTH 450 0
DWIDTH 5 0
BBX 6 10 1 0
BITMAP
04
0C
18
3C
60
40
D8
D8
F0
E0
ENDCHAR
STARTCHAR 0194
ENCODING 404
SWIDTH 540 0
DWIDTH 6 0
BBX 6 8 2 -1
BITMAP
CC
D8
D8
F0
60
E0
A0
C0
ENDCHAR
STARTCHAR 0197
ENCODING 407
SWIDTH 360 0
DWIDTH 4 0
BBX 4 7 1 1
BITMAP
30
70
60
F0
E0
E0
C0
ENDCHAR
STARTCHAR 0198
ENCODING 408
SWIDTH 540 0
DWIDTH 6 0
BBX 8 8 0 0
BITMAP
0A
37
7F
7A
78
78
6C
E8
ENDCHAR
STARTCHAR 0199
ENCODING 409
SWIDTH 540 0
DWIDTH 6 0
BBX 8 8 0 0
BITMAP
0A
37
7F
7A
78
78
6C
E8
ENDCHAR
STARTCHAR 019D
ENCODING 413
SWIDTH 540 0
DWIDTH 6 0
BBX 8 8 -1 -1
BITMAP
1F
1B
3B
3E
3E
36
6E
E0
ENDCHAR
STARTCHAR 01A0
ENCODING 416
SWIDTH 540 0
DWIDTH 6 0
BBX 7 8 1 0
BITMAP
36
7C
7C
CC
DC
F8
F8
70
ENDCHAR
STARTCHAR 01A1
ENCODING 417
SWIDTH 540 0
DWIDTH 6 0
BBX 7 8 1 0
BITMAP
36
7C
7C
CC
DC
F8
F8
70
ENDCHAR
STARTCHAR 01AF
ENCODING 431
SWIDTH 540 0
DWIDTH 6 0
BBX 7 8 1 0
BITMAP
02
4A
CE
C8
D8
F8
F0
60
ENDCHAR
STARTCHAR 01B0
ENCODING 432
SWIDTH 540 0
DWIDTH 6 0
BBX 7 8 1 0
BITMAP
02
4A
CE
C8
D8
F8
F0
60
ENDCHAR
STARTCHAR 01B1
ENCODING 433
SWIDTH 540 0
DWIDTH 6 0
BBX 7 8 1 0
BITMAP
76
6E
64
C4
C4
CC
F8
F0
ENDCHAR
STARTCHAR 01B2
ENCODING 434
SWIDTH 540 0
DWIDTH 6 0
BBX 6 8 1 0
BITMAP
08
5C
CC
CC
CC
F8
78
70
ENDCHAR
STARTCHAR 01B3
ENCODING 435
SWIDTH 630 0
DWIDTH 7 0
BBX 7 8 2 0
BITMAP
04
CC
DE
F4
7C
60
60
60
ENDCHAR
STARTCHAR 01B4
ENCODING 436
SWIDTH 630 0
DWIDTH 7 0
BBX 7 8 2 0
BITMAP
04
CC
DE
F4
7C
60
60
60
ENDCHAR
STARTCHAR 01B5
ENCODING 437
SWIDTH 540 0
DWIDTH 6 0
BBX 6 8 1 0
BITMAP
18
7C
98
7C
F8
60
7C
38
ENDCHAR
STARTCHAR 01B6
ENCODING 438
SWIDTH 540 0
DWIDTH 6 0
BBX 6 8 1 0
BITMAP
18
7C
98
7C
F8
60
7C
38
ENDCHAR
STARTCHAR 01B7
ENCODING 439
SWIDTH 450 0
DWIDTH 5 0
BBX 6 8 0 0
BITMAP
1C
3C
08
3C
0C
0C
FC
78
ENDCHAR
STARTCHAR 01BB
ENCODING 443
SWIDTH 450 0
DWIDTH 5 0
BBX 5 8 1 0
BITMAP
30
78
50
78
E0
78
F8
E0
ENDCHAR
STARTCHAR 01C0
ENCODING 448
SWIDTH 180 0
DWIDTH 2 0
BBX 3 8 0 0
BITMAP
20
20
60
60
60
40
40
C0
ENDCHAR
STARTCHAR 01C1
ENCODING 449
SWIDTH 270 0
DWIDTH 3 0
BBX 5 8 0 0
BITMAP
28
38
70
70
50
70
F0
E0
ENDCHAR
STARTCHAR 01C2
ENCODING 450
SWIDTH 270 0
DWIDTH 3 0
BBX 4 8 1 0
BITMAP
20
60
F0
E0
40
E0
C0
C0
ENDCHAR
STARTCHAR 01C3
ENCODING 451
SWIDTH 180 0
DWIDTH 2 0
BBX 4 8 0 0
BITMAP
30
30
60
60
60
00
40
C0
ENDCHAR
STARTCHAR 01CA
ENCODING 458
SWIDTH 720 0
DWIDTH 8 0
BBX 9 7 0 1
BITMAP
3D80
3D80
7980
7980
5900
5500
D600
ENDCHAR
STARTCHAR 01CB
ENCODING 459
SWIDTH 720 0
DWIDTH 8 0
BBX 9 7 0 1
BITMAP
3D80
3D80
7980
7980
5900
5500
D600
ENDCHAR
STARTCHAR 01CC
ENCODING 460
SWIDTH 720 0
DWIDTH 8 0
BBX 9 7 0 1
BITMAP
3D80
3D80
7980
7980
5900
5500
D600
ENDCHAR
STARTCHAR 01CD
ENCODING 461
SWIDTH 630 0
DWIDTH 7 0
BBX 6 10 1 0
BITMAP
10
1C
00
18
18
38
78
58
F8
9C
ENDCHAR
STARTCHAR 01CE
ENCODING 462
SWIDTH 630 0
DWIDTH 7 0
BBX 6 10 1 0
BITMAP
10
1C
00
18
18
38
78
58
F8
9C
ENDCHAR
STARTCHAR 01CF
ENCODING 463
SWIDTH 270 0
DWIDTH 3 0
BBX 5 10 1 0
BITMAP
28
30
00
70
60
60
E0
E0
C0
C0
ENDCHAR
STARTCHAR 01D0
ENCODING 464
SWIDTH 270 0
DWIDTH 3 0
BBX 5 10 1 0
BITMAP
28
30
00
70
60
60
E0
E0
C0
C0
ENDCHAR
STARTCHAR 01D1
ENCODING 465
SWIDTH 450 0
DWIDTH 5 0
BBX 6 10 1 0
BITMAP
48
30
30
78
78
CC
DC
F8
F8
70
ENDCHAR
STARTCHAR 01D2
ENCODING 466
SWIDTH 450 0
DWIDTH 5 0
BBX 6 10 1 0
BITMAP
48
30
30
78
78
CC
DC
F8
F8
70
ENDCHAR
STARTCHAR 01D3
ENCODING 467
SWIDTH 540 0
DWIDTH 6 0
BBX 6 10 1 0
BITMAP
14
1C
00
64
4C
CC
CC
F8
F0
60
ENDCHAR
STARTCHAR 01D4
ENCODING 468
SWIDTH 540 0
DWIDTH 6 0
BBX 6 10 1 0
BITMAP
14
1C
00
64
4C
CC
CC
F8
F0
60
ENDCHAR
STARTCHAR 01D5
ENCODING 469
SWIDTH 540 0
DWIDTH 6 0
BBX 6 10 1 0
BITMAP
1C
14
00
64
4C
CC
CC
F8
F0
60
ENDCHAR
STARTCHAR 01D6
ENCODING 470
SWIDTH 540 0
DWIDTH 6 0
BBX 6 10 1 0
BITMAP
1C
14
00
64
4C
CC
CC
F8
F0
60
ENDCHAR
STARTCHAR 01D7
ENCODING 471
SWIDTH 540 0
DWIDTH 6 0
BBX 6 10 1 0
BITMAP
0C
14
00
64
4C
CC
CC
F8
F0
60
ENDCHAR
STARTCHAR 01D8
ENCODING 472
SWIDTH 540 0
DWIDTH 6 0
BBX 6 10 1 0
BITMAP
0C
14
00
64
4C
CC
CC
F8
F0
60
ENDCHAR
STARTCHAR 01D9
ENCODING 473
SWIDTH 540 0
DWIDTH 6 0
BBX 6 10 1 0
BITMAP
1C
14
00
64
4C
CC
CC
F8
F0
60
ENDCHAR
STARTCHAR 01DA
ENCODING 474
SWIDTH 540 0
DWIDTH 6 0
BBX 6 10 1 0
BITMAP
1C
14
00
64
4C
CC
CC
F8
F0
60
ENDCHAR
STARTCHAR 01DB
ENCODING 475
SWIDTH 540 0
DWIDTH 6 0
BBX 6 10 1 0
BITMAP
18
14
00
64
4C
CC
CC
F8
F0
60
ENDCHAR
STARTCHAR 01DC
ENCODING 476
SWIDTH 540 0
DWIDTH 6 0
BBX 6 10 1 0
BITMAP
18
14
00
64
4C
CC
CC
F8
F0
60
ENDCHAR
STARTCHAR 01DE
ENCODING 478
SWIDTH 630 0
DWIDTH 7 0
BBX 6 10 1 0
BITMAP
1C
14
00
18
18
38
78
58
F8
9C
ENDCHAR
STARTCHAR 01DF
ENCODING 479
SWIDTH 630 0
DWIDTH 7 0
BBX 6 10 1 0
BITMAP
1C
14
00
18
18
38
78
58
F8
9C
ENDCHAR
STARTCHAR 01E0
ENCODING 480
SWIDTH 630 0
DWIDTH 7 0
BBX 6 10 1 0
BITMAP
1C
08
00
18
18
38
78
58
F8
9C
ENDCHAR
STARTCHAR 01E1
ENCODING 481
SWIDTH 630 0
DWIDTH 7 0
BBX 6 10 1 0
BITMAP
1C
08
00
18
18
38
78
58
F8
9C
ENDCHAR
STARTCHAR 01E2
ENCODING 482
SWIDTH 720 0
DWIDTH 8 0
BBX 8 9 0 0
BITMAP
07
07
0F
0F
1D
3E
2F
7F
CE
ENDCHAR
STARTCHAR 01E3
ENCODING 483
SWIDTH 720 0
DWIDTH 8 0
BBX 8 9 0 0
BITMAP
07
07
0F
0F
1D
3E
2F
7F
CE
ENDCHAR
STARTCHAR 01E4
ENCODING 484
SWIDTH 540 0
DWIDTH 6 0
BBX 6 8 1 0
BITMAP
18
3C
20
E0
5C
D8
F8
60
ENDCHAR
STARTCHAR 01E5
ENCODING 485
SWIDTH 540 0
DWIDTH 6 0
BBX 6 8 1 0
BITMAP
18
3C
20
E0
5C
D8
F8
60
ENDCHAR
STARTCHAR 01E6
ENCODING 486
SWIDTH 450 0
DWIDTH 5 0
BBX 6 10 1 0
BITMAP
04
18
18
3C
60
40
D8
D8
F0
E0
ENDCHAR
STARTCHAR 01E7
ENCODING 487
SWIDTH 450 0
DWIDTH 5 0
BBX 6 10 1 0
BITMAP
04
18
18
3C
60
40
D8
D8
F0
E0
ENDCHAR
STARTCHAR 01E8
ENCODING 488
SWIDTH 540 0
DWIDTH 6 0
BBX 7 10 0 0
BITMAP
08
0E
0A
36
7C
78
78
78
6C
E8
ENDCHAR
STARTCHAR 01E9
ENCODING 489
SWIDTH 540 0
DWIDTH 6 0
BBX 7 10 0 0
BITMAP
08
0E
0A
36
7C
78
78
78
6C
E8
ENDCHAR
STARTCHAR 01EA
ENCODING 490
SWIDTH 450 0
DWIDTH 5 0
BBX 6 10 1 -2
BITMAP
30
78
78
CC
DC
F8
F8
70
40
70
ENDCHAR
STARTCHAR 01EB
ENCODING 491
SWIDTH 450 0
DWIDTH 5 0
BBX 6 10 1 -2
BITMAP
30
78
78
CC
DC
F8
F8
70
40
70
ENDCHAR
STARTCHAR 01EC
ENCODING 492
SWIDTH 450 0
DWIDTH 5 0
BBX 6 11 1 -2
BITMAP
78
30
78
78
CC
DC
F8
F8
70
40
70
ENDCHAR
STARTCHAR 01ED
ENCODING 493
SWIDTH 450 0
DWIDTH 5 0
BBX 6 11 1 -2
BITMAP
78
30
78
78
CC
DC
F8
F8
70
40
70
ENDCHAR
STARTCHAR 01EE
ENCODING 494
SWIDTH 450 0
DWIDTH 5 0
BBX 6 10 0 0
BITMAP
10
1C
1C
3C
08
3C
0C
0C
FC
78
ENDCHAR
STARTCHAR 01EF
ENCODING 495
SWIDTH 450 0
DWIDTH 5 0
BBX 6 10 0 0
BITMAP
10
1C
1C
3C
08
3C
0C
0C
FC
78
ENDCHAR
STARTCHAR 01F0
ENCODING 496
SWIDTH 450 0
DWIDTH 5 0
BBX 6 10 1 0
BITMAP
14
18
00
18
38
38
38
30
F0
E0
ENDCHAR
STARTCHAR 01F4
ENCODING 500
SWIDTH 450 0
DWIDTH 5 0
BBX 6 10 1 0
BITMAP
0C
18
18
3C
60
40
D8
D8
F0
E0
ENDCHAR
STARTCHAR 01F5
ENCODING 501
SWIDTH 450 0
DWIDTH 5 0
BBX 6 10 1 0
BITMAP
0C
18
18
3C
60
40
D8
D8
F0
E0
ENDCHAR
STARTCHAR 01F8
ENCODING 504
SWIDTH 540 0
DWIDTH 6 0
BBX 7 10 0 0
BITMAP
08
0C
00
3E
36
76
7C
7C
6C
FC
ENDCHAR
STARTCHAR 01F9
ENCODING 505
SWIDTH 540 0
DWIDTH 6 0
BBX 7 10 0 0
BITMAP
08
0C
00
3E
36
76
7C
7C
6C
FC
ENDCHAR
STARTCHAR 01FE
ENCODING 510
SWIDTH 450 0
DWIDTH 5 0
BBX 8 10 0 0
BITMAP
04
08
1B
3E
3C
7E
56
7C
7C
F8
ENDCHAR
STARTCHAR 01FF
ENCODING 511
SWIDTH 450 0
DWIDTH 5 0
BBX 8 10 0 0
BITMAP
04
08
1B
3E
3C
7E
56
7C
7C
F8
ENDCHAR
STARTCHAR 0218
ENCODING 536
SWIDTH 450 0
DWIDTH 5 0
BBX 7 10 0 -2
BITMAP
0E
3C
3C
20
38
0C
F8
70
20
40
ENDCHAR
STARTCHAR 0219
ENCODING 537
SWIDTH 450 0
DWIDTH 5 0
BBX 7 10 0 -2
BITMAP
0E
3C
3C
20
38
0C
F8
70
20
40
ENDCHAR
STARTCHAR 021A
ENCODING 538
SWIDTH 540 0
DWIDTH 6 0
BBX 7 10 1 -2
BITMAP
04
7E
FC
30
30
30
20
20
60
40
ENDCHAR
STARTCHAR 021B
ENCODING 539
SWIDTH 540 0
DWIDTH 6 0
BBX 7 10 1 -2
BITMAP
04
7E
FC
30
30
30
20
20
60
40
ENDCHAR
STARTCHAR 021E
ENCODING 542
SWIDTH 540 0
DWIDTH 6 0
BBX 7 10 0 0
BITMAP
08
06
08
3E
36
3E
7E
6C
6C
EC
ENDCHAR
STARTCHAR 021F
ENCODING 543
SWIDTH 540 0
DWIDTH 6 0
BBX 7 10 0 0
BITMAP
08
06
08
3E
36
3E
7E
6C
6C
EC
ENDCHAR
STARTCHAR 0224
ENCODING 548
SWIDTH 540 0
DWIDTH 6 0
BBX 6 9 1 -1
BITMAP
18
7C
98
30
30
60
7C
0C
38
ENDCHAR
STARTCHAR 0225
ENCODING 549
SWIDTH 540 0
DWIDTH 6 0
BBX 6 9 1 -1
BITMAP
18
7C
98
30
30
60
7C
0C
38
ENDCHAR
STARTCHAR 0226
ENCODING 550
SWIDTH 630 0
DWIDTH 7 0
BBX 6 9 1 0
BITMAP
08
00
18
18
38
78
58
F8
9C
ENDCHAR
STARTCHAR 0227
ENCODING 551
SWIDTH 630 0
DWIDTH 7 0
BBX 6 9 1 0
BITMAP
08
00
18
18
38
78
58
F8
9C
ENDCHAR
STARTCHAR 0228
ENCODING 552
SWIDTH 450 0
DWIDTH 5 0
BBX 5 10 1 -2
BITMAP
78
70
70
70
70
78
78
E0
20
60
ENDCHAR
STARTCHAR 0229
ENCODING 553
SWIDTH 450 0
DWIDTH 5 0
BBX 5 10 1 -2
BITMAP
78
70
70
70
70
78
78
E0
20
60
ENDCHAR
STARTCHAR 022A
ENCODING 554
SWIDTH 450 0
DWIDTH 5 0
BBX 6 10 1 0
BITMAP
38
30
30
78
78
CC
DC
F8
F8
70
ENDCHAR
STARTCHAR 022B
ENCODING 555
SWIDTH 450 0
DWIDTH 5 0
BBX 6 10 1 0
BITMAP
38
30
30
78
78
CC
DC
F8
F8
70
ENDCHAR
STARTCHAR 022C
ENCODING 556
SWIDTH 450 0
DWIDTH 5 0
BBX 6 10 1 0
BITMAP
38
78
30
78
78
CC
DC
F8
F8
70
ENDCHAR
STARTCHAR 022D
ENCODING 557
SWIDTH 450 0
DWIDTH 5 0
BBX 6 10 1 0
BITMAP
38
78
30
78
78
CC
DC
F8
F8
70
ENDCHAR
STARTCHAR 022E
ENCODING 558
SWIDTH 450 0
DWIDTH 5 0
BBX 6 9 1 0
BITMAP
20
30
78
78
CC
DC
F8
F8
70
ENDCHAR
STARTCHAR 022F
ENCODING 559
SWIDTH 450 0
DWIDTH 5 0
BBX 6 9 1 0
BITMAP
20
30
78
78
CC
DC
F8
F8
70
ENDCHAR
STARTCHAR 0230
ENCODING 560
SWIDTH 450 0
DWIDTH 5 0
BBX 6 10 1 0
BITMAP
38
30
30
78
78
CC
DC
F8
F8
70
ENDCHAR
STARTCHAR 0231
ENCODING 561
SWIDTH 450 0
DWIDTH 5 0
BBX 6 10 1 0
BITMAP
38
30
30
78
78
CC
DC
F8
F8
70
ENDCHAR
STARTCHAR 0232
ENCODING 562
SWIDTH 540 0
DWIDTH 6 0
BBX 6 9 2 0
BITMAP
38
04
CC
D8
F0
70
60
60
60
ENDCHAR
STARTCHAR 0233
ENCODING 563
SWIDTH 540 0
DWIDTH 6 0
BBX 6 9 2 0
BITMAP
38
04
CC
D8
F0
70
60
60
60
ENDCHAR
STARTCHAR 0241
ENCODING 577
SWIDTH 450 0
DWIDTH 5 0
BBX 4 8 2 0
BITMAP
F0
F0
30
30
E0
C0
80
80
ENDCHAR
STARTCHAR 0242
ENCODING 578
SWIDTH 450 0
DWIDTH 5 0
BBX 4 8 2 0
BITMAP
F0
F0
30
30
E0
C0
80
80
ENDCHAR
STARTCHAR 0243
ENCODING 579
SWIDTH 450 0
DWIDTH 5 0
BBX 5 8 1 0
BITMAP
70
78
58
70
F8
F8
F8
F0
ENDCHAR
STARTCHAR 0244
ENCODING 580
SWIDTH 540 0
DWIDTH 6 0
BBX 6 8 1 0
BITMAP
20
64
FC
CC
EC
F8
F8
70
ENDCHAR
STARTCHAR 0253
ENCODING 595
SWIDTH 630 0
DWIDTH 7 0
BBX 7 8 1 0
BITMAP
18
7C
F6
B4
FC
36
3E
38
ENDCHAR
STARTCHAR 0254
ENCODING 596
SWIDTH 450 0
DWIDTH 5 0
BBX 5 8 1 0
BITMAP
20
78
78
18
18
F8
F0
E0
ENDCHAR
STARTCHAR 0256
ENCODING 598
SWIDTH 450 0
DWIDTH 5 0
BBX 5 8 1 0
BITMAP
20
78
78
E8
D8
70
60
40
ENDCHAR
STARTCHAR 0257
ENCODING 599
SWIDTH 630 0
DWIDTH 7 0
BBX 7 8 1 0
BITMAP
18
7C
FE
B6
F4
3C
38
20
ENDCHAR
STARTCHAR 0259
ENCODING 601
SWIDTH 450 0
DWIDTH 5 0
BBX 5 8 1 0
BITMAP
30
78
18
F8
F8
D8
F0
60
ENDCHAR
STARTCHAR 025B
ENCODING 603
SWIDTH 450 0
DWIDTH 5 0
BBX 5 8 1 0
BITMAP
30
78
C0
E0
70
C0
F8
F0
ENDCHAR
STARTCHAR 0260
ENCODING 608
SWIDTH 450 0
DWIDTH 5 0
BBX 6 10 1 0
BITMAP
04
0C
18
3C
60
40
D8
D8
F0
E0
ENDCHAR
STARTCHAR 0263
ENCODING 611
SWIDTH 540 0
DWIDTH 6 0
BBX 6 8 2 -1
BITMAP
CC
D8
D8
F0
60
E0
A0
C0
ENDCHAR
STARTCHAR 0268
ENCODING 616
SWIDTH 360 0
DWIDTH 4 0
BBX 4 7 1 1
BITMAP
30
70
60
F0
E0
E0
C0
ENDCHAR
STARTCHAR 0272
ENCODING 626
SWIDTH 540 0
DWIDTH 6 0
BBX 8 8 -1 -1
BITMAP
1F
1B
3B
3E
3E
36
6E
E0
ENDCHAR
STARTCHAR 0278
ENCODING 632
SWIDTH 630 0
DWIDTH 7 0
BBX 7 8 1 -1
BITMAP
1C
7E
7E
DE
F6
FC
FC
68
ENDCHAR
STARTCHAR 0289
ENCODING 649
SWIDTH 540 0
DWIDTH 6 0
BBX 6 8 1 0
BITMAP
20
64
FC
CC
EC
F8
F8
70
ENDCHAR
STARTCHAR 028B
ENCODING 651
SWIDTH 540 0
DWIDTH 6 0
BBX 6 8 1 0
BITMAP
08
5C
CC
CC
CC
F8
78
70
ENDCHAR
STARTCHAR 0292
ENCODING 658
SWIDTH 450 0
DWIDTH 5 0
BBX 6 8 0 0
BITMAP
1C
3C
08
3C
0C
0C
FC
78
ENDCHAR
STARTCHAR 0294
ENCODING 660
SWIDTH 450 0
DWIDTH 5 0
BBX 4 8 2 0
BITMAP
F0
F0
30
30
E0
C0
80
80
ENDCHAR
STARTCHAR 0295
ENCODING 661
SWIDTH 450 0
DWIDTH 5 0
BBX 5 8 1 0
BITMAP
38
78
C8
C0
60
60
60
60
ENDCHAR
STARTCHAR 0296
ENCODING 662
SWIDTH 450 0
DWIDTH 5 0
BBX 5 8 1 0
BITMAP
30
20
20
70
18
18
F0
F0
ENDCHAR
STARTCHAR 02B9
ENCODING 697
SWIDTH 180 0
DWIDTH 2 0
BBX 3 4 1 4
BITMAP
60
40
40
80
ENDCHAR
STARTCHAR 02BA
ENCODING 698
SWIDTH 360 0
DWIDTH 4 0
BBX 5 4 1 4
BITMAP
78
50
50
A0
ENDCHAR
STARTCHAR 02BB
ENCODING 699
SWIDTH 180 0
DWIDTH 2 0
BBX 3 4 1 4
BITMAP
60
40
C0
C0
ENDCHAR
STARTCHAR 02BC
ENCODING 700
SWIDTH 180 0
DWIDTH 2 0
BBX 3 4 1 4
BITMAP
60
60
C0
80
ENDCHAR
STARTCHAR 02BD
ENCODING 701
SWIDTH 180 0
DWIDTH 2 0
BBX 2 4 2 4
BITMAP
C0
80
80
80
ENDCHAR
STARTCHAR 02C6
ENCODING 710
SWIDTH 270 0
DWIDTH 3 0
BBX 3 1 2 9
BITMAP
E0
ENDCHAR
STARTCHAR 02C7
ENCODING 711
SWIDTH 270 0
DWIDTH 3 0
BBX 3 2 2 8
BITMAP
80
60
ENDCHAR
STARTCHAR 02C8
ENCODING 712
SWIDTH 90 0
DWIDTH 1 0
BBX 1 2 2 8
BITMAP
80
80
ENDCHAR
STARTCHAR 02C9
ENCODING 713
SWIDTH 270 0
DWIDTH 3 0
BBX 3 1 2 8
BITMAP
E0
ENDCHAR
STARTCHAR 02CA
ENCODING 714
SWIDTH 180 0
DWIDTH 2 0
BBX 2 2 2 8
BITMAP
40
C0
ENDCHAR
STARTCHAR 02CB
ENCODING 715
SWIDTH 180 0
DWIDTH 2 0
BBX 2 2 2 8
BITMAP
C0
40
ENDCHAR
STARTCHAR 02CC
ENCODING 716
SWIDTH 90 0
DWIDTH 1 0
BBX 1 2 0 -2
BITMAP
80
80
ENDCHAR
STARTCHAR 02CD
ENCODING 717
SWIDTH 270 0
DWIDTH 3 0
BBX 3 1 0 -1
BITMAP
E0
ENDCHAR
STARTCHAR 02D0
ENCODING 720
SWIDTH 180 0
DWIDTH 2 0
BBX 3 6 0 0
BITMAP
20
60
00
00
40
C0
ENDCHAR
STARTCHAR 02D1
ENCODING 721
SWIDTH 180 0
DWIDTH 2 0
BBX 2 2 1 3
BITMAP
40
C0
ENDCHAR
STARTCHAR 02D8
ENCODING 728
SWIDTH 270 0
DWIDTH 3 0
BBX 4 2 2 8
BITMAP
90
E0
ENDCHAR
STARTCHAR 02D9
ENCODING 729
SWIDTH 90 0
DWIDTH 1 0
BBX 1 1 2 8
BITMAP
80
ENDCHAR
STARTCHAR 02DA
ENCODING 730
SWIDTH 270 0
DWIDTH 3 0
BBX 3 3 2 7
BITMAP
40
A0
E0
ENDCHAR
STARTCHAR 02DB
ENCODING 731
SWIDTH 270 0
DWIDTH 3 0
BBX 3 3 0 -2
BITMAP
40
80
E0
ENDCHAR
STARTCHAR 02DC
ENCODING 732
SWIDTH 270 0
DWIDTH 3 0
BBX 3 1 2 9
BITMAP
E0
ENDCHAR
STARTCHAR 02DD
ENCODING 733
SWIDTH 360 0
DWIDTH 4 0
BBX 4 2 2 8
BITMAP
50
E0
ENDCHAR
STARTCHAR 0300
ENCODING 768
SWIDTH 0 0
DWIDTH 0 0
BBX 2 2 -3 8
BITMAP
C0
40
ENDCHAR
STARTCHAR 0301
ENCODING 769
SWIDTH 0 0
DWIDTH 0 0
BBX 2 2 -1 8
BITMAP
40
80
ENDCHAR
STARTCHAR 0302
ENCODING 770
SWIDTH 0 0
DWIDTH 0 0
BBX 3 1 -3 9
BITMAP
E0
ENDCHAR
STARTCHAR 0303
ENCODING 771
SWIDTH 0 0
DWIDTH 0 0
BBX 3 1 -3 9
BITMAP
E0
ENDCHAR
STARTCHAR 0304
ENCODING 772
SWIDTH 0 0
DWIDTH 0 0
BBX 3 1 -3 8
BITMAP
E0
ENDCHAR
STARTCHAR 0305
ENCODING 773
SWIDTH 0 0
DWIDTH 0 0
BBX 4 1 -3 8
BITMAP
F0
ENDCHAR
STARTCHAR 0306
ENCODING 774
SWIDTH 0 0
DWIDTH 0 0
BBX 4 2 -3 8
BITMAP
90
E0
ENDCHAR
STARTCHAR 0307
ENCODING 775
SWIDTH 0 0
DWIDTH 0 0
BBX 1 1 -2 8
BITMAP
80
ENDCHAR
STARTCHAR 0308
ENCODING 776
SWIDTH 0 0
DWIDTH 0 0
BBX 3 1 -3 8
BITMAP
A0
ENDCHAR
STARTCHAR 030A
ENCODING 778
SWIDTH 0 0
DWIDTH 0 0
BBX 3 3 -3 7
BITMAP
60
A0
40
ENDCHAR
STARTCHAR 030B
ENCODING 779
SWIDTH 0 0
DWIDTH 0 0
BBX 4 2 -2 8
BITMAP
F0
A0
ENDCHAR
STARTCHAR 030C
ENCODING 780
SWIDTH 0 0
DWIDTH 0 0
BBX 3 2 -3 8
BITMAP
80
60
ENDCHAR
STARTCHAR 030D
ENCODING 781
SWIDTH 0 0
DWIDTH 0 0
BBX 1 2 -2 8
BITMAP
80
80
ENDCHAR
STARTCHAR 0311
ENCODING 785
SWIDTH 0 0
DWIDTH 0 0
BBX 3 2 -3 8
BITMAP
40
E0
ENDCHAR
STARTCHAR 0323
ENCODING 803
SWIDTH 0 0
DWIDTH 0 0
BBX 1 1 -4 -2
BITMAP
80
ENDCHAR
STARTCHAR 0326
ENCODING 806
SWIDTH 0 0
DWIDTH 0 0
BBX 1 2 -4 -2
BITMAP
80
80
ENDCHAR
STARTCHAR 0327
ENCODING 807
SWIDTH 0 0
DWIDTH 0 0
BBX 3 3 -5 -2
BITMAP
40
60
E0
ENDCHAR
STARTCHAR 0328
ENCODING 808
SWIDTH 0 0
DWIDTH 0 0
BBX 3 2 -5 -1
BITMAP
40
E0
ENDCHAR
STARTCHAR 0329
ENCODING 809
SWIDTH 0 0
DWIDTH 0 0
BBX 1 2 -4 -2
BITMAP
80
80
ENDCHAR
STARTCHAR 0331
ENCODING 817
SWIDTH 0 0
DWIDTH 0 0
BBX 1 1 -4 -1
BITMAP
80
ENDCHAR
STARTCHAR 0342
ENCODING 834
SWIDTH 0 0
DWIDTH 0 0
BBX 3 1 -3 9
BITMAP
E0
ENDCHAR
STARTCHAR 0344
ENCODING 836
SWIDTH 0 0
DWIDTH 0 0
BBX 3 2 -3 8
BITMAP
20
A0
ENDCHAR
STARTCHAR 0345
ENCODING 837
SWIDTH 0 0
DWIDTH 0 0
BBX 2 2 -4 -2
BITMAP
80
C0
ENDCHAR
STARTCHAR 0374
ENCODING 884
SWIDTH 180 0
DWIDTH 2 0
BBX 2 2 2 6
BITMAP
C0
80
ENDCHAR
STARTCHAR 0375
ENCODING 885
SWIDTH 180 0
DWIDTH 2 0
BBX 2 2 0 -2
BITMAP
40
80
ENDCHAR
STARTCHAR 037A
ENCODING 890
SWIDTH 180 0
DWIDTH 2 0
BBX 2 2 0 -2
BITMAP
80
C0
ENDCHAR
STARTCHAR 037B
ENCODING 891
SWIDTH 450 0
DWIDTH 5 0
BBX 5 8 1 0
BITMAP
20
78
78
18
18
F8
F0
E0
ENDCHAR
STARTCHAR 037E
ENCODING 894
SWIDTH 180 0
DWIDTH 2 0
BBX 3 7 0 -2
BITMAP
60
00
00
40
C0
C0
80
ENDCHAR
STARTCHAR 037F
ENCODING 895
SWIDTH 450 0
DWIDTH 5 0
BBX 5 7 1 1
BITMAP
18
38
38
38
30
F0
E0
ENDCHAR
STARTCHAR 0384
ENCODING 900
SWIDTH 90 0
DWIDTH 1 0
BBX 1 1 2 6
BITMAP
80
ENDCHAR
STARTCHAR 0385
ENCODING 901
SWIDTH 270 0
DWIDTH 3 0
BBX 3 2 2 8
BITMAP
20
A0
ENDCHAR
STARTCHAR 0386
ENCODING 902
SWIDTH 630 0
DWIDTH 7 0
BBX 6 8 1 0
BITMAP
20
18
18
38
78
58
F8
9C
ENDCHAR
STARTCHAR 0387
ENCODING 903
SWIDTH 180 0
DWIDTH 2 0
BBX 2 1 1 3
BITMAP
C0
ENDCHAR
STARTCHAR 0388
ENCODING 904
SWIDTH 540 0
DWIDTH 6 0
BBX 6 8 1 0
BITMAP
7C
B8
38
38
38
3C
3C
70
ENDCHAR
STARTCHAR 0389
ENCODING 905
SWIDTH 540 0
DWIDTH 6 0
BBX 7 8 1 0
BITMAP
40
B6
36
7C
7C
6C
EC
D8
ENDCHAR
STARTCHAR 038A
ENCODING 906
SWIDTH 360 0
DWIDTH 4 0
BBX 4 8 1 0
BITMAP
40
B0
30
70
60
60
E0
E0
ENDCHAR
STARTCHAR 038C
ENCODING 908
SWIDTH 540 0
DWIDTH 6 0
BBX 6 8 1 0
BITMAP
70
B8
7C
EC
CC
F8
F8
70
ENDCHAR
STARTCHAR 038E
ENCODING 910
SWIDTH 630 0
DWIDTH 7 0
BBX 8 8 1 0
BITMAP
43
F2
36
3C
38
18
18
10
ENDCHAR
STARTCHAR 038F
ENCODING 911
SWIDTH 630 0
DWIDTH 7 0
BBX 7 8 1 0
BITMAP
5C
FE
6E
46
C6
4C
EC
DC
ENDCHAR
STARTCHAR 0390
ENCODING 912
SWIDTH 270 0
DWIDTH 3 0
BBX 5 10 1 0
BITMAP
10
28
00
70
60
60
E0
E0
C0
C0
ENDCHAR
STARTCHAR 0391
ENCODING 913
SWIDTH 630 0
DWIDTH 7 0
BBX 6 7 1 1
BITMAP
18
18
38
78
58
F8
9C
ENDCHAR
STARTCHAR 0392
ENCODING 914
SWIDTH 450 0
DWIDTH 5 0
BBX 5 8 1 0
BITMAP
70
78
58
70
F8
D8
F8
F0
ENDCHAR
STARTCHAR 0393
ENCODING 915
SWIDTH 450 0
DWIDTH 5 0
BBX 6 8 1 0
BITMAP
3C
7C
C0
C0
C0
C0
80
C0
ENDCHAR
STARTCHAR 0394
ENCODING 916
SWIDTH 540 0
DWIDTH 6 0
BBX 7 7 0 0
BITMAP
0C
1C
3C
3C
6C
7E
FC
ENDCHAR
STARTCHAR 0395
ENCODING 917
SWIDTH 450 0
DWIDTH 5 0
BBX 5 8 1 0
BITMAP
78
70
70
70
70
78
78
E0
ENDCHAR
STARTCHAR 0396
ENCODING 918
SWIDTH 540 0
DWIDTH 6 0
BBX 6 8 1 0
BITMAP
18
7C
98
30
30
60
7C
38
ENDCHAR
STARTCHAR 0397
ENCODING 919
SWIDTH 540 0
DWIDTH 6 0
BBX 7 8 0 0
BITMAP
08
3E
36
3E
7E
6C
6C
EC
ENDCHAR
STARTCHAR 0398
ENCODING 920
SWIDTH 450 0
DWIDTH 5 0
BBX 6 8 1 0
BITMAP
30
78
7C
CC
FC
F8
F8
70
ENDCHAR
STARTCHAR 0399
ENCODING 921
SWIDTH 270 0
DWIDTH 3 0
BBX 4 7 1 1
BITMAP
70
60
60
E0
E0
C0
C0
ENDCHAR
STARTCHAR 039A
ENCODING 922
SWIDTH 540 0
DWIDTH 6 0
BBX 7 8 0 0
BITMAP
0A
36
7C
78
78
78
6C
E8
ENDCHAR
STARTCHAR 039B
ENCODING 923
SWIDTH 540 0
DWIDTH 6 0
BBX 7 7 0 0
BITMAP
18
38
3C
2C
6C
6C
E6
ENDCHAR
STARTCHAR 039C
ENCODING 924
SWIDTH 630 0
DWIDTH 7 0
BBX 8 7 0 1
BITMAP
13
33
3F
7E
66
66
CE
ENDCHAR
STARTCHAR 039D
ENCODING 925
SWIDTH 540 0
DWIDTH 6 0
BBX 7 7 0 0
BITMAP
3E
36
76
7C
7C
6C
FC
ENDCHAR
STARTCHAR 039E
ENCODING 926
SWIDTH 450 0
DWIDTH 5 0
BBX 7 8 0 0
BITMAP
10
3E
00
3C
38
00
78
F8
ENDCHAR
STARTCHAR 039F
ENCODING 927
SWIDTH 450 0
DWIDTH 5 0
BBX 6 8 1 0
BITMAP
30
78
78
CC
DC
F8
F8
70
ENDCHAR
STARTCHAR 03A0
ENCODING 928
SWIDTH 540 0
DWIDTH 6 0
BBX 6 8 1 0
BITMAP
68
7C
CC
CC
CC
D8
D8
D8
ENDCHAR
STARTCHAR 03A1
ENCODING 929
SWIDTH 450 0
DWIDTH 5 0
BBX 6 8 0 0
BITMAP
18
3C
34
74
7C
60
E0
E0
ENDCHAR
STARTCHAR 03A3
ENCODING 931
SWIDTH 450 0
DWIDTH 5 0
BBX 7 8 0 0
BITMAP
38
3E
30
18
18
30
7C
F8
ENDCHAR
STARTCHAR 03A4
ENCODING 932
SWIDTH 540 0
DWIDTH 6 0
BBX 7 8 1 0
BITMAP
04
7E
FC
30
30
30
20
20
ENDCHAR
STARTCHAR 03A5
ENCODING 933
SWIDTH 540 0
DWIDTH 6 0
BBX 6 8 2 0
BITMAP
04
CC
D8
F0
70
60
60
60
ENDCHAR
STARTCHAR 03A6
ENCODING 934
SWIDTH 630 0
DWIDTH 7 0
BBX 7 8 1 -1
BITMAP
1C
7E
7E
DE
F6
FC
FC
68
ENDCHAR
STARTCHAR 03A7
ENCODING 935
SWIDTH 540 0
DWIDTH 6 0
BBX 6 8 1 0
BITMAP
04
6C
6C
78
30
78
D8
C0
ENDCHAR
STARTCHAR 03A8
ENCODING 936
SWIDTH 720 0
DWIDTH 8 0
BBX 8 8 1 0
BITMAP
01
4B
DB
DB
FE
7C
30
30
ENDCHAR
STARTCHAR 03A9
ENCODING 937
SWIDTH 540 0
DWIDTH 6 0
BBX 8 8 0 0
BITMAP
1C
3E
37
62
62
66
6E
EE
ENDCHAR
STARTCHAR 03AA
ENCODING 938
SWIDTH 270 0
DWIDTH 3 0
BBX 5 9 1 0
BITMAP
28
00
70
60
60
E0
E0
C0
C0
ENDCHAR
STARTCHAR 03AB
ENCODING 939
SWIDTH 540 0
DWIDTH 6 0
BBX 6 9 2 0
BITMAP
28
04
CC
D8
F0
70
60
60
60
ENDCHAR
STARTCHAR 03AC
ENCODING 940
SWIDTH 630 0
DWIDTH 7 0
BBX 6 8 1 0
BITMAP
20
18
18
38
78
58
F8
9C
ENDCHAR
STARTCHAR 03AD
ENCODING 941
SWIDTH 540 0
DWIDTH 6 0
BBX 6 8 1 0
BITMAP
7C
B8
38
38
38
3C
3C
70
ENDCHAR
STARTCHAR 03AE
ENCODING 942
SWIDTH 540 0
DWIDTH 6 0
BBX 7 8 1 0
BITMAP
40
B6
36
7C
7C
6C
EC
D8
ENDCHAR
STARTCHAR 03AF
ENCODING 943
SWIDTH 360 0
DWIDTH 4 0
BBX 4 8 1 0
BITMAP
40
B0
30
70
60
60
E0
E0
ENDCHAR
STARTCHAR 03B0
ENCODING 944
SWIDTH 540 0
DWIDTH 6 0
BBX 6 10 2 0
BITMAP
10
28
04
CC
D8
F0
70
60
60
60
ENDCHAR
STARTCHAR 03B1
ENCODING 945
SWIDTH 630 0
DWIDTH 7 0
BBX 6 7 1 1
BITMAP
18
18
38
78
58
F8
9C
ENDCHAR
STARTCHAR 03B2
ENCODING 946
SWIDTH 450 0
DWIDTH 5 0
BBX 5 8 1 0
BITMAP
70
78
58
70
F8
D8
F8
F0
ENDCHAR
STARTCHAR 03B3
ENCODING 947
SWIDTH 450 0
DWIDTH 5 0
BBX 6 8 1 0
BITMAP
3C
7C
C0
C0
C0
C0
80
C0
ENDCHAR
STARTCHAR 03B4
ENCODING 948
SWIDTH 540 0
DWIDTH 6 0
BBX 7 7 0 0
BITMAP
0C
1C
3C
3C
6C
7E
FC
ENDCHAR
STARTCHAR 03B5
ENCODING 949
SWIDTH 450 0
DWIDTH 5 0
BBX 5 8 1 0
BITMAP
78
70
70
70
70
78
78
E0
ENDCHAR
STARTCHAR 03B6
ENCODING 950
SWIDTH 540 0
DWIDTH 6 0
BBX 6 8 1 0
BITMAP
18
7C
98
30
30
60
7C
38
ENDCHAR
STARTCHAR 03B7
ENCODING 951
SWIDTH 540 0
DWIDTH 6 0
BBX 7 8 0 0
BITMAP
08
3E
36
3E
7E
6C
6C
EC
ENDCHAR
STARTCHAR 03B8
ENCODING 952
SWIDTH 450 0
DWIDTH 5 0
BBX 6 8 1 0
BITMAP
30
78
7C
CC
FC
F8
F8
70
ENDCHAR
STARTCHAR 03B9
ENCODING 953
SWIDTH 270 0
DWIDTH 3 0
BBX 4 7 1 1
BITMAP
70
60
60
E0
E0
C0
C0
ENDCHAR
STARTCHAR 03BA
ENCODING 954
SWIDTH 540 0
DWIDTH 6 0
BBX 7 8 0 0
BITMAP
0A
36
7C
78
78
78
6C
E8
ENDCHAR
STARTCHAR 03BB
ENCODING 955
SWIDTH 540 0
DWIDTH 6 0
BBX 7 7 0 0
BITMAP
18
38
3C
2C
6C
6C
E6
ENDCHAR
STARTCHAR 03BC
ENCODING 956
SWIDTH 630 0
DWIDTH 7 0
BBX 8 7 0 1
BITMAP
13
33
3F
7E
66
66
CE
ENDCHAR
STARTCHAR 03BD
ENCODING 957
SWIDTH 540 0
DWIDTH 6 0
BBX 7 7 0 0
BITMAP
3E
36
76
7C
7C
6C
FC
ENDCHAR
STARTCHAR 03BE
ENCODING 958
SWIDTH 450 0
DWIDTH 5 0
BBX 7 8 0 0
BITMAP
10
3E
00
3C
38
00
78
F8
ENDCHAR
STARTCHAR 03BF
ENCODING 959
SWIDTH 450 0
DWIDTH 5 0
BBX 6 8 1 0
BITMAP
30
78
78
CC
DC
F8
F8
70
ENDCHAR
STARTCHAR 03C0
ENCODING 960
SWIDTH 540 0
DWIDTH 6 0
BBX 6 8 1 0
BITMAP
68
7C
CC
CC
CC
D8
D8
D8
ENDCHAR
STARTCHAR 03C1
ENCODING 961
SWIDTH 450 0
DWIDTH 5 0
BBX 6 8 0 0
BITMAP
18
3C
34
74
7C
60
E0
E0
ENDCHAR
STARTCHAR 03C2
ENCODING 962
SWIDTH 450 0
DWIDTH 5 0
BBX 6 9 1 -2
BITMAP
7C
78
C0
C0
E0
F8
30
70
40
ENDCHAR
STARTCHAR 03C3
ENCODING 963
SWIDTH 450 0
DWIDTH 5 0
BBX 7 8 0 0
BITMAP
38
3E
30
18
18
30
7C
F8
ENDCHAR
STARTCHAR 03C4
ENCODING 964
SWIDTH 540 0
DWIDTH 6 0
BBX 7 8 1 0
BITMAP
04
7E
FC
30
30
30
20
20
ENDCHAR
STARTCHAR 03C5
ENCODING 965
SWIDTH 540 0
DWIDTH 6 0
BBX 6 8 2 0
BITMAP
04
CC
D8
F0
70
60
60
60
ENDCHAR
STARTCHAR 03C6
ENCODING 966
SWIDTH 630 0
DWIDTH 7 0
BBX 7 8 1 -1
BITMAP
1C
7E
7E
DE
F6
FC
FC
68
ENDCHAR
STARTCHAR 03C7
ENCODING 967
SWIDTH 540 0
DWIDTH 6 0
BBX 6 8 1 0
BITMAP
04
6C
6C
78
30
78
D8
C0
ENDCHAR
STARTCHAR 03C8
ENCODING 968
SWIDTH 720 0
DWIDTH 8 0
BBX 8 8 1 0
BITMAP
01
4B
DB
DB
FE
7C
30
30
ENDCHAR
STARTCHAR 03C9
ENCODING 969
SWIDTH 540 0
DWIDTH 6 0
BBX 8 8 0 0
BITMAP
1C
3E
37
62
62
66
6E
EE
ENDCHAR
STARTCHAR 03CA
ENCODING 970
SWIDTH 270 0
DWIDTH 3 0
BBX 5 9 1 0
BITMAP
28
00
70
60
60
E0
E0
C0
C0
ENDCHAR
STARTCHAR 03CB
ENCODING 971
SWIDTH 540 0
DWIDTH 6 0
BBX 6 9 2 0
BITMAP
28
04
CC
D8
F0
70
60
60
60
ENDCHAR
STARTCHAR 03CC
ENCODING 972
SWIDTH 540 0
DWIDTH 6 0
BBX 6 8 1 0
BITMAP
70
B8
7C
EC
CC
F8
F8
70
ENDCHAR
STARTCHAR 03CD
ENCODING 973
SWIDTH 630 0
DWIDTH 7 0
BBX 8 8 1 0
BITMAP
43
F2
36
3C
38
18
18
10
ENDCHAR
STARTCHAR 03CE
ENCODING 974
SWIDTH 630 0
DWIDTH 7 0
BBX 7 8 1 0
BITMAP
5C
FE
6E
46
C6
4C
EC
DC
ENDCHAR
STARTCHAR 03D2
ENCODING 978
SWIDTH 630 0
DWIDTH 7 0
BBX 6 7 2 0
BITMAP
CC
5C
70
60
60
40
C0
ENDCHAR
STARTCHAR 03D3
ENCODING 979
SWIDTH 720 0
DWIDTH 8 0
BBX 8 8 1 0
BITMAP
40
B3
17
14
18
18
18
10
ENDCHAR
STARTCHAR 03D4
ENCODING 980
SWIDTH 630 0
DWIDTH 7 0
BBX 6 9 2 0
BITMAP
28
00
CC
5C
70
60
60
40
C0
ENDCHAR
STARTCHAR 03D5
ENCODING 981
SWIDTH 630 0
DWIDTH 7 0
BBX 7 8 1 -1
BITMAP
1C
7E
7E
DE
F6
FC
FC
68
ENDCHAR
STARTCHAR 03D8
ENCODING 984
SWIDTH 450 0
DWIDTH 5 0
BBX 6 9 1 -1
BITMAP
18
7C
7C
CC
CC
F8
F8
F0
60
ENDCHAR
STARTCHAR 03D9
ENCODING 985
SWIDTH 450 0
DWIDTH 5 0
BBX 6 9 1 -1
BITMAP
18
7C
7C
CC
CC
F8
F8
F0
60
ENDCHAR
STARTCHAR 03DA
ENCODING 986
SWIDTH 450 0
DWIDTH 5 0
BBX 6 10 1 -2
BITMAP
1C
7C
E0
C0
C0
C0
F0
70
70
40
ENDCHAR
STARTCHAR 03DB
ENCODING 987
SWIDTH 450 0
DWIDTH 5 0
BBX 6 10 1 -2
BITMAP
1C
7C
E0
C0
C0
C0
F0
70
70
40
ENDCHAR
STARTCHAR 03F2
ENCODING 1010
SWIDTH 450 0
DWIDTH 5 0
BBX 6 8 1 0
BITMAP
10
7C
78
C0
C0
F8
F8
60
ENDCHAR
STARTCHAR 03F3
ENCODING 1011
SWIDTH 450 0
DWIDTH 5 0
BBX 5 7 1 1
BITMAP
18
38
38
38
30
F0
E0
ENDCHAR
STARTCHAR 03F4
ENCODING 1012
SWIDTH 450 0
DWIDTH 5 0
BBX 6 8 1 0
BITMAP
30
78
7C
DC
FC
F8
F8
70
ENDCHAR
STARTCHAR 03F7
ENCODING 1015
SWIDTH 450 0
DWIDTH 5 0
BBX 5 8 1 0
BITMAP
60
60
F8
C8
D8
F8
E0
C0
ENDCHAR
STARTCHAR 03F8
ENCODING 1016
SWIDTH 450 0
DWIDTH 5 0
BBX 5 8 1 0
BITMAP
60
60
F8
C8
D8
F8
E0
C0
ENDCHAR
STARTCHAR 03F9
ENCODING 1017
SWIDTH 450 0
DWIDTH 5 0
BBX 6 8 1 0
BITMAP
10
7C
78
C0
C0
F8
F8
60
ENDCHAR
STARTCHAR 03FA
ENCODING 1018
SWIDTH 540 0
DWIDTH 6 0
BBX 7 7 0 1
BITMAP
36
3E
66
66
66
66
E6
ENDCHAR
STARTCHAR 03FB
ENCODING 1019
SWIDTH 540 0
DWIDTH 6 0
BBX 7 7 0 1
BITMAP
36
3E
66
66
66
66
E6
ENDCHAR
STARTCHAR 03FD
ENCODING 1021
SWIDTH 450 0
DWIDTH 5 0
BBX 5 8 1 0
BITMAP
20
78
78
18
18
F8
F0
E0
ENDCHAR
STARTCHAR 0400
ENCODING 1024
SWIDTH 450 0
DWIDTH 5 0
BBX 5 10 1 0
BITMAP
60
20
78
70
70
70
70
78
78
E0
ENDCHAR
STARTCHAR 0401
ENCODING 1025
SWIDTH 450 0
DWIDTH 5 0
BBX 5 9 1 0
BITMAP
50
78
70
70
70
70
78
78
E0
ENDCHAR
STARTCHAR 0402
ENCODING 1026
SWIDTH 630 0
DWIDTH 7 0
BBX 6 9 2 -1
BITMAP
FC
FC
60
7C
6C
6C
4C
48
18
ENDCHAR
STARTCHAR 0403
ENCODING 1027
SWIDTH 450 0
DWIDTH 5 0
BBX 6 10 1 0
BITMAP
08
10
3C
7C
C0
C0
C0
C0
80
C0
ENDCHAR
STARTCHAR 0404
ENCODING 1028
SWIDTH 450 0
DWIDTH 5 0
BBX 6 8 1 0
BITMAP
10
7C
78
C0
F0
C0
F8
70
ENDCHAR
STARTCHAR 0405
ENCODING 1029
SWIDTH 450 0
DWIDTH 5 0
BBX 7 8 0 0
BITMAP
0E
3C
3C
20
38
0C
F8
70
ENDCHAR
STARTCHAR 0406
ENCODING 1030
SWIDTH 270 0
DWIDTH 3 0
BBX 4 7 1 1
BITMAP
70
60
60
E0
E0
C0
C0
ENDCHAR
STARTCHAR 0407
ENCODING 1031
SWIDTH 270 0
DWIDTH 3 0
BBX 5 9 1 0
BITMAP
28
00
70
60
60
E0
E0
C0
C0
ENDCHAR
STARTCHAR 0408
ENCODING 1032
SWIDTH 450 0
DWIDTH 5 0
BBX 5 7 1 1
BITMAP
18
38
38
38
30
F0
E0
ENDCHAR
STARTCHAR 0409
ENCODING 1033
SWIDTH 720 0
DWIDTH 8 0
BBX 8 7 0 1
BITMAP
1E
1E
37
3F
6D
6F
EE
ENDCHAR
STARTCHAR 040A
ENCODING 1034
SWIDTH 720 0
DWIDTH 8 0
BBX 8 7 0 1
BITMAP
36
36
3F
7F
6D
6F
EE
ENDCHAR
STARTCHAR 040B
ENCODING 1035
SWIDTH 630 0
DWIDTH 7 0
BBX 6 8 2 0
BITMAP
FC
FC
60
7C
6C
6C
4C
48
ENDCHAR
STARTCHAR 040C
ENCODING 1036
SWIDTH 540 0
DWIDTH 6 0
BBX 7 10 0 0
BITMAP
02
04
0A
36
7C
78
78
78
6C
E8
ENDCHAR
STARTCHAR 040D
ENCODING 1037
SWIDTH 540 0
DWIDTH 6 0
BBX 6 10 1 0
BITMAP
20
30
00
6C
7C
DC
FC
F8
D8
D8
ENDCHAR
STARTCHAR 040E
ENCODING 1038
SWIDTH 450 0
DWIDTH 5 0
BBX 7 10 0 0
BITMAP
14
1C
36
36
3C
3C
18
18
78
E0
ENDCHAR
STARTCHAR 040F
ENCODING 1039
SWIDTH 450 0
DWIDTH 5 0
BBX 7 8 0 -1
BITMAP
26
66
66
64
4C
FC
FC
30
ENDCHAR
STARTCHAR 0410
ENCODING 1040
SWIDTH 630 0
DWIDTH 7 0
BBX 6 7 1 1
BITMAP
18
18
38
78
58
F8
9C
ENDCHAR
STARTCHAR 0411
ENCODING 1041
SWIDTH 450 0
DWIDTH 5 0
BBX 6 8 1 0
BITMAP
40
7C
78
F0
F8
D8
F0
E0
ENDCHAR
STARTCHAR 0412
ENCODING 1042
SWIDTH 450 0
DWIDTH 5 0
BBX 5 8 1 0
BITMAP
70
78
58
70
F8
D8
F8
F0
ENDCHAR
STARTCHAR 0413
ENCODING 1043
SWIDTH 450 0
DWIDTH 5 0
BBX 6 8 1 0
BITMAP
3C
7C
C0
C0
C0
C0
80
C0
ENDCHAR
STARTCHAR 0414
ENCODING 1044
SWIDTH 540 0
DWIDTH 6 0
BBX 7 8 0 -1
BITMAP
0C
1C
1C
3C
2C
6C
FE
C4
ENDCHAR
STARTCHAR 0415
ENCODING 1045
SWIDTH 450 0
DWIDTH 5 0
BBX 5 8 1 0
BITMAP
78
70
70
70
70
78
78
E0
ENDCHAR
STARTCHAR 0416
ENCODING 1046
SWIDTH 630 0
DWIDTH 7 0
BBX 9 8 0 0
BITMAP
0080
3D80
3F00
3F00
3E00
7F00
6B00
C800
ENDCHAR
STARTCHAR 0417
ENCODING 1047
SWIDTH 450 0
DWIDTH 5 0
BBX 5 8 1 0
BITMAP
70
78
18
38
78
18
F0
F0
ENDCHAR
STARTCHAR 0418
ENCODING 1048
SWIDTH 540 0
DWIDTH 6 0
BBX 6 7 1 0
BITMAP
6C
7C
DC
FC
F8
D8
D8
ENDCHAR
STARTCHAR 0419
ENCODING 1049
SWIDTH 540 0
DWIDTH 6 0
BBX 6 10 1 0
BITMAP
28
38
00
6C
7C
DC
FC
F8
D8
D8
ENDCHAR
STARTCHAR 041A
ENCODING 1050
SWIDTH 540 0
DWIDTH 6 0
BBX 7 8 0 0
BITMAP
0A
36
7C
78
78
78
6C
E8
ENDCHAR
STARTCHAR 041B
ENCODING 1051
SWIDTH 540 0
DWIDTH 6 0
BBX 7 7 0 0
BITMAP
18
38
3C
2C
6C
6C
E6
ENDCHAR
STARTCHAR 041C
ENCODING 1052
SWIDTH 630 0
DWIDTH 7 0
BBX 8 7 0 1
BITMAP
13
33
3F
7E
66
66
CE
ENDCHAR
STARTCHAR 041D
ENCODING 1053
SWIDTH 540 0
DWIDTH 6 0
BBX 7 8 0 0
BITMAP
08
3E
36
3E
7E
6C
6C
EC
ENDCHAR
STARTCHAR 041E
ENCODING 1054
SWIDTH 450 0
DWIDTH 5 0
BBX 6 8 1 0
BITMAP
30
78
78
CC
DC
F8
F8
70
ENDCHAR
STARTCHAR 041F
ENCODING 1055
SWIDTH 540 0
DWIDTH 6 0
BBX 6 8 1 0
BITMAP
68
7C
CC
CC
CC
D8
D8
D8
ENDCHAR
STARTCHAR 0420
ENCODING 1056
SWIDTH 450 0
DWIDTH 5 0
BBX 6 8 0 0
BITMAP
18
3C
34
74
7C
60
E0
E0
ENDCHAR
STARTCHAR 0421
ENCODING 1057
SWIDTH 450 0
DWIDTH 5 0
BBX 6 8 1 0
BITMAP
10
7C
78
C0
C0
F8
F8
60
ENDCHAR
STARTCHAR 0422
ENCODING 1058
SWIDTH 540 0
DWIDTH 6 0
BBX 7 8 1 0
BITMAP
04
7E
FC
30
30
30
20
20
ENDCHAR
STARTCHAR 0423
ENCODING 1059
SWIDTH 450 0
DWIDTH 5 0
BBX 7 8 0 0
BITMAP
36
36
3C
3C
18
18
78
E0
ENDCHAR
STARTCHAR 0424
ENCODING 1060
SWIDTH 630 0
DWIDTH 7 0
BBX 7 8 1 -1
BITMAP
1C
7E
7E
DE
F6
FC
FC
68
ENDCHAR
STARTCHAR 0425
ENCODING 1061
SWIDTH 540 0
DWIDTH 6 0
BBX 6 8 1 0
BITMAP
04
6C
6C
78
30
78
D8
C0
ENDCHAR
STARTCHAR 0426
ENCODING 1062
SWIDTH 450 0
DWIDTH 5 0
BBX 7 8 0 -1
BITMAP
36
26
66
64
64
7C
FC
0C
ENDCHAR
STARTCHAR 0427
ENCODING 1063
SWIDTH 450 0
DWIDTH 5 0
BBX 5 7 1 0
BITMAP
48
C8
D8
F8
78
18
18
ENDCHAR
STARTCHAR 0428
ENCODING 1064
SWIDTH 720 0
DWIDTH 8 0
BBX 8 8 1 0
BITMAP
40
4B
CB
DB
DB
DA
FE
FE
ENDCHAR
STARTCHAR 0429
ENCODING 1065
SWIDTH 720 0
DWIDTH 8 0
BBX 8 8 1 0
BITMAP
6B
EB
CB
DA
DE
FE
FE
04
ENDCHAR
STARTCHAR 042A
ENCODING 1066
SWIDTH 630 0
DWIDTH 7 0
BBX 5 8 2 0
BITMAP
60
E0
E0
78
78
48
D8
F0
ENDCHAR
STARTCHAR 042B
ENCODING 1067
SWIDTH 630 0
DWIDTH 7 0
BBX 8 8 1 0
BITMAP
60
63
C2
F2
DE
DE
F6
F4
ENDCHAR
STARTCHAR 042C
ENCODING 1068
SWIDTH 450 0
DWIDTH 5 0
BBX 5 8 1 0
BITMAP
60
60
C0
F0
D8
D8
D8
F0
ENDCHAR
STARTCHAR 042D
ENCODING 1069
SWIDTH 450 0
DWIDTH 5 0
BBX 5 8 1 0
BITMAP
30
78
78
18
78
18
F0
E0
ENDCHAR
STARTCHAR 042E
ENCODING 1070
SWIDTH 630 0
DWIDTH 7 0
BBX 7 8 1 0
BITMAP
24
6E
6E
7A
F6
DE
DC
CC
ENDCHAR
STARTCHAR 042F
ENCODING 1071
SWIDTH 450 0
DWIDTH 5 0
BBX 6 8 1 0
BITMAP
1C
7C
5C
D8
78
58
F8
B8
ENDCHAR
STARTCHAR 0430
ENCODING 1072
SWIDTH 630 0
DWIDTH 7 0
BBX 6 7 1 1
BITMAP
18
18
38
78
58
F8
9C
ENDCHAR
STARTCHAR 0431
ENCODING 1073
SWIDTH 450 0
DWIDTH 5 0
BBX 6 8 1 0
BITMAP
40
7C
78
F0
F8
D8
F0
E0
ENDCHAR
STARTCHAR 0432
ENCODING 1074
SWIDTH 450 0
DWIDTH 5 0
BBX 5 8 1 0
BITMAP
70
78
58
70
F8
D8
F8
F0
ENDCHAR
STARTCHAR 0433
ENCODING 1075
SWIDTH 450 0
DWIDTH 5 0
BBX 6 8 1 0
BITMAP
3C
7C
C0
C0
C0
C0
80
C0
ENDCHAR
STARTCHAR 0434
ENCODING 1076
SWIDTH 540 0
DWIDTH 6 0
BBX 7 8 0 -1
BITMAP
0C
1C
1C
3C
2C
6C
FE
C4
ENDCHAR
STARTCHAR 0435
ENCODING 1077
SWIDTH 450 0
DWIDTH 5 0
BBX 5 8 1 0
BITMAP
78
70
70
70
70
78
78
E0
ENDCHAR
STARTCHAR 0436
ENCODING 1078
SWIDTH 630 0
DWIDTH 7 0
BBX 9 8 0 0
BITMAP
0080
3D80
3F00
3F00
3E00
7F00
6B00
C800
ENDCHAR
STARTCHAR 0437
ENCODING 1079
SWIDTH 450 0
DWIDTH 5 0
BBX 5 8 1 0
BITMAP
70
78
18
38
78
18
F0
F0
ENDCHAR
STARTCHAR 0438
ENCODING 1080
SWIDTH 540 0
DWIDTH 6 0
BBX 6 7 1 0
BITMAP
6C
7C
DC
FC
F8
D8
D8
ENDCHAR
STARTCHAR 0439
ENCODING 1081
SWIDTH 540 0
DWIDTH 6 0
BBX 6 10 1 0
BITMAP
28
38
00
6C
7C
DC
FC
F8
D8
D8
ENDCHAR
STARTCHAR 043A
ENCODING 1082
SWIDTH 540 0
DWIDTH 6 0
BBX 7 8 0 0
BITMAP
0A
36
7C
78
78
78
6C
E8
ENDCHAR
STARTCHAR 043B
ENCODING 1083
SWIDTH 540 0
DWIDTH 6 0
BBX 7 7 0 0
BITMAP
18
38
3C
2C
6C
6C
E6
ENDCHAR
STARTCHAR 043C
ENCODING 1084
SWIDTH 630 0
DWIDTH 7 0
BBX 8 7 0 1
BITMAP
13
33
3F
7E
66
66
CE
ENDCHAR
STARTCHAR 043D
ENCODING 1085
SWIDTH 540 0
DWIDTH 6 0
BBX 7 8 0 0
BITMAP
08
3E
36
3E
7E
6C
6C
EC
ENDCHAR
STARTCHAR 043E
ENCODING 1086
SWIDTH 450 0
DWIDTH 5 0
BBX 6 8 1 0
BITMAP
30
78
78
CC
DC
F8
F8
70
ENDCHAR
STARTCHAR 043F
ENCODING 1087
SWIDTH 540 0
DWIDTH 6 0
BBX 6 8 1 0
BITMAP
68
7C
CC
CC
CC
D8
D8
D8
ENDCHAR
STARTCHAR 0440
ENCODING 1088
SWIDTH 450 0
DWIDTH 5 0
BBX 6 8 0 0
BITMAP
18
3C
34
74
7C
60
E0
E0
ENDCHAR
STARTCHAR 0441
ENCODING 1089
SWIDTH 450 0
DWIDTH 5 0
BBX 6 8 1 0
BITMAP
10
7C
78
C0
C0
F8
F8
60
ENDCHAR
STARTCHAR 0442
ENCODING 1090
SWIDTH 540 0
DWIDTH 6 0
BBX 7 8 1 0
BITMAP
04
7E
FC
30
30
30
20
20
ENDCHAR
STARTCHAR 0443
ENCODING 1091
SWIDTH 450 0
DWIDTH 5 0
BBX 7 8 0 0
BITMAP
36
36
3C
3C
18
18
78
E0
ENDCHAR
STARTCHAR 0444
ENCODING 1092
SWIDTH 630 0
DWIDTH 7 0
BBX 7 8 1 -1
BITMAP
1C
7E
7E
DE
F6
FC
FC
68
ENDCHAR
STARTCHAR 0445
ENCODING 1093
SWIDTH 540 0
DWIDTH 6 0
BBX 6 8 1 0
BITMAP
04
6C
6C
78
30
78
D8
C0
ENDCHAR
STARTCHAR 0446
ENCODING 1094
SWIDTH 450 0
DWIDTH 5 0
BBX 7 8 0 -1
BITMAP
36
26
66
64
64
7C
FC
0C
ENDCHAR
STARTCHAR 0447
ENCODING 1095
SWIDTH 450 0
DWIDTH 5 0
BBX 5 7 1 0
BITMAP
48
C8
D8
F8
78
18
18
ENDCHAR
STARTCHAR 0448
ENCODING 1096
SWIDTH 720 0
DWIDTH 8 0
BBX 8 8 1 0
BITMAP
40
4B
CB
DB
DB
DA
FE
FE
ENDCHAR
STARTCHAR 0449
ENCODING 1097
SWIDTH 720 0
DWIDTH 8 0
BBX 8 8 1 0
BITMAP
6B
EB
CB
DA
DE
FE
FE
04
ENDCHAR
STARTCHAR 044A
ENCODING 1098
SWIDTH 630 0
DWIDTH 7 0
BBX 5 8 2 0
BITMAP
60
E0
E0
78
78
48
D8
F0
ENDCHAR
STARTCHAR 044B
ENCODING 1099
SWIDTH 630 0
DWIDTH 7 0
BBX 8 8 1 0
BITMAP
60
63
C2
F2
DE
DE
F6
F4
ENDCHAR
STARTCHAR 044C
ENCODING 1100
SWIDTH 450 0
DWIDTH 5 0
BBX 5 8 1 0
BITMAP
60
60
C0
F0
D8
D8
D8
F0
ENDCHAR
STARTCHAR 044D
ENCODING 1101
SWIDTH 450 0
DWIDTH 5 0
BBX 5 8 1 0
BITMAP
30
78
78
18
78
18
F0
E0
ENDCHAR
STARTCHAR 044E
ENCODING 1102
SWIDTH 630 0
DWIDTH 7 0
BBX 7 8 1 0
BITMAP
24
6E
6E
7A
F6
DE
DC
CC
ENDCHAR
STARTCHAR 044F
ENCODING 1103
SWIDTH 450 0
DWIDTH 5 0
BBX 6 8 1 0
BITMAP
1C
7C
5C
D8
78
58
F8
B8
ENDCHAR
STARTCHAR 0450
ENCODING 1104
SWIDTH 450 0
DWIDTH 5 0
BBX 5 10 1 0
BITMAP
60
20
78
70
70
70
70
78
78
E0
ENDCHAR
STARTCHAR 0451
ENCODING 1105
SWIDTH 450 0
DWIDTH 5 0
BBX 5 9 1 0
BITMAP
50
78
70
70
70
70
78
78
E0
ENDCHAR
STARTCHAR 0452
ENCODING 1106
SWIDTH 630 0
DWIDTH 7 0
BBX 6 9 2 -1
BITMAP
FC
FC
60
7C
6C
6C
4C
48
18
ENDCHAR
STARTCHAR 0453
ENCODING 1107
SWIDTH 450 0
DWIDTH 5 0
BBX 6 10 1 0
BITMAP
08
10
3C
7C
C0
C0
C0
C0
80
C0
ENDCHAR
STARTCHAR 0454
ENCODING 1108
SWIDTH 450 0
DWIDTH 5 0
BBX 6 8 1 0
BITMAP
10
7C
78
C0
F0
C0
F8
70
ENDCHAR
STARTCHAR 0455
ENCODING 1109
SWIDTH 450 0
DWIDTH 5 0
BBX 7 8 0 0
BITMAP
0E
3C
3C
20
38
0C
F8
70
ENDCHAR
STARTCHAR 0456
ENCODING 1110
SWIDTH 270 0
DWIDTH 3 0
BBX 4 7 1 1
BITMAP
70
60
60
E0
E0
C0
C0
ENDCHAR
STARTCHAR 0457
ENCODING 1111
SWIDTH 270 0
DWIDTH 3 0
BBX 5 9 1 0
BITMAP
28
00
70
60
60
E0
E0
C0
C0
ENDCHAR
STARTCHAR 0458
ENCODING 1112
SWIDTH 450 0
DWIDTH 5 0
BBX 5 7 1 1
BITMAP
18
38
38
38
30
F0
E0
ENDCHAR
STARTCHAR 0459
ENCODING 1113
SWIDTH 720 0
DWIDTH 8 0
BBX 8 7 0 1
BITMAP
1E
1E
37
3F
6D
6F
EE
ENDCHAR
STARTCHAR 045A
ENCODING 1114
SWIDTH 720 0
DWIDTH 8 0
BBX 8 7 0 1
BITMAP
36
36
3F
7F
6D
6F
EE
ENDCHAR
STARTCHAR 045B
ENCODING 1115
SWIDTH 630 0
DWIDTH 7 0
BBX 6 8 2 0
BITMAP
FC
FC
60
7C
6C
6C
4C
48
ENDCHAR
STARTCHAR 045C
ENCODING 1116
SWIDTH 540 0
DWIDTH 6 0
BBX 7 10 0 0
BITMAP
02
04
0A
36
7C
78
78
78
6C
E8
ENDCHAR
STARTCHAR 045D
ENCODING 1117
SWIDTH 540 0
DWIDTH 6 0
BBX 6 10 1 0
BITMAP
20
30
00
6C
7C
DC
FC
F8
D8
D8
ENDCHAR
STARTCHAR 045E
ENCODING 1118
SWIDTH 450 0
DWIDTH 5 0
BBX 7 10 0 0
BITMAP
14
1C
36
36
3C
3C
18
18
78
E0
ENDCHAR
STARTCHAR 045F
ENCODING 1119
SWIDTH 450 0
DWIDTH 5 0
BBX 7 8 0 -1
BITMAP
26
66
66
64
4C
FC
FC
30
ENDCHAR
STARTCHAR 0462
ENCODING 1122
SWIDTH 630 0
DWIDTH 7 0
BBX 5 8 2 0
BITMAP
60
F8
60
78
58
C8
D8
F0
ENDCHAR
STARTCHAR 0463
ENCODING 1123
SWIDTH 630 0
DWIDTH 7 0
BBX 5 8 2 0
BITMAP
60
F8
60
78
58
C8
D8
F0
ENDCHAR
STARTCHAR 0474
ENCODING 1140
SWIDTH 540 0
DWIDTH 6 0
BBX 6 7 2 0
BITMAP
DC
D8
F0
E0
E0
C0
C0
ENDCHAR
STARTCHAR 0475
ENCODING 1141
SWIDTH 540 0
DWIDTH 6 0
BBX 6 7 2 0
BITMAP
DC
D8
F0
E0
E0
C0
C0
ENDCHAR
STARTCHAR 0476
ENCODING 1142
SWIDTH 540 0
DWIDTH 6 0
BBX 6 10 2 0
BITMAP
F0
50
00
DC
D8
F0
E0
E0
C0
C0
ENDCHAR
STARTCHAR 0477
ENCODING 1143
SWIDTH 540 0
DWIDTH 6 0
BBX 6 10 2 0
BITMAP
F0
50
00
DC
D8
F0
E0
E0
C0
C0
ENDCHAR
STARTCHAR 0480
ENCODING 1152
SWIDTH 450 0
DWIDTH 5 0
BBX 6 9 1 -1
BITMAP
1C
7C
E0
C0
C0
C0
F8
F8
30
ENDCHAR
STARTCHAR 0481
ENCODING 1153
SWIDTH 450 0
DWIDTH 5 0
BBX 6 9 1 -1
BITMAP
1C
7C
E0
C0
C0
C0
F8
F8
30
ENDCHAR
STARTCHAR 048C
ENCODING 1164
SWIDTH 540 0
DWIDTH 6 0
BBX 5 8 1 0
BITMAP
60
70
60
78
68
48
D8
F0
ENDCHAR
STARTCHAR 048D
ENCODING 1165
SWIDTH 540 0
DWIDTH 6 0
BBX 5 8 1 0
BITMAP
60
70
60
78
68
48
D8
F0
ENDCHAR
STARTCHAR 0490
ENCODING 1168
SWIDTH 450 0
DWIDTH 5 0
BBX 6 10 1 0
BITMAP
0C
0C
3C
7C
C0
C0
C0
C0
80
C0
ENDCHAR
STARTCHAR 0491
ENCODING 1169
SWIDTH 450 0
DWIDTH 5 0
BBX 6 10 1 0
BITMAP
0C
0C
3C
7C
C0
C0
C0
C0
80
C0
ENDCHAR
STARTCHAR 0492
ENCODING 1170
SWIDTH 540 0
DWIDTH 6 0
BBX 6 8 1 0
BITMAP
3C
7C
60
60
F0
C0
C0
C0
ENDCHAR
STARTCHAR 0493
ENCODING 1171
SWIDTH 540 0
DWIDTH 6 0
BBX 6 8 1 0
BITMAP
3C
7C
60
60
F0
C0
C0
C0
ENDCHAR
STARTCHAR 0496
ENCODING 1174
SWIDTH 630 0
DWIDTH 7 0
BBX 9 9 0 -1
BITMAP
0080
3F00
3F00
3E00
3E00
7F00
7B00
DB00
0200
ENDCHAR
STARTCHAR 0497
ENCODING 1175
SWIDTH 630 0
DWIDTH 7 0
BBX 9 9 0 -1
BITMAP
0080
3F00
3F00
3E00
3E00
7F00
7B00
DB00
0200
ENDCHAR
STARTCHAR 0498
ENCODING 1176
SWIDTH 450 0
DWIDTH 5 0
BBX 5 10 1 -2
BITMAP
70
78
18
38
78
18
F0
F0
20
E0
ENDCHAR
STARTCHAR 0499
ENCODING 1177
SWIDTH 450 0
DWIDTH 5 0
BBX 5 10 1 -2
BITMAP
70
78
18
38
78
18
F0
F0
20
E0
ENDCHAR
STARTCHAR 049A
ENCODING 1178
SWIDTH 540 0
DWIDTH 6 0
BBX 7 9 0 -1
BITMAP
08
36
7C
78
78
78
6C
EC
0C
ENDCHAR
STARTCHAR 049B
ENCODING 1179
SWIDTH 540 0
DWIDTH 6 0
BBX 7 9 0 -1
BITMAP
08
36
7C
78
78
78
6C
EC
0C
ENDCHAR
STARTCHAR 04A0
ENCODING 1184
SWIDTH 630 0
DWIDTH 7 0
BBX 7 8 1 0
BITMAP
08
76
7C
78
78
78
EC
E8
ENDCHAR
STARTCHAR 04A1
ENCODING 1185
SWIDTH 630 0
DWIDTH 7 0
BBX 7 8 1 0
BITMAP
08
76
7C
78
78
78
EC
E8
ENDCHAR
STARTCHAR 04A2
ENCODING 1186
SWIDTH 540 0
DWIDTH 6 0
BBX 7 8 0 0
BITMAP
36
36
3E
7C
6C
6C
EC
0C
ENDCHAR
STARTCHAR 04A3
ENCODING 1187
SWIDTH 540 0
DWIDTH 6 0
BBX 7 8 0 0
BITMAP
36
36
3E
7C
6C
6C
EC
0C
ENDCHAR
STARTCHAR 04A4
ENCODING 1188
SWIDTH 630 0
DWIDTH 7 0
BBX 8 8 0 0
BITMAP
08
3F
37
3E
7E
6C
6C
EC
ENDCHAR
STARTCHAR 04A5
ENCODING 1189
SWIDTH 630 0
DWIDTH 7 0
BBX 8 8 0 0
BITMAP
08
3F
37
3E
7E
6C
6C
EC
ENDCHAR
STARTCHAR 04AA
ENCODING 1194
SWIDTH 450 0
DWIDTH 5 0
BBX 6 10 1 -2
BITMAP
10
7C
78
C0
C0
F8
F8
60
60
E0
ENDCHAR
STARTCHAR 04AB
ENCODING 1195
SWIDTH 450 0
DWIDTH 5 0
BBX 6 10 1 -2
BITMAP
10
7C
78
C0
C0
F8
F8
60
60
E0
ENDCHAR
STARTCHAR 04AC
ENCODING 1196
SWIDTH 540 0
DWIDTH 6 0
BBX 7 9 1 -1
BITMAP
04
7E
FC
30
30
30
30
30
30
ENDCHAR
STARTCHAR 04AD
ENCODING 1197
SWIDTH 540 0
DWIDTH 6 0
BBX 7 9 1 -1
BITMAP
04
7E
FC
30
30
30
30
30
30
ENDCHAR
STARTCHAR 04AE
ENCODING 1198
SWIDTH 540 0
DWIDTH 6 0
BBX 6 8 2 0
BITMAP
04
CC
D8
F0
70
60
60
60
ENDCHAR
STARTCHAR 04AF
ENCODING 1199
SWIDTH 540 0
DWIDTH 6 0
BBX 6 8 2 0
BITMAP
04
CC
D8
F0
70
60
60
60
ENDCHAR
STARTCHAR 04B0
ENCODING 1200
SWIDTH 540 0
DWIDTH 6 0
BBX 7 8 1 0
BITMAP
02
66
6C
78
38
30
F8
30
ENDCHAR
STARTCHAR 04B1
ENCODING 1201
SWIDTH 540 0
DWIDTH 6 0
BBX 7 8 1 0
BITMAP
02
66
6C
78
38
30
F8
30
ENDCHAR
STARTCHAR 04B2
ENCODING 1202
SWIDTH 540 0
DWIDTH 6 0
BBX 6 8 1 0
BITMAP
6C
6C
78
30
70
DC
D8
08
ENDCHAR
STARTCHAR 04B3
ENCODING 1203
SWIDTH 540 0
DWIDTH 6 0
BBX 6 8 1 0
BITMAP
6C
6C
78
30
70
DC
D8
08
ENDCHAR
STARTCHAR 04B6
ENCODING 1206
SWIDTH 450 0
DWIDTH 5 0
BBX 5 8 1 -1
BITMAP
48
D8
D8
F8
78
18
18
10
ENDCHAR
STARTCHAR 04B7
ENCODING 1207
SWIDTH 450 0
DWIDTH 5 0
BBX 5 8 1 -1
BITMAP
48
D8
D8
F8
78
18
18
10
ENDCHAR
STARTCHAR 04B8
ENCODING 1208
SWIDTH 450 0
DWIDTH 5 0
BBX 5 7 1 0
BITMAP
48
C8
F8
F8
78
38
18
ENDCHAR
STARTCHAR 04B9
ENCODING 1209
SWIDTH 450 0
DWIDTH 5 0
BBX 5 7 1 0
BITMAP
48
C8
F8
F8
78
38
18
ENDCHAR
STARTCHAR 04BA
ENCODING 1210
SWIDTH 450 0
DWIDTH 5 0
BBX 5 7 1 0
BITMAP
60
40
F8
D8
D8
D8
D8
ENDCHAR
STARTCHAR 04BB
ENCODING 1211
SWIDTH 450 0
DWIDTH 5 0
BBX 5 7 1 0
BITMAP
60
40
F8
D8
D8
D8
D8
ENDCHAR
STARTCHAR 04BC
ENCODING 1212
SWIDTH 540 0
DWIDTH 6 0
BBX 6 8 1 0
BITMAP
18
3C
7C
EC
FC
40
78
38
ENDCHAR
STARTCHAR 04BD
ENCODING 1213
SWIDTH 540 0
DWIDTH 6 0
BBX 6 8 1 0
BITMAP
18
3C
7C
EC
FC
40
78
38
ENDCHAR
STARTCHAR 04BE
ENCODING 1214
SWIDTH 540 0
DWIDTH 6 0
BBX 6 9 1 -1
BITMAP
18
3C
7C
EC
FC
40
78
38
20
ENDCHAR
STARTCHAR 04BF
ENCODING 1215
SWIDTH 540 0
DWIDTH 6 0
BBX 6 9 1 -1
BITMAP
18
3C
7C
EC
FC
40
78
38
20
ENDCHAR
STARTCHAR 04C0
ENCODING 1216
SWIDTH 180 0
DWIDTH 2 0
BBX 3 8 0 0
BITMAP
20
20
60
60
60
40
40
C0
ENDCHAR
STARTCHAR 04C1
ENCODING 1217
SWIDTH 630 0
DWIDTH 7 0
BBX 9 10 0 0
BITMAP
0200
0C00
0080
3D80
3F00
3F00
3E00
7F00
6B00
C800
ENDCHAR
STARTCHAR 04C2
ENCODING 1218
SWIDTH 630 0
DWIDTH 7 0
BBX 9 10 0 0
BITMAP
0200
0C00
0080
3D80
3F00
3F00
3E00
7F00
6B00
C800
ENDCHAR
STARTCHAR 04CB
ENCODING 1227
SWIDTH 450 0
DWIDTH 5 0
BBX 5 8 1 -1
BITMAP
48
C8
D8
F8
78
38
38
30
ENDCHAR
STARTCHAR 04CC
ENCODING 1228
SWIDTH 450 0
DWIDTH 5 0
BBX 5 8 1 -1
BITMAP
48
C8
D8
F8
78
38
38
30
ENDCHAR
STARTCHAR 04CF
ENCODING 1231
SWIDTH 180 0
DWIDTH 2 0
BBX 3 8 0 0
BITMAP
20
20
60
60
60
40
40
C0
ENDCHAR
STARTCHAR 04D0
ENCODING 1232
SWIDTH 630 0
DWIDTH 7 0
BBX 6 10 1 0
BITMAP
14
1C
00
18
18
38
78
58
F8
9C
ENDCHAR
STARTCHAR 04D1
ENCODING 1233
SWIDTH 630 0
DWIDTH 7 0
BBX 6 10 1 0
BITMAP
14
1C
00
18
18
38
78
58
F8
9C
ENDCHAR
STARTCHAR 04D2
ENCODING 1234
SWIDTH 630 0
DWIDTH 7 0
BBX 6 9 1 0
BITMAP
14
00
18
18
38
78
58
F8
9C
ENDCHAR
STARTCHAR 04D3
ENCODING 1235
SWIDTH 630 0
DWIDTH 7 0
BBX 6 9 1 0
BITMAP
14
00
18
18
38
78
58
F8
9C
ENDCHAR
STARTCHAR 04D4
ENCODING 1236
SWIDTH 720 0
DWIDTH 8 0
BBX 8 8 0 0
BITMAP
07
0F
0F
1D
3E
2F
7F
CE
ENDCHAR
STARTCHAR 04D5
ENCODING 1237
SWIDTH 720 0
DWIDTH 8 0
BBX 8 8 0 0
BITMAP
07
0F
0F
1D
3E
2F
7F
CE
ENDCHAR
STARTCHAR 04D6
ENCODING 1238
SWIDTH 450 0
DWIDTH 5 0
BBX 5 10 1 0
BITMAP
58
70
78
70
70
70
70
78
78
E0
ENDCHAR
STARTCHAR 04D7
ENCODING 1239
SWIDTH 450 0
DWIDTH 5 0
BBX 5 10 1 0
BITMAP
58
70
78
70
70
70
70
78
78
E0
ENDCHAR
STARTCHAR 04D8
ENCODING 1240
SWIDTH 450 0
DWIDTH 5 0
BBX 5 8 1 0
BITMAP
30
78
18
F8
F8
D8
F0
60
ENDCHAR
STARTCHAR 04D9
ENCODING 1241
SWIDTH 450 0
DWIDTH 5 0
BBX 5 8 1 0
BITMAP
30
78
18
F8
F8
D8
F0
60
ENDCHAR
STARTCHAR 04DA
ENCODING 1242
SWIDTH 450 0
DWIDTH 5 0
BBX 5 9 1 0
BITMAP
38
30
78
18
F8
F8
D8
F0
60
ENDCHAR
STARTCHAR 04DB
ENCODING 1243
SWIDTH 450 0
DWIDTH 5 0
BBX 5 9 1 0
BITMAP
38
30
78
18
F8
F8
D8
F0
60
ENDCHAR
STARTCHAR 04DC
ENCODING 1244
SWIDTH 630 0
DWIDTH 7 0
BBX 9 9 0 0
BITMAP
0A00
0080
3D80
3F00
3F00
3E00
7F00
6B00
C800
ENDCHAR
STARTCHAR 04DD
ENCODING 1245
SWIDTH 630 0
DWIDTH 7 0
BBX 9 9 0 0
BITMAP
0A00
0080
3D80
3F00
3F00
3E00
7F00
6B00
C800
ENDCHAR
STARTCHAR 04DE
ENCODING 1246
SWIDTH 450 0
DWIDTH 5 0
BBX 5 9 1 0
BITMAP
38
70
78
18
38
78
18
F0
F0
ENDCHAR
STARTCHAR 04DF
ENCODING 1247
SWIDTH 450 0
DWIDTH 5 0
BBX 5 9 1 0
BITMAP
38
70
78
18
38
78
18
F0
F0
ENDCHAR
STARTCHAR 04E0
ENCODING 1248
SWIDTH 450 0
DWIDTH 5 0
BBX 6 8 0 0
BITMAP
1C
3C
08
3C
0C
0C
FC
78
ENDCHAR
STARTCHAR 04E1
ENCODING 1249
SWIDTH 450 0
DWIDTH 5 0
BBX 6 8 0 0
BITMAP
1C
3C
08
3C
0C
0C
FC
78
ENDCHAR
STARTCHAR 04E2
ENCODING 1250
SWIDTH 540 0
DWIDTH 6 0
BBX 6 9 1 0
BITMAP
38
00
6C
7C
DC
FC
F8
D8
D8
ENDCHAR
STARTCHAR 04E3
ENCODING 1251
SWIDTH 540 0
DWIDTH 6 0
BBX 6 9 1 0
BITMAP
38
00
6C
7C
DC
FC
F8
D8
D8
ENDCHAR
STARTCHAR 04E4
ENCODING 1252
SWIDTH 540 0
DWIDTH 6 0
BBX 6 9 1 0
BITMAP
28
00
6C
7C
DC
FC
F8
D8
D8
ENDCHAR
STARTCHAR 04E5
ENCODING 1253
SWIDTH 540 0
DWIDTH 6 0
BBX 6 9 1 0
BITMAP
28
00
6C
7C
DC
FC
F8
D8
D8
ENDCHAR
STARTCHAR 04E6
ENCODING 1254
SWIDTH 450 0
DWIDTH 5 0
BBX 6 9 1 0
BITMAP
70
30
78
78
CC
DC
F8
F8
70
ENDCHAR
STARTCHAR 04E7
ENCODING 1255
SWIDTH 450 0
DWIDTH 5 0
BBX 6 9 1 0
BITMAP
70
30
78
78
CC
DC
F8
F8
70
ENDCHAR
STARTCHAR 04E8
ENCODING 1256
SWIDTH 450 0
DWIDTH 5 0
BBX 6 8 1 0
BITMAP
30
78
7C
CC
FC
F8
F8
70
ENDCHAR
STARTCHAR 04E9
ENCODING 1257
SWIDTH 450 0
DWIDTH 5 0
BBX 6 8 1 0
BITMAP
30
78
7C
CC
FC
F8
F8
70
ENDCHAR
STARTCHAR 04EA
ENCODING 1258
SWIDTH 450 0
DWIDTH 5 0
BBX 6 9 1 0
BITMAP
28
30
78
7C
CC
FC
F8
F8
70
ENDCHAR
STARTCHAR 04EB
ENCODING 1259
SWIDTH 450 0
DWIDTH 5 0
BBX 6 9 1 0
BITMAP
28
30
78
7C
CC
FC
F8
F8
70
ENDCHAR
STARTCHAR 04EC
ENCODING 1260
SWIDTH 450 0
DWIDTH 5 0
BBX 5 9 1 0
BITMAP
78
30
78
78
18
78
18
F0
E0
ENDCHAR
STARTCHAR 04ED
ENCODING 1261
SWIDTH 450 0
DWIDTH 5 0
BBX 5 9 1 0
BITMAP
78
30
78
78
18
78
18
F0
E0
ENDCHAR
STARTCHAR 04EE
ENCODING 1262
SWIDTH 450 0
DWIDTH 5 0
BBX 7 9 0 0
BITMAP
1C
36
36
3C
3C
18
18
78
E0
ENDCHAR
STARTCHAR 04EF
ENCODING 1263
SWIDTH 450 0
DWIDTH 5 0
BBX 7 9 0 0
BITMAP
1C
36
36
3C
3C
18
18
78
E0
ENDCHAR
STARTCHAR 04F0
ENCODING 1264
SWIDTH 450 0
DWIDTH 5 0
BBX 7 9 0 0
BITMAP
14
36
36
3C
3C
18
18
78
E0
ENDCHAR
STARTCHAR 04F1
ENCODING 1265
SWIDTH 450 0
DWIDTH 5 0
BBX 7 9 0 0
BITMAP
14
36
36
3C
3C
18
18
78
E0
ENDCHAR
STARTCHAR 04F2
ENCODING 1266
SWIDTH 450 0
DWIDTH 5 0
BBX 8 10 0 0
BITMAP
0F
1E
36
36
3C
3C
18
18
78
E0
ENDCHAR
STARTCHAR 04F3
ENCODING 1267
SWIDTH 450 0
DWIDTH 5 0
BBX 8 10 0 0
BITMAP
0F
1E
36
36
3C
3C
18
18
78
E0
ENDCHAR
STARTCHAR 04F4
ENCODING 1268
SWIDTH 450 0
DWIDTH 5 0
BBX 5 9 1 0
BITMAP
28
00
48
C8
D8
F8
78
18
18
ENDCHAR
STARTCHAR 04F5
ENCODING 1269
SWIDTH 450 0
DWIDTH 5 0
BBX 5 9 1 0
BITMAP
28
00
48
C8
D8
F8
78
18
18
ENDCHAR
STARTCHAR 04F6
ENCODING 1270
SWIDTH 450 0
DWIDTH 5 0
BBX 6 9 1 -1
BITMAP
3C
7C
C0
C0
C0
C0
C0
C0
C0
ENDCHAR
STARTCHAR 04F7
ENCODING 1271
SWIDTH 450 0
DWIDTH 5 0
BBX 6 9 1 -1
BITMAP
3C
7C
C0
C0
C0
C0
C0
C0
C0
ENDCHAR
STARTCHAR 04F8
ENCODING 1272
SWIDTH 630 0
DWIDTH 7 0
BBX 8 9 1 0
BITMAP
14
60
63
C2
F2
DE
DE
F6
F4
ENDCHAR
STARTCHAR 04F9
ENCODING 1273
SWIDTH 630 0
DWIDTH 7 0
BBX 8 9 1 0
BITMAP
14
60
63
C2
F2
DE
DE
F6
F4
ENDCHAR
STARTCHAR 0500
ENCODING 1280
SWIDTH 450 0
DWIDTH 5 0
BBX 6 8 1 0
BITMAP
0C
0C
18
78
D8
98
F0
F0
ENDCHAR
STARTCHAR 0501
ENCODING 1281
SWIDTH 450 0
DWIDTH 5 0
BBX 6 8 1 0
BITMAP
0C
0C
18
78
D8
98
F0
F0
ENDCHAR
STARTCHAR 0510
ENCODING 1296
SWIDTH 450 0
DWIDTH 5 0
BBX 6 8 1 0
BITMAP
38
7C
60
60
F0
C0
F0
F0
ENDCHAR
STARTCHAR 0511
ENCODING 1297
SWIDTH 450 0
DWIDTH 5 0
BBX 6 8 1 0
BITMAP
38
7C
60
60
F0
C0
F0
F0
ENDCHAR
STARTCHAR 0524
ENCODING 1316
SWIDTH 540 0
DWIDTH 6 0
BBX 6 9 1 -1
BITMAP
78
7C
CC
CC
C8
D8
D8
98
18
ENDCHAR
STARTCHAR 0525
ENCODING 1317
SWIDTH 540 0
DWIDTH 6 0
BBX 6 9 1 -1
BITMAP
78
7C
CC
CC
C8
D8
D8
98
18
ENDCHAR
STARTCHAR 0526
ENCODING 1318
SWIDTH 450 0
DWIDTH 5 0
BBX 5 8 1 -1
BITMAP
60
40
F8
D8
D8
D8
D8
10
ENDCHAR
STARTCHAR 0527
ENCODING 1319
SWIDTH 450 0
DWIDTH 5 0
BBX 5 8 1 -1
BITMAP
60
40
F8
D8
D8
D8
D8
10
ENDCHAR
STARTCHAR 052E
ENCODING 1326
SWIDTH 540 0
DWIDTH 6 0
BBX 7 8 0 -1
BITMAP
18
38
38
6C
6C
6E
C6
04
ENDCHAR
STARTCHAR 052F
ENCODING 1327
SWIDTH 540 0
DWIDTH 6 0
BBX 7 8 0 -1
BITMAP
18
38
38
6C
6C
6E
C6
04
ENDCHAR
STARTCHAR 058F
ENCODING 1423
SWIDTH 540 0
DWIDTH 6 0
BBX 6 8 1 0
BITMAP
30
78
D8
D8
3C
10
78
30
ENDCHAR
STARTCHAR 1E02
ENCODING 7682
SWIDTH 450 0
DWIDTH 5 0
BBX 5 9 1 0
BITMAP
20
70
78
58
70
F8
D8
F8
F0
ENDCHAR
STARTCHAR 1E03
ENCODING 7683
SWIDTH 450 0
DWIDTH 5 0
BBX 5 9 1 0
BITMAP
20
70
78
58
70
F8
D8
F8
F0
ENDCHAR
STARTCHAR 1E06
ENCODING 7686
SWIDTH 450 0
DWIDTH 5 0
BBX 5 9 1 -1
BITMAP
70
78
58
70
F8
D8
F8
F0
60
ENDCHAR
STARTCHAR 1E07
ENCODING 7687
SWIDTH 450 0
DWIDTH 5 0
BBX 5 9 1 -1
BITMAP
70
78
58
70
F8
D8
F8
F0
60
ENDCHAR
STARTCHAR 1E08
ENCODING 7688
SWIDTH 450 0
DWIDTH 5 0
BBX 6 12 1 -2
BITMAP
04
08
10
7C
78
C0
C0
F8
F8
60
60
E0
ENDCHAR
STARTCHAR 1E09
ENCODING 7689
SWIDTH 450 0
DWIDTH 5 0
BBX 6 12 1 -2
BITMAP
04
08
10
7C
78
C0
C0
F8
F8
60
60
E0
ENDCHAR
STARTCHAR 1E0A
ENCODING 7690
SWIDTH 450 0
DWIDTH 5 0
BBX 5 9 1 0
BITMAP
20
60
70
F8
D8
D0
F0
E0
80
ENDCHAR
STARTCHAR 1E0B
ENCODING 7691
SWIDTH 450 0
DWIDTH 5 0
BBX 5 9 1 0
BITMAP
20
60
70
F8
D8
D0
F0
E0
80
ENDCHAR
STARTCHAR 1E0C
ENCODING 7692
SWIDTH 450 0
DWIDTH 5 0
BBX 5 10 1 -2
BITMAP
60
70
F8
D8
D0
F0
E0
80
00
80
ENDCHAR
STARTCHAR 1E0D
ENCODING 7693
SWIDTH 450 0
DWIDTH 5 0
BBX 5 10 1 -2
BITMAP
60
70
F8
D8
D0
F0
E0
80
00
80
ENDCHAR
STARTCHAR 1E0E
ENCODING 7694
SWIDTH 450 0
DWIDTH 5 0
BBX 5 9 1 -1
BITMAP
60
70
F8
D8
D0
F0
E0
80
C0
ENDCHAR
STARTCHAR 1E0F
ENCODING 7695
SWIDTH 450 0
DWIDTH 5 0
BBX 5 9 1 -1
BITMAP
60
70
F8
D8
D0
F0
E0
80
C0
ENDCHAR
STARTCHAR 1E10
ENCODING 7696
SWIDTH 450 0
DWIDTH 5 0
BBX 5 10 1 -2
BITMAP
60
70
F8
D8
D0
F0
E0
C0
60
E0
ENDCHAR
STARTCHAR 1E11
ENCODING 7697
SWIDTH 450 0
DWIDTH 5 0
BBX 5 10 1 -2
BITMAP
60
70
F8
D8
D0
F0
E0
C0
60
E0
ENDCHAR
STARTCHAR 1E1C
ENCODING 7708
SWIDTH 450 0
DWIDTH 5 0
BBX 5 12 1 -2
BITMAP
58
70
78
70
70
70
70
78
78
E0
20
60
ENDCHAR
STARTCHAR 1E1D
ENCODING 7709
SWIDTH 450 0
DWIDTH 5 0
BBX 5 12 1 -2
BITMAP
58
70
78
70
70
70
70
78
78
E0
20
60
ENDCHAR
STARTCHAR 1E1E
ENCODING 7710
SWIDTH 450 0
DWIDTH 5 0
BBX 6 9 1 0
BITMAP
10
3C
7C
C0
E0
E0
C0
80
C0
ENDCHAR
STARTCHAR 1E1F
ENCODING 7711
SWIDTH 450 0
DWIDTH 5 0
BBX 6 9 1 0
BITMAP
10
3C
7C
C0
E0
E0
C0
80
C0
ENDCHAR
STARTCHAR 1E24
ENCODING 7716
SWIDTH 540 0
DWIDTH 6 0
BBX 7 10 0 -2
BITMAP
08
3E
36
3E
7E
6C
6C
EC
00
20
ENDCHAR
STARTCHAR 1E25
ENCODING 7717
SWIDTH 540 0
DWIDTH 6 0
BBX 7 10 0 -2
BITMAP
08
3E
36
3E
7E
6C
6C
EC
00
20
ENDCHAR
STARTCHAR 1E28
ENCODING 7720
SWIDTH 540 0
DWIDTH 6 0
BBX 7 10 0 -2
BITMAP
08
3E
36
3E
7E
6C
6C
EC
60
E0
ENDCHAR
STARTCHAR 1E29
ENCODING 7721
SWIDTH 540 0
DWIDTH 6 0
BBX 7 10 0 -2
BITMAP
08
3E
36
3E
7E
6C
6C
EC
60
E0
ENDCHAR
STARTCHAR 1E2A
ENCODING 7722
SWIDTH 540 0
DWIDTH 6 0
BBX 7 10 0 -2
BITMAP
08
3E
36
3E
7E
6C
6C
EC
48
30
ENDCHAR
STARTCHAR 1E2B
ENCODING 7723
SWIDTH 540 0
DWIDTH 6 0
BBX 7 10 0 -2
BITMAP
08
3E
36
3E
7E
6C
6C
EC
48
30
ENDCHAR
STARTCHAR 1E30
ENCODING 7728
SWIDTH 540 0
DWIDTH 6 0
BBX 7 10 0 0
BITMAP
02
04
0A
36
7C
78
78
78
6C
E8
ENDCHAR
STARTCHAR 1E31
ENCODING 7729
SWIDTH 540 0
DWIDTH 6 0
BBX 7 10 0 0
BITMAP
02
04
0A
36
7C
78
78
78
6C
E8
ENDCHAR
STARTCHAR 1E34
ENCODING 7732
SWIDTH 540 0
DWIDTH 6 0
BBX 7 9 0 -1
BITMAP
0A
36
7C
78
78
78
6C
E8
60
ENDCHAR
STARTCHAR 1E35
ENCODING 7733
SWIDTH 540 0
DWIDTH 6 0
BBX 7 9 0 -1
BITMAP
0A
36
7C
78
78
78
6C
E8
60
ENDCHAR
STARTCHAR 1E36
ENCODING 7734
SWIDTH 450 0
DWIDTH 5 0
BBX 5 10 1 -2
BITMAP
10
70
70
70
E0
E0
F8
F8
00
40
ENDCHAR
STARTCHAR 1E37
ENCODING 7735
SWIDTH 450 0
DWIDTH 5 0
BBX 5 10 1 -2
BITMAP
10
70
70
70
E0
E0
F8
F8
00
40
ENDCHAR
STARTCHAR 1E3A
ENCODING 7738
SWIDTH 450 0
DWIDTH 5 0
BBX 5 9 1 -1
BITMAP
10
70
70
70
E0
E0
F8
F8
C0
ENDCHAR
STARTCHAR 1E3B
ENCODING 7739
SWIDTH 450 0
DWIDTH 5 0
BBX 5 9 1 -1
BITMAP
10
70
70
70
E0
E0
F8
F8
C0
ENDCHAR
STARTCHAR 1E3E
ENCODING 7742
SWIDTH 630 0
DWIDTH 7 0
BBX 8 10 0 0
BITMAP
03
06
00
13
33
3F
7E
66
66
CE
ENDCHAR
STARTCHAR 1E3F
ENCODING 7743
SWIDTH 630 0
DWIDTH 7 0
BBX 8 10 0 0
BITMAP
03
06
00
13
33
3F
7E
66
66
CE
ENDCHAR
STARTCHAR 1E40
ENCODING 7744
SWIDTH 630 0
DWIDTH 7 0
BBX 8 9 0 0
BITMAP
04
00
13
33
3F
7E
66
66
CE
ENDCHAR
STARTCHAR 1E41
ENCODING 7745
SWIDTH 630 0
DWIDTH 7 0
BBX 8 9 0 0
BITMAP
04
00
13
33
3F
7E
66
66
CE
ENDCHAR
STARTCHAR 1E44
ENCODING 7748
SWIDTH 540 0
DWIDTH 6 0
BBX 7 9 0 0
BITMAP
04
00
3E
36
76
7C
7C
6C
FC
ENDCHAR
STARTCHAR 1E45
ENCODING 7749
SWIDTH 540 0
DWIDTH 6 0
BBX 7 9 0 0
BITMAP
04
00
3E
36
76
7C
7C
6C
FC
ENDCHAR
STARTCHAR 1E48
ENCODING 7752
SWIDTH 540 0
DWIDTH 6 0
BBX 7 8 0 -1
BITMAP
3E
36
76
7C
7C
6C
FC
30
ENDCHAR
STARTCHAR 1E49
ENCODING 7753
SWIDTH 540 0
DWIDTH 6 0
BBX 7 8 0 -1
BITMAP
3E
36
76
7C
7C
6C
FC
30
ENDCHAR
STARTCHAR 1E54
ENCODING 7764
SWIDTH 450 0
DWIDTH 5 0
BBX 6 10 0 0
BITMAP
04
08
18
3C
34
74
7C
60
E0
E0
ENDCHAR
STARTCHAR 1E55
ENCODING 7765
SWIDTH 450 0
DWIDTH 5 0
BBX 6 10 0 0
BITMAP
04
08
18
3C
34
74
7C
60
E0
E0
ENDCHAR
STARTCHAR 1E56
ENCODING 7766
SWIDTH 450 0
DWIDTH 5 0
BBX 6 9 0 0
BITMAP
08
18
3C
34
74
7C
60
E0
E0
ENDCHAR
STARTCHAR 1E57
ENCODING 7767
SWIDTH 450 0
DWIDTH 5 0
BBX 6 9 0 0
BITMAP
08
18
3C
34
74
7C
60
E0
E0
ENDCHAR
STARTCHAR 1E5A
ENCODING 7770
SWIDTH 540 0
DWIDTH 6 0
BBX 6 10 1 -2
BITMAP
30
78
EC
F8
F0
F8
F8
D8
00
20
ENDCHAR
STARTCHAR 1E5B
ENCODING 7771
SWIDTH 540 0
DWIDTH 6 0
BBX 6 10 1 -2
BITMAP
30
78
EC
F8
F0
F8
F8
D8
00
20
ENDCHAR
STARTCHAR 1E5E
ENCODING 7774
SWIDTH 540 0
DWIDTH 6 0
BBX 6 9 1 -1
BITMAP
30
78
EC
F8
F0
F8
F8
D8
60
ENDCHAR
STARTCHAR 1E5F
ENCODING 7775
SWIDTH 540 0
DWIDTH 6 0
BBX 6 9 1 -1
BITMAP
30
78
EC
F8
F0
F8
F8
D8
60
ENDCHAR
STARTCHAR 1E60
ENCODING 7776
SWIDTH 450 0
DWIDTH 5 0
BBX 7 9 0 0
BITMAP
08
0E
3C
3C
20
38
0C
F8
70
ENDCHAR
STARTCHAR 1E61
ENCODING 7777
SWIDTH 450 0
DWIDTH 5 0
BBX 7 9 0 0
BITMAP
08
0E
3C
3C
20
38
0C
F8
70
ENDCHAR
STARTCHAR 1E62
ENCODING 7778
SWIDTH 450 0
DWIDTH 5 0
BBX 7 10 0 -2
BITMAP
0E
3C
3C
20
38
0C
F8
70
00
20
ENDCHAR
STARTCHAR 1E63
ENCODING 7779
SWIDTH 450 0
DWIDTH 5 0
BBX 7 10 0 -2
BITMAP
0E
3C
3C
20
38
0C
F8
70
00
20
ENDCHAR
STARTCHAR 1E6A
ENCODING 7786
SWIDTH 540 0
DWIDTH 6 0
BBX 7 9 1 0
BITMAP
08
04
7E
FC
30
30
30
20
20
ENDCHAR
STARTCHAR 1E6B
ENCODING 7787
SWIDTH 540 0
DWIDTH 6 0
BBX 7 9 1 0
BITMAP
08
04
7E
FC
30
30
30
20
20
ENDCHAR
STARTCHAR 1E6C
ENCODING 7788
SWIDTH 540 0
DWIDTH 6 0
BBX 7 10 1 -2
BITMAP
04
7E
FC
30
30
30
20
20
00
60
ENDCHAR
STARTCHAR 1E6D
ENCODING 7789
SWIDTH 540 0
DWIDTH 6 0
BBX 7 10 1 -2
BITMAP
04
7E
FC
30
30
30
20
20
00
60
ENDCHAR
STARTCHAR 1E6E
ENCODING 7790
SWIDTH 540 0
DWIDTH 6 0
BBX 7 9 1 -1
BITMAP
04
7E
FC
30
30
30
20
20
60
ENDCHAR
STARTCHAR 1E6F
ENCODING 7791
SWIDTH 540 0
DWIDTH 6 0
BBX 7 9 1 -1
BITMAP
04
7E
FC
30
30
30
20
20
60
ENDCHAR
STARTCHAR 1E7C
ENCODING 7804
SWIDTH 540 0
DWIDTH 6 0
BBX 6 9 2 1
BITMAP
38
00
CC
D8
D8
70
70
70
20
ENDCHAR
STARTCHAR 1E7D
ENCODING 7805
SWIDTH 540 0
DWIDTH 6 0
BBX 6 9 2 1
BITMAP
38
00
CC
D8
D8
70
70
70
20
ENDCHAR
STARTCHAR 1E80
ENCODING 7808
SWIDTH 720 0
DWIDTH 8 0
BBX 7 10 2 0
BITMAP
30
10
00
D6
D6
FC
FC
F8
58
50
ENDCHAR
STARTCHAR 1E81
ENCODING 7809
SWIDTH 720 0
DWIDTH 8 0
BBX 7 10 2 0
BITMAP
30
10
00
D6
D6
FC
FC
F8
58
50
ENDCHAR
STARTCHAR 1E82
ENCODING 7810
SWIDTH 720 0
DWIDTH 8 0
BBX 7 10 2 0
BITMAP
0C
08
00
D6
D6
FC
FC
F8
58
50
ENDCHAR
STARTCHAR 1E83
ENCODING 7811
SWIDTH 720 0
DWIDTH 8 0
BBX 7 10 2 0
BITMAP
0C
08
00
D6
D6
FC
FC
F8
58
50
ENDCHAR
STARTCHAR 1E84
ENCODING 7812
SWIDTH 720 0
DWIDTH 8 0
BBX 7 9 2 0
BITMAP
28
00
D6
D6
FC
FC
F8
58
50
ENDCHAR
STARTCHAR 1E85
ENCODING 7813
SWIDTH 720 0
DWIDTH 8 0
BBX 7 9 2 0
BITMAP
28
00
D6
D6
FC
FC
F8
58
50
ENDCHAR
STARTCHAR 1E90
ENCODING 7824
SWIDTH 540 0
DWIDTH 6 0
BBX 6 9 1 1
BITMAP
38
18
7C
98
30
30
60
7C
38
ENDCHAR
STARTCHAR 1E91
ENCODING 7825
SWIDTH 540 0
DWIDTH 6 0
BBX 6 9 1 1
BITMAP
38
18
7C
98
30
30
60
7C
38
ENDCHAR
STARTCHAR 1E92
ENCODING 7826
SWIDTH 540 0
DWIDTH 6 0
BBX 6 10 1 -2
BITMAP
18
7C
98
30
30
60
7C
38
00
20
ENDCHAR
STARTCHAR 1E93
ENCODING 7827
SWIDTH 540 0
DWIDTH 6 0
BBX 6 10 1 -2
BITMAP
18
7C
98
30
30
60
7C
38
00
20
ENDCHAR
STARTCHAR 1E94
ENCODING 7828
SWIDTH 540 0
DWIDTH 6 0
BBX 6 9 1 -1
BITMAP
18
7C
98
30
30
60
7C
38
60
ENDCHAR
STARTCHAR 1E95
ENCODING 7829
SWIDTH 540 0
DWIDTH 6 0
BBX 6 9 1 -1
BITMAP
18
7C
98
30
30
60
7C
38
60
ENDCHAR
STARTCHAR 1E96
ENCODING 7830
SWIDTH 540 0
DWIDTH 6 0
BBX 7 9 0 -1
BITMAP
08
3E
36
3E
7E
6C
6C
EC
30
ENDCHAR
STARTCHAR 1E9B
ENCODING 7835
SWIDTH 360 0
DWIDTH 4 0
BBX 6 11 0 -2
BITMAP
18
18
3C
60
60
60
60
60
40
C0
40
ENDCHAR
STARTCHAR 1E9C
ENCODING 7836
SWIDTH 450 0
DWIDTH 5 0
BBX 6 10 0 -2
BITMAP
1C
3C
30
28
38
70
E0
60
60
40
ENDCHAR
STARTCHAR 1E9D
ENCODING 7837
SWIDTH 450 0
DWIDTH 5 0
BBX 5 10 1 -2
BITMAP
38
78
60
F0
40
C0
C0
C0
C0
80
ENDCHAR
STARTCHAR 1E9E
ENCODING 7838
SWIDTH 540 0
DWIDTH 6 0
BBX 6 9 1 -1
BITMAP
30
78
D8
D0
F8
CC
98
B8
80
ENDCHAR
STARTCHAR 1EA0
ENCODING 7840
SWIDTH 630 0
DWIDTH 7 0
BBX 6 9 1 -1
BITMAP
18
18
38
78
58
F8
9C
00
40
ENDCHAR
STARTCHAR 1EA1
ENCODING 7841
SWIDTH 630 0
DWIDTH 7 0
BBX 6 9 1 -1
BITMAP
18
18
38
78
58
F8
9C
00
40
ENDCHAR
STARTCHAR 1EA2
ENCODING 7842
SWIDTH 630 0
DWIDTH 7 0
BBX 6 10 1 0
BITMAP
0C
0C
00
18
18
38
78
58
F8
9C
ENDCHAR
STARTCHAR 1EA3
ENCODING 7843
SWIDTH 630 0
DWIDTH 7 0
BBX 6 10 1 0
BITMAP
0C
0C
00
18
18
38
78
58
F8
9C
ENDCHAR
STARTCHAR 1EA4
ENCODING 7844
SWIDTH 630 0
DWIDTH 7 0
BBX 7 10 1 0
BITMAP
02
0C
10
18
18
38
78
58
F8
9C
ENDCHAR
STARTCHAR 1EA5
ENCODING 7845
SWIDTH 630 0
DWIDTH 7 0
BBX 7 10 1 0
BITMAP
02
0C
10
18
18
38
78
58
F8
9C
ENDCHAR
STARTCHAR 1EA6
ENCODING 7846
SWIDTH 630 0
DWIDTH 7 0
BBX 6 10 1 0
BITMAP
10
0C
10
18
18
38
78
58
F8
9C
ENDCHAR
STARTCHAR 1EA7
ENCODING 7847
SWIDTH 630 0
DWIDTH 7 0
BBX 6 10 1 0
BITMAP
10
0C
10
18
18
38
78
58
F8
9C
ENDCHAR
STARTCHAR 1EA8
ENCODING 7848
SWIDTH 630 0
DWIDTH 7 0
BBX 7 10 1 0
BITMAP
02
0C
10
18
18
38
78
58
F8
9C
ENDCHAR
STARTCHAR 1EA9
ENCODING 7849
SWIDTH 630 0
DWIDTH 7 0
BBX 7 10 1 0
BITMAP
02
0C
10
18
18
38
78
58
F8
9C
ENDCHAR
STARTCHAR 1EAA
ENCODING 7850
SWIDTH 630 0
DWIDTH 7 0
BBX 6 10 1 0
BITMAP
1C
0C
10
18
18
38
78
58
F8
9C
ENDCHAR
STARTCHAR 1EAB
ENCODING 7851
SWIDTH 630 0
DWIDTH 7 0
BBX 6 10 1 0
BITMAP
1C
0C
10
18
18
38
78
58
F8
9C
ENDCHAR
STARTCHAR 1EAC
ENCODING 7852
SWIDTH 630 0
DWIDTH 7 0
BBX 6 12 1 -2
BITMAP
08
1C
00
18
18
38
78
58
F8
9C
00
40
ENDCHAR
STARTCHAR 1EAD
ENCODING 7853
SWIDTH 630 0
DWIDTH 7 0
BBX 6 12 1 -2
BITMAP
08
1C
00
18
18
38
78
58
F8
9C
00
40
ENDCHAR
STARTCHAR 1EAE
ENCODING 7854
SWIDTH 630 0
DWIDTH 7 0
BBX 6 10 1 0
BITMAP
0C
14
08
18
18
38
78
58
F8
9C
ENDCHAR
STARTCHAR 1EAF
ENCODING 7855
SWIDTH 630 0
DWIDTH 7 0
BBX 6 10 1 0
BITMAP
0C
14
08
18
18
38
78
58
F8
9C
ENDCHAR
STARTCHAR 1EB0
ENCODING 7856
SWIDTH 630 0
DWIDTH 7 0
BBX 6 10 1 0
BITMAP
08
14
08
18
18
38
78
58
F8
9C
ENDCHAR
STARTCHAR 1EB1
ENCODING 7857
SWIDTH 630 0
DWIDTH 7 0
BBX 6 10 1 0
BITMAP
08
14
08
18
18
38
78
58
F8
9C
ENDCHAR
STARTCHAR 1EB2
ENCODING 7858
SWIDTH 630 0
DWIDTH 7 0
BBX 6 10 1 0
BITMAP
04
14
08
18
18
38
78
58
F8
9C
ENDCHAR
STARTCHAR 1EB3
ENCODING 7859
SWIDTH 630 0
DWIDTH 7 0
BBX 6 10 1 0
BITMAP
04
14
08
18
18
38
78
58
F8
9C
ENDCHAR
STARTCHAR 1EB4
ENCODING 7860
SWIDTH 630 0
DWIDTH 7 0
BBX 6 10 1 0
BITMAP
1C
14
08
18
18
38
78
58
F8
9C
ENDCHAR
STARTCHAR 1EB5
ENCODING 7861
SWIDTH 630 0
DWIDTH 7 0
BBX 6 10 1 0
BITMAP
1C
14
08
18
18
38
78
58
F8
9C
ENDCHAR
STARTCHAR 1EB6
ENCODING 7862
SWIDTH 630 0
DWIDTH 7 0
BBX 6 12 1 -2
BITMAP
14
1C
00
18
18
38
78
58
F8
9C
00
40
ENDCHAR
STARTCHAR 1EB7
ENCODING 7863
SWIDTH 630 0
DWIDTH 7 0
BBX 6 12 1 -2
BITMAP
14
1C
00
18
18
38
78
58
F8
9C
00
40
ENDCHAR
STARTCHAR 1EB8
ENCODING 7864
SWIDTH 450 0
DWIDTH 5 0
BBX 5 10 1 -2
BITMAP
78
70
70
70
70
78
78
E0
00
40
ENDCHAR
STARTCHAR 1EB9
ENCODING 7865
SWIDTH 450 0
DWIDTH 5 0
BBX 5 10 1 -2
BITMAP
78
70
70
70
70
78
78
E0
00
40
ENDCHAR
STARTCHAR 1EBA
ENCODING 7866
SWIDTH 450 0
DWIDTH 5 0
BBX 5 10 1 0
BITMAP
30
30
78
70
70
70
70
78
78
E0
ENDCHAR
STARTCHAR 1EBB
ENCODING 7867
SWIDTH 450 0
DWIDTH 5 0
BBX 5 10 1 0
BITMAP
30
30
78
70
70
70
70
78
78
E0
ENDCHAR
STARTCHAR 1EBC
ENCODING 7868
SWIDTH 450 0
DWIDTH 5 0
BBX 5 10 1 0
BITMAP
10
70
78
70
70
70
70
78
78
E0
ENDCHAR
STARTCHAR 1EBD
ENCODING 7869
SWIDTH 450 0
DWIDTH 5 0
BBX 5 10 1 0
BITMAP
10
70
78
70
70
70
70
78
78
E0
ENDCHAR
STARTCHAR 1EBE
ENCODING 7870
SWIDTH 450 0
DWIDTH 5 0
BBX 5 10 1 0
BITMAP
08
30
78
70
70
70
70
78
78
E0
ENDCHAR
STARTCHAR 1EBF
ENCODING 7871
SWIDTH 450 0
DWIDTH 5 0
BBX 5 10 1 0
BITMAP
08
30
78
70
70
70
70
78
78
E0
ENDCHAR
STARTCHAR 1EC0
ENCODING 7872
SWIDTH 450 0
DWIDTH 5 0
BBX 5 10 1 0
BITMAP
40
30
78
70
70
70
70
78
78
E0
ENDCHAR
STARTCHAR 1EC1
ENCODING 7873
SWIDTH 450 0
DWIDTH 5 0
BBX 5 10 1 0
BITMAP
40
30
78
70
70
70
70
78
78
E0
ENDCHAR
STARTCHAR 1EC2
ENCODING 7874
SWIDTH 450 0
DWIDTH 5 0
BBX 6 10 1 0
BITMAP
0C
30
78
70
70
70
70
78
78
E0
ENDCHAR
STARTCHAR 1EC3
ENCODING 7875
SWIDTH 450 0
DWIDTH 5 0
BBX 6 10 1 0
BITMAP
0C
30
78
70
70
70
70
78
78
E0
ENDCHAR
STARTCHAR 1EC4
ENCODING 7876
SWIDTH 450 0
DWIDTH 5 0
BBX 5 10 1 0
BITMAP
78
30
78
70
70
70
70
78
78
E0
ENDCHAR
STARTCHAR 1EC5
ENCODING 7877
SWIDTH 450 0
DWIDTH 5 0
BBX 5 10 1 0
BITMAP
78
30
78
70
70
70
70
78
78
E0
ENDCHAR
STARTCHAR 1EC6
ENCODING 7878
SWIDTH 450 0
DWIDTH 5 0
BBX 5 12 1 -2
BITMAP
20
70
78
70
70
70
70
78
78
E0
00
40
ENDCHAR
STARTCHAR 1EC7
ENCODING 7879
SWIDTH 450 0
DWIDTH 5 0
BBX 5 12 1 -2
BITMAP
20
70
78
70
70
70
70
78
78
E0
00
40
ENDCHAR
STARTCHAR 1EC8
ENCODING 7880
SWIDTH 270 0
DWIDTH 3 0
BBX 4 10 1 0
BITMAP
10
30
00
70
60
60
E0
E0
C0
C0
ENDCHAR
STARTCHAR 1EC9
ENCODING 7881
SWIDTH 270 0
DWIDTH 3 0
BBX 4 10 1 0
BITMAP
10
30
00
70
60
60
E0
E0
C0
C0
ENDCHAR
STARTCHAR 1ECA
ENCODING 7882
SWIDTH 270 0
DWIDTH 3 0
BBX 4 9 1 -1
BITMAP
70
60
60
E0
E0
C0
C0
00
80
ENDCHAR
STARTCHAR 1ECB
ENCODING 7883
SWIDTH 270 0
DWIDTH 3 0
BBX 4 9 1 -1
BITMAP
70
60
60
E0
E0
C0
C0
00
80
ENDCHAR
STARTCHAR 1ECC
ENCODING 7884
SWIDTH 450 0
DWIDTH 5 0
BBX 6 10 1 -2
BITMAP
30
78
78
CC
DC
F8
F8
70
00
40
ENDCHAR
STARTCHAR 1ECD
ENCODING 7885
SWIDTH 450 0
DWIDTH 5 0
BBX 6 10 1 -2
BITMAP
30
78
78
CC
DC
F8
F8
70
00
40
ENDCHAR
STARTCHAR 1ECE
ENCODING 7886
SWIDTH 450 0
DWIDTH 5 0
BBX 6 10 1 0
BITMAP
38
30
30
78
78
CC
DC
F8
F8
70
ENDCHAR
STARTCHAR 1ECF
ENCODING 7887
SWIDTH 450 0
DWIDTH 5 0
BBX 6 10 1 0
BITMAP
38
30
30
78
78
CC
DC
F8
F8
70
ENDCHAR
STARTCHAR 1ED0
ENCODING 7888
SWIDTH 450 0
DWIDTH 5 0
BBX 6 10 1 0
BITMAP
0C
30
30
78
78
CC
DC
F8
F8
70
ENDCHAR
STARTCHAR 1ED1
ENCODING 7889
SWIDTH 450 0
DWIDTH 5 0
BBX 6 10 1 0
BITMAP
0C
30
30
78
78
CC
DC
F8
F8
70
ENDCHAR
STARTCHAR 1ED2
ENCODING 7890
SWIDTH 450 0
DWIDTH 5 0
BBX 6 10 1 0
BITMAP
40
30
30
78
78
CC
DC
F8
F8
70
ENDCHAR
STARTCHAR 1ED3
ENCODING 7891
SWIDTH 450 0
DWIDTH 5 0
BBX 6 10 1 0
BITMAP
40
30
30
78
78
CC
DC
F8
F8
70
ENDCHAR
STARTCHAR 1ED4
ENCODING 7892
SWIDTH 450 0
DWIDTH 5 0
BBX 6 10 1 0
BITMAP
0C
30
30
78
78
CC
DC
F8
F8
70
ENDCHAR
STARTCHAR 1ED5
ENCODING 7893
SWIDTH 450 0
DWIDTH 5 0
BBX 6 10 1 0
BITMAP
0C
30
30
78
78
CC
DC
F8
F8
70
ENDCHAR
STARTCHAR 1ED6
ENCODING 7894
SWIDTH 450 0
DWIDTH 5 0
BBX 6 10 1 0
BITMAP
38
30
30
78
78
CC
DC
F8
F8
70
ENDCHAR
STARTCHAR 1ED7
ENCODING 7895
SWIDTH 450 0
DWIDTH 5 0
BBX 6 10 1 0
BITMAP
38
30
30
78
78
CC
DC
F8
F8
70
ENDCHAR
STARTCHAR 1ED8
ENCODING 7896
SWIDTH 450 0
DWIDTH 5 0
BBX 6 12 1 -2
BITMAP
10
78
30
78
78
CC
DC
F8
F8
70
00
40
ENDCHAR
STARTCHAR 1ED9
ENCODING 7897
SWIDTH 450 0
DWIDTH 5 0
BBX 6 12 1 -2
BITMAP
10
78
30
78
78
CC
DC
F8
F8
70
00
40
ENDCHAR
STARTCHAR 1EDA
ENCODING 7898
SWIDTH 540 0
DWIDTH 6 0
BBX 7 10 1 0
BITMAP
08
10
36
7C
7C
CC
DC
F8
F8
70
ENDCHAR
STARTCHAR 1EDB
ENCODING 7899
SWIDTH 540 0
DWIDTH 6 0
BBX 7 10 1 0
BITMAP
08
10
36
7C
7C
CC
DC
F8
F8
70
ENDCHAR
STARTCHAR 1EDC
ENCODING 7900
SWIDTH 540 0
DWIDTH 6 0
BBX 7 10 1 0
BITMAP
60
20
36
7C
7C
CC
DC
F8
F8
70
ENDCHAR
STARTCHAR 1EDD
ENCODING 7901
SWIDTH 540 0
DWIDTH 6 0
BBX 7 10 1 0
BITMAP
60
20
36
7C
7C
CC
DC
F8
F8
70
ENDCHAR
STARTCHAR 1EDE
ENCODING 7902
SWIDTH 540 0
DWIDTH 6 0
BBX 7 10 1 0
BITMAP
38
30
36
7C
7C
CC
DC
F8
F8
70
ENDCHAR
STARTCHAR 1EDF
ENCODING 7903
SWIDTH 540 0
DWIDTH 6 0
BBX 7 10 1 0
BITMAP
38
30
36
7C
7C
CC
DC
F8
F8
70
ENDCHAR
STARTCHAR 1EE0
ENCODING 7904
SWIDTH 540 0
DWIDTH 6 0
BBX 7 10 1 0
BITMAP
08
70
36
7C
7C
CC
DC
F8
F8
70
ENDCHAR
STARTCHAR 1EE1
ENCODING 7905
SWIDTH 540 0
DWIDTH 6 0
BBX 7 10 1 0
BITMAP
08
70
36
7C
7C
CC
DC
F8
F8
70
ENDCHAR
STARTCHAR 1EE2
ENCODING 7906
SWIDTH 540 0
DWIDTH 6 0
BBX 7 10 1 -2
BITMAP
36
7C
7C
CC
DC
F8
F8
70
00
40
ENDCHAR
STARTCHAR 1EE3
ENCODING 7907
SWIDTH 540 0
DWIDTH 6 0
BBX 7 10 1 -2
BITMAP
36
7C
7C
CC
DC
F8
F8
70
00
40
ENDCHAR
STARTCHAR 1EE4
ENCODING 7908
SWIDTH 540 0
DWIDTH 6 0
BBX 6 9 1 -1
BITMAP
64
4C
CC
CC
F8
F0
60
00
40
ENDCHAR
STARTCHAR 1EE5
ENCODING 7909
SWIDTH 540 0
DWIDTH 6 0
BBX 6 9 1 -1
BITMAP
64
4C
CC
CC
F8
F0
60
00
40
ENDCHAR
STARTCHAR 1EE6
ENCODING 7910
SWIDTH 540 0
DWIDTH 6 0
BBX 6 10 1 0
BITMAP
08
0C
00
64
4C
CC
CC
F8
F0
60
ENDCHAR
STARTCHAR 1EE7
ENCODING 7911
SWIDTH 540 0
DWIDTH 6 0
BBX 6 10 1 0
BITMAP
08
0C
00
64
4C
CC
CC
F8
F0
60
ENDCHAR
STARTCHAR 1EE8
ENCODING 7912
SWIDTH 540 0
DWIDTH 6 0
BBX 7 10 1 0
BITMAP
0C
18
02
4A
CE
C8
D8
F8
F0
60
ENDCHAR
STARTCHAR 1EE9
ENCODING 7913
SWIDTH 540 0
DWIDTH 6 0
BBX 7 10 1 0
BITMAP
0C
18
02
4A
CE
C8
D8
F8
F0
60
ENDCHAR
STARTCHAR 1EEA
ENCODING 7914
SWIDTH 540 0
DWIDTH 6 0
BBX 7 10 1 0
BITMAP
20
30
02
4A
CE
C8
D8
F8
F0
60
ENDCHAR
STARTCHAR 1EEB
ENCODING 7915
SWIDTH 540 0
DWIDTH 6 0
BBX 7 10 1 0
BITMAP
20
30
02
4A
CE
C8
D8
F8
F0
60
ENDCHAR
STARTCHAR 1EEC
ENCODING 7916
SWIDTH 540 0
DWIDTH 6 0
BBX 7 9 1 1
BITMAP
18
02
4A
CE
C8
D8
F8
F0
60
ENDCHAR
STARTCHAR 1EED
ENCODING 7917
SWIDTH 540 0
DWIDTH 6 0
BBX 7 9 1 1
BITMAP
18
02
4A
CE
C8
D8
F8
F0
60
ENDCHAR
STARTCHAR 1EEE
ENCODING 7918
SWIDTH 540 0
DWIDTH 6 0
BBX 7 9 1 1
BITMAP
38
02
4A
CE
C8
D8
F8
F0
60
ENDCHAR
STARTCHAR 1EEF
ENCODING 7919
SWIDTH 540 0
DWIDTH 6 0
BBX 7 9 1 1
BITMAP
38
02
4A
CE
C8
D8
F8
F0
60
ENDCHAR
STARTCHAR 1EF0
ENCODING 7920
SWIDTH 540 0
DWIDTH 6 0
BBX 7 10 1 -2
BITMAP
02
4A
CE
C8
D8
F8
F0
60
00
40
ENDCHAR
STARTCHAR 1EF1
ENCODING 7921
SWIDTH 540 0
DWIDTH 6 0
BBX 7 10 1 -2
BITMAP
02
4A
CE
C8
D8
F8
F0
60
00
40
ENDCHAR
STARTCHAR 1EF2
ENCODING 7922
SWIDTH 540 0
DWIDTH 6 0
BBX 6 10 2 0
BITMAP
20
20
04
CC
D8
F0
70
60
60
60
ENDCHAR
STARTCHAR 1EF3
ENCODING 7923
SWIDTH 540 0
DWIDTH 6 0
BBX 6 10 2 0
BITMAP
20
20
04
CC
D8
F0
70
60
60
60
ENDCHAR
STARTCHAR 1EF4
ENCODING 7924
SWIDTH 540 0
DWIDTH 6 0
BBX 6 10 2 -2
BITMAP
04
CC
D8
F0
70
60
60
60
00
40
ENDCHAR
STARTCHAR 1EF5
ENCODING 7925
SWIDTH 540 0
DWIDTH 6 0
BBX 6 10 2 -2
BITMAP
04
CC
D8
F0
70
60
60
60
00
40
ENDCHAR
STARTCHAR 1EF6
ENCODING 7926
SWIDTH 540 0
DWIDTH 6 0
BBX 6 10 2 0
BITMAP
18
18
04
CC
D8
F0
70
60
60
60
ENDCHAR
STARTCHAR 1EF7
ENCODING 7927
SWIDTH 540 0
DWIDTH 6 0
BBX 6 10 2 0
BITMAP
18
18
04
CC
D8
F0
70
60
60
60
ENDCHAR
STARTCHAR 1EF8
ENCODING 7928
SWIDTH 540 0
DWIDTH 6 0
BBX 6 9 2 1
BITMAP
38
04
CC
D8
F0
70
60
60
60
ENDCHAR
STARTCHAR 1EF9
ENCODING 7929
SWIDTH 540 0
DWIDTH 6 0
BBX 6 9 2 1
BITMAP
38
04
CC
D8
F0
70
60
60
60
ENDCHAR
STARTCHAR 1F70
ENCODING 8048
SWIDTH 630 0
DWIDTH 7 0
BBX 6 8 1 0
BITMAP
20
38
18
38
78
58
F8
9C
ENDCHAR
STARTCHAR 1F72
ENCODING 8050
SWIDTH 540 0
DWIDTH 6 0
BBX 5 8 2 0
BITMAP
B8
F8
70
70
70
78
78
70
ENDCHAR
STARTCHAR 1F74
ENCODING 8052
SWIDTH 630 0
DWIDTH 7 0
BBX 7 8 1 0
BITMAP
40
76
36
3E
7C
6C
6C
EC
ENDCHAR
STARTCHAR 1F76
ENCODING 8054
SWIDTH 360 0
DWIDTH 4 0
BBX 4 8 1 0
BITMAP
40
70
30
70
70
60
60
E0
ENDCHAR
STARTCHAR 1F78
ENCODING 8056
SWIDTH 540 0
DWIDTH 6 0
BBX 6 8 1 0
BITMAP
50
78
7C
6C
EC
FC
78
70
ENDCHAR
STARTCHAR 1F7A
ENCODING 8058
SWIDTH 720 0
DWIDTH 8 0
BBX 7 8 2 0
BITMAP
82
E6
6C
68
38
30
30
30
ENDCHAR
STARTCHAR 1F7C
ENCODING 8060
SWIDTH 630 0
DWIDTH 7 0
BBX 7 8 1 0
BITMAP
5C
7E
76
66
46
64
EE
EC
ENDCHAR
STARTCHAR 1FBA
ENCODING 8122
SWIDTH 630 0
DWIDTH 7 0
BBX 6 8 1 0
BITMAP
20
38
18
38
78
58
F8
9C
ENDCHAR
STARTCHAR 1FC0
ENCODING 8128
SWIDTH 270 0
DWIDTH 3 0
BBX 3 1 2 9
BITMAP
E0
ENDCHAR
STARTCHAR 1FC6
ENCODING 8134
SWIDTH 540 0
DWIDTH 6 0
BBX 7 9 0 1
BITMAP
0E
08
3E
36
3E
7E
6C
6C
EC
ENDCHAR
STARTCHAR 1FC8
ENCODING 8136
SWIDTH 540 0
DWIDTH 6 0
BBX 5 8 2 0
BITMAP
B8
F8
70
70
70
78
78
70
ENDCHAR
STARTCHAR 1FCA
ENCODING 8138
SWIDTH 630 0
DWIDTH 7 0
BBX 7 8 1 0
BITMAP
40
76
36
3E
7C
6C
6C
EC
ENDCHAR
STARTCHAR 1FDA
ENCODING 8154
SWIDTH 360 0
DWIDTH 4 0
BBX 4 8 1 0
BITMAP
40
70
30
70
70
60
60
E0
ENDCHAR
STARTCHAR 1FEA
ENCODING 8170
SWIDTH 720 0
DWIDTH 8 0
BBX 7 8 2 0
BITMAP
82
E6
6C
68
38
30
30
30
ENDCHAR
STARTCHAR 1FEF
ENCODING 8175
SWIDTH 90 0
DWIDTH 1 0
BBX 1 2 2 6
BITMAP
80
80
ENDCHAR
STARTCHAR 1FF6
ENCODING 8182
SWIDTH 540 0
DWIDTH 6 0
BBX 8 10 0 0
BITMAP
08
1C
1C
3E
37
62
62
66
6E
EE
ENDCHAR
STARTCHAR 1FF8
ENCODING 8184
SWIDTH 540 0
DWIDTH 6 0
BBX 6 8 1 0
BITMAP
50
78
7C
6C
EC
FC
78
70
ENDCHAR
STARTCHAR 1FFA
ENCODING 8186
SWIDTH 630 0
DWIDTH 7 0
BBX 7 8 1 0
BITMAP
5C
7E
76
66
46
64
EE
EC
ENDCHAR
STARTCHAR 200B
ENCODING 8203
SWIDTH 0 0
DWIDTH 0 0
BBX 0 0 0 0
BITMAP
ENDCHAR
STARTCHAR 2010
ENCODING 8208
SWIDTH 270 0
DWIDTH 3 0
BBX 3 2 1 3
BITMAP
E0
E0
ENDCHAR
STARTCHAR 2011
ENCODING 8209
SWIDTH 360 0
DWIDTH 4 0
BBX 4 2 1 3
BITMAP
F0
F0
ENDCHAR
STARTCHAR 2012
ENCODING 8210
SWIDTH 450 0
DWIDTH 5 0
BBX 5 2 1 3
BITMAP
F8
F8
ENDCHAR
STARTCHAR 2013
ENCODING 8211
SWIDTH 450 0
DWIDTH 5 0
BBX 5 2 1 3
BITMAP
F8
F8
ENDCHAR
STARTCHAR 2014
ENCODING 8212
SWIDTH 540 0
DWIDTH 6 0
BBX 6 2 1 3
BITMAP
FC
FC
ENDCHAR
STARTCHAR 2015
ENCODING 8213
SWIDTH 630 0
DWIDTH 7 0
BBX 8 2 1 3
BITMAP
FF
FE
ENDCHAR
STARTCHAR 2016
ENCODING 8214
SWIDTH 180 0
DWIDTH 2 0
BBX 5 11 0 -2
BITMAP
28
30
30
50
50
60
60
60
A0
A0
C0
ENDCHAR
STARTCHAR 2017
ENCODING 8215
SWIDTH 360 0
DWIDTH 4 0
BBX 4 3 0 -2
BITMAP
F0
10
F0
ENDCHAR
STARTCHAR 2018
ENCODING 8216
SWIDTH 180 0
DWIDTH 2 0
BBX 3 4 1 4
BITMAP
60
40
C0
C0
ENDCHAR
STARTCHAR 2019
ENCODING 8217
SWIDTH 180 0
DWIDTH 2 0
BBX 3 4 1 4
BITMAP
60
60
C0
80
ENDCHAR
STARTCHAR 201A
ENCODING 8218
SWIDTH 180 0
DWIDTH 2 0
BBX 2 4 0 -2
BITMAP
40
C0
C0
80
ENDCHAR
STARTCHAR 201B
ENCODING 8219
SWIDTH 180 0
DWIDTH 2 0
BBX 2 4 2 4
BITMAP
C0
80
80
80
ENDCHAR
STARTCHAR 201C
ENCODING 8220
SWIDTH 360 0
DWIDTH 4 0
BBX 5 4 1 4
BITMAP
78
58
F0
F0
ENDCHAR
STARTCHAR 201D
ENCODING 8221
SWIDTH 360 0
DWIDTH 4 0
BBX 5 4 1 4
BITMAP
78
78
F0
A0
ENDCHAR
STARTCHAR 201E
ENCODING 8222
SWIDTH 360 0
DWIDTH 4 0
BBX 5 4 0 -2
BITMAP
58
D0
F0
A0
ENDCHAR
STARTCHAR 201F
ENCODING 8223
SWIDTH 360 0
DWIDTH 4 0
BBX 4 4 2 4
BITMAP
F0
A0
A0
A0
ENDCHAR
STARTCHAR 2020
ENCODING 8224
SWIDTH 450 0
DWIDTH 5 0
BBX 5 10 2 -2
BITMAP
20
60
F8
60
40
40
C0
C0
C0
80
ENDCHAR
STARTCHAR 2021
ENCODING 8225
SWIDTH 450 0
DWIDTH 5 0
BBX 7 11 0 -2
BITMAP
08
1C
3E
18
10
10
30
F8
F8
20
20
ENDCHAR
STARTCHAR 2022
ENCODING 8226
SWIDTH 270 0
DWIDTH 3 0
BBX 3 3 1 2
BITMAP
E0
E0
C0
ENDCHAR
STARTCHAR 2023
ENCODING 8227
SWIDTH 270 0
DWIDTH 3 0
BBX 3 3 1 2
BITMAP
E0
E0
80
ENDCHAR
STARTCHAR 2024
ENCODING 8228
SWIDTH 180 0
DWIDTH 2 0
BBX 2 2 0 0
BITMAP
40
C0
ENDCHAR
STARTCHAR 2025
ENCODING 8229
SWIDTH 360 0
DWIDTH 4 0
BBX 4 2 0 0
BITMAP
50
D0
ENDCHAR
STARTCHAR 2026
ENCODING 8230
SWIDTH 540 0
DWIDTH 6 0
BBX 7 2 0 0
BITMAP
56
D4
ENDCHAR
STARTCHAR 2027
ENCODING 8231
SWIDTH 180 0
DWIDTH 2 0
BBX 2 2 1 3
BITMAP
C0
C0
ENDCHAR
STARTCHAR 202F
ENCODING 8239
SWIDTH 90 0
DWIDTH 1 0
BBX 0 0 0 0
BITMAP
ENDCHAR
STARTCHAR 2030
ENCODING 8240
SWIDTH 630 0
DWIDTH 7 0
BBX 7 8 1 0
BITMAP
04
6C
A8
50
2C
5A
DC
80
ENDCHAR
STARTCHAR 2031
ENCODING 8241
SWIDTH 720 0
DWIDTH 8 0
BBX 7 8 1 0
BITMAP
04
6C
A8
50
2E
5E
DE
80
ENDCHAR
STARTCHAR 2039
ENCODING 8249
SWIDTH 180 0
DWIDTH 2 0
BBX 3 5 1 0
BITMAP
20
C0
80
C0
40
ENDCHAR
STARTCHAR 203A
ENCODING 8250
SWIDTH 180 0
DWIDTH 2 0
BBX 3 5 0 0
BITMAP
40
60
20
40
80
ENDCHAR
STARTCHAR 203C
ENCODING 8252
SWIDTH 450 0
DWIDTH 5 0
BBX 6 8 1 0
BITMAP
7C
78
58
D8
D0
00
90
90
ENDCHAR
STARTCHAR 203E
ENCODING 8254
SWIDTH 360 0
DWIDTH 4 0
BBX 4 1 2 8
BITMAP
F0
ENDCHAR
STARTCHAR 2043
ENCODING 8259
SWIDTH 270 0
DWIDTH 3 0
BBX 3 2 1 3
BITMAP
E0
E0
ENDCHAR
STARTCHAR 2044
ENCODING 8260
SWIDTH 360 0
DWIDTH 4 0
BBX 6 8 0 0
BITMAP
0C
0C
18
10
30
20
40
C0
ENDCHAR
STARTCHAR 2045
ENCODING 8261
SWIDTH 270 0
DWIDTH 3 0
BBX 6 11 0 -2
BITMAP
3C
30
20
60
60
70
40
40
C0
F0
E0
ENDCHAR
STARTCHAR 2046
ENCODING 8262
SWIDTH 270 0
DWIDTH 3 0
BBX 6 11 0 -2
BITMAP
3C
38
18
18
18
70
10
30
30
F0
C0
ENDCHAR
STARTCHAR 2047
ENCODING 8263
SWIDTH 630 0
DWIDTH 7 0
BBX 8 8 1 0
BITMAP
77
77
33
26
44
40
08
88
ENDCHAR
STARTCHAR 2048
ENCODING 8264
SWIDTH 540 0
DWIDTH 6 0
BBX 7 8 1 0
BITMAP
76
76
3C
2C
4C
40
08
88
ENDCHAR
STARTCHAR 2049
ENCODING 8265
SWIDTH 540 0
DWIDTH 6 0
BBX 7 8 1 0
BITMAP
6E
7E
46
CC
D8
10
90
90
ENDCHAR
STARTCHAR 204B
ENCODING 8267
SWIDTH 360 0
DWIDTH 4 0
BBX 6 9 0 -1
BITMAP
38
3C
58
58
50
70
60
A0
A0
ENDCHAR
STARTCHAR 204F
ENCODING 8271
SWIDTH 180 0
DWIDTH 2 0
BBX 3 7 0 -2
BITMAP
60
00
00
40
C0
40
40
ENDCHAR
STARTCHAR 2052
ENCODING 8274
SWIDTH 450 0
DWIDTH 5 0
BBX 7 8 0 0
BITMAP
02
24
6C
18
10
2C
48
80
ENDCHAR
STARTCHAR 2070
ENCODING 8304
SWIDTH 180 0
DWIDTH 2 0
BBX 3 4 1 4
BITMAP
40
60
C0
40
ENDCHAR
STARTCHAR 2074
ENCODING 8308
SWIDTH 180 0
DWIDTH 2 0
BBX 3 3 1 5
BITMAP
40
E0
40
ENDCHAR
STARTCHAR 2075
ENCODING 8309
SWIDTH 180 0
DWIDTH 2 0
BBX 3 4 1 4
BITMAP
60
40
20
E0
ENDCHAR
STARTCHAR 2076
ENCODING 8310
SWIDTH 180 0
DWIDTH 2 0
BBX 3 4 1 4
BITMAP
20
40
A0
E0
ENDCHAR
STARTCHAR 2077
ENCODING 8311
SWIDTH 180 0
DWIDTH 2 0
BBX 3 4 1 4
BITMAP
20
60
40
C0
ENDCHAR
STARTCHAR 2078
ENCODING 8312
SWIDTH 180 0
DWIDTH 2 0
BBX 3 4 1 4
BITMAP
60
40
A0
E0
ENDCHAR
STARTCHAR 2079
ENCODING 8313
SWIDTH 180 0
DWIDTH 2 0
BBX 3 3 1 4
BITMAP
E0
60
C0
ENDCHAR
STARTCHAR 2080
ENCODING 8320
SWIDTH 180 0
DWIDTH 2 0
BBX 2 4 1 0
BITMAP
80
C0
C0
80
ENDCHAR
STARTCHAR 2081
ENCODING 8321
SWIDTH 180 0
DWIDTH 2 0
BBX 2 4 1 0
BITMAP
C0
40
80
80
ENDCHAR
STARTCHAR 2082
ENCODING 8322
SWIDTH 270 0
DWIDTH 3 0
BBX 3 4 0 0
BITMAP
60
20
60
E0
ENDCHAR
STARTCHAR 2083
ENCODING 8323
SWIDTH 180 0
DWIDTH 2 0
BBX 3 4 0 0
BITMAP
60
40
20
C0
ENDCHAR
STARTCHAR 2084
ENCODING 8324
SWIDTH 180 0
DWIDTH 2 0
BBX 1 4 1 0
BITMAP
80
80
80
80
ENDCHAR
STARTCHAR 2085
ENCODING 8325
SWIDTH 180 0
DWIDTH 2 0
BBX 3 4 0 0
BITMAP
60
60
20
E0
ENDCHAR
STARTCHAR 2086
ENCODING 8326
SWIDTH 180 0
DWIDTH 2 0
BBX 3 4 0 0
BITMAP
20
40
E0
E0
ENDCHAR
STARTCHAR 2087
ENCODING 8327
SWIDTH 180 0
DWIDTH 2 0
BBX 3 4 0 0
BITMAP
60
20
40
C0
ENDCHAR
STARTCHAR 2088
ENCODING 8328
SWIDTH 180 0
DWIDTH 2 0
BBX 3 4 0 0
BITMAP
60
60
A0
60
ENDCHAR
STARTCHAR 2089
ENCODING 8329
SWIDTH 180 0
DWIDTH 2 0
BBX 2 4 1 0
BITMAP
C0
C0
40
80
ENDCHAR
STARTCHAR 20A0
ENCODING 8352
SWIDTH 540 0
DWIDTH 6 0
BBX 6 8 1 0
BITMAP
30
78
C0
DC
F0
78
38
38
ENDCHAR
STARTCHAR 20A4
ENCODING 8356
SWIDTH 540 0
DWIDTH 6 0
BBX 7 8 0 0
BITMAP
04
1E
1E
7C
30
7C
7C
FC
ENDCHAR
STARTCHAR 20A6
ENCODING 8358
SWIDTH 450 0
DWIDTH 5 0
BBX 6 8 1 0
BITMAP
28
68
FC
78
70
F8
D0
F0
ENDCHAR
STARTCHAR 20A7
ENCODING 8359
SWIDTH 630 0
DWIDTH 7 0
BBX 9 8 0 0
BITMAP
1000
3000
7000
7F80
7E00
4900
CB00
CB00
ENDCHAR
STARTCHAR 20A8
ENCODING 8360
SWIDTH 540 0
DWIDTH 6 0
BBX 8 8 0 0
BITMAP
30
28
68
7F
74
72
5E
DE
ENDCHAR
STARTCHAR 20A9
ENCODING 8361
SWIDTH 630 0
DWIDTH 7 0
BBX 8 8 1 0
BITMAP
2A
7F
FF
7C
FE
68
68
40
ENDCHAR
STARTCHAR 20AA
ENCODING 8362
SWIDTH 540 0
DWIDTH 6 0
BBX 8 8 0 0
BITMAP
19
3D
67
67
5E
52
7E
DC
ENDCHAR
STARTCHAR 20AB
ENCODING 8363
SWIDTH 450 0
DWIDTH 5 0
BBX 7 8 0 0
BITMAP
0C
1E
3C
68
48
78
00
F8
ENDCHAR
STARTCHAR 20AC
ENCODING 8364
SWIDTH 540 0
DWIDTH 6 0
BBX 6 8 1 0
BITMAP
1C
3C
70
F8
60
F8
78
78
ENDCHAR
STARTCHAR 20AD
ENCODING 8365
SWIDTH 540 0
DWIDTH 6 0
BBX 6 7 1 1
BITMAP
6C
78
FC
FC
F0
D8
D8
ENDCHAR
STARTCHAR 20AE
ENCODING 8366
SWIDTH 450 0
DWIDTH 5 0
BBX 6 8 1 0
BITMAP
7C
78
30
78
20
F0
60
60
ENDCHAR
STARTCHAR 20B2
ENCODING 8370
SWIDTH 450 0
DWIDTH 5 0
BBX 6 10 1 -1
BITMAP
10
18
3C
70
60
B8
F8
F0
E0
40
ENDCHAR
STARTCHAR 20B4
ENCODING 8372
SWIDTH 450 0
DWIDTH 5 0
BBX 5 8 1 0
BITMAP
30
78
58
F8
F8
E0
70
70
ENDCHAR
STARTCHAR 20B5
ENCODING 8373
SWIDTH 450 0
DWIDTH 5 0
BBX 6 10 1 -1
BITMAP
18
18
7C
78
F0
F0
F8
F8
70
60
ENDCHAR
STARTCHAR 20B8
ENCODING 8376
SWIDTH 360 0
DWIDTH 4 0
BBX 5 8 1 0
BITMAP
78
78
00
F0
60
60
40
40
ENDCHAR
STARTCHAR 20B9
ENCODING 8377
SWIDTH 540 0
DWIDTH 6 0
BBX 7 8 1 0
BITMAP
7E
3C
FC
10
E0
60
20
30
ENDCHAR
STARTCHAR 20BA
ENCODING 8378
SWIDTH 540 0
DWIDTH 6 0
BBX 6 8 1 0
BITMAP
30
38
E0
70
EC
6C
78
30
ENDCHAR
STARTCHAR 20BD
ENCODING 8381
SWIDTH 450 0
DWIDTH 5 0
BBX 5 8 1 0
BITMAP
30
78
68
F8
F0
F0
F0
C0
ENDCHAR
STARTCHAR 20BF
ENCODING 8383
SWIDTH 540 0
DWIDTH 6 0
BBX 7 10 0 -1
BITMAP
1E
3C
3C
34
34
3C
34
6C
F8
58
ENDCHAR
STARTCHAR 20C0
ENCODING 8384
SWIDTH 450 0
DWIDTH 5 0
BBX 7 8 0 0
BITMAP
0C
3E
20
60
7C
3C
00
F8
ENDCHAR
STARTCHAR 2116
ENCODING 8470
SWIDTH 630 0
DWIDTH 7 0
BBX 8 8 0 0
BITMAP
20
2C
28
6B
7D
5E
50
D6
ENDCHAR
STARTCHAR 2117
ENCODING 8471
SWIDTH 630 0
DWIDTH 7 0
BBX 7 7 1 0
BITMAP
7E
5A
9A
B2
B6
CC
30
ENDCHAR
STARTCHAR 2120
ENCODING 8480
SWIDTH 630 0
DWIDTH 7 0
BBX 7 4 1 4
BITMAP
38
6A
6E
F6
ENDCHAR
STARTCHAR 2122
ENCODING 8482
SWIDTH 630 0
DWIDTH 7 0
BBX 6 4 2 4
BITMAP
D0
D4
9C
AC
ENDCHAR
STARTCHAR 2139
ENCODING 8505
SWIDTH 720 0
DWIDTH 8 0
BBX 10 8 0 0
BITMAP
3FC0
3B80
7380
7F80
6380
7700
C300
FF00
ENDCHAR
STARTCHAR 2150
ENCODING 8528
SWIDTH 540 0
DWIDTH 6 0
BBX 6 8 1 0
BITMAP
04
4C
48
50
2C
44
C8
98
ENDCHAR
STARTCHAR 2151
ENCODING 8529
SWIDTH 540 0
DWIDTH 6 0
BBX 6 8 1 0
BITMAP
04
4C
48
50
2C
54
C8
98
ENDCHAR
STARTCHAR 2152
ENCODING 8530
SWIDTH 720 0
DWIDTH 8 0
BBX 7 8 1 0
BITMAP
04
4C
48
50
2A
4E
CE
9E
ENDCHAR
STARTCHAR 2153
ENCODING 8531
SWIDTH 540 0
DWIDTH 6 0
BBX 6 8 1 0
BITMAP
04
4C
48
50
28
48
C8
98
ENDCHAR
STARTCHAR 2154
ENCODING 8532
SWIDTH 540 0
DWIDTH 6 0
BBX 6 8 1 0
BITMAP
44
2C
48
F0
28
48
C8
98
ENDCHAR
STARTCHAR 2155
ENCODING 8533
SWIDTH 540 0
DWIDTH 6 0
BBX 6 8 1 0
BITMAP
04
4C
48
50
2C
48
C8
98
ENDCHAR
STARTCHAR 2156
ENCODING 8534
SWIDTH 540 0
DWIDTH 6 0
BBX 6 8 1 0
BITMAP
44
2C
48
F0
2C
48
C8
98
ENDCHAR
STARTCHAR 2157
ENCODING 8535
SWIDTH 540 0
DWIDTH 6 0
BBX 6 8 1 0
BITMAP
04
4C
28
D0
2C
48
C8
98
ENDCHAR
STARTCHAR 2158
ENCODING 8536
SWIDTH 540 0
DWIDTH 6 0
BBX 6 8 1 0
BITMAP
04
4C
E8
50
2C
48
C8
98
ENDCHAR
STARTCHAR 2159
ENCODING 8537
SWIDTH 540 0
DWIDTH 6 0
BBX 6 8 1 0
BITMAP
04
4C
48
50
28
50
D8
98
ENDCHAR
STARTCHAR 215A
ENCODING 8538
SWIDTH 540 0
DWIDTH 6 0
BBX 6 8 1 0
BITMAP
64
4C
28
F0
28
50
D8
98
ENDCHAR
STARTCHAR 215B
ENCODING 8539
SWIDTH 540 0
DWIDTH 6 0
BBX 6 8 1 0
BITMAP
04
4C
48
50
28
48
D8
98
ENDCHAR
STARTCHAR 215C
ENCODING 8540
SWIDTH 540 0
DWIDTH 6 0
BBX 6 8 1 0
BITMAP
04
4C
28
D0
28
48
D8
98
ENDCHAR
STARTCHAR 215D
ENCODING 8541
SWIDTH 540 0
DWIDTH 6 0
BBX 6 8 1 0
BITMAP
64
4C
28
F0
28
48
D8
98
ENDCHAR
STARTCHAR 215E
ENCODING 8542
SWIDTH 540 0
DWIDTH 6 0
BBX 6 8 1 0
BITMAP
24
6C
48
D0
28
48
D8
98
ENDCHAR
STARTCHAR 215F
ENCODING 8543
SWIDTH 540 0
DWIDTH 6 0
BBX 6 8 1 0
BITMAP
04
4C
48
50
20
40
C0
80
ENDCHAR
STARTCHAR 2189
ENCODING 8585
SWIDTH 540 0
DWIDTH 6 0
BBX 6 8 1 0
BITMAP
44
6C
C8
50
28
48
C8
98
ENDCHAR
STARTCHAR 2190
ENCODING 8592
SWIDTH 630 0
DWIDTH 7 0
BBX 8 6 1 1
BITMAP
10
30
FF
FE
60
20
ENDCHAR
STARTCHAR 2191
ENCODING 8593
SWIDTH 630 0
DWIDTH 7 0
BBX 6 8 2 0
BITMAP
10
38
78
FC
20
20
60
60
ENDCHAR
STARTCHAR 2192
ENCODING 8594
SWIDTH 630 0
DWIDTH 7 0
BBX 7 6 1 1
BITMAP
08
04
FE
FE
0C
08
ENDCHAR
STARTCHAR 2193
ENCODING 8595
SWIDTH 630 0
DWIDTH 7 0
BBX 5 8 2 0
BITMAP
10
10
30
30
30
F8
70
60
ENDCHAR
STARTCHAR 2194
ENCODING 8596
SWIDTH 630 0
DWIDTH 7 0
BBX 7 6 1 1
BITMAP
24
66
FE
FE
44
48
ENDCHAR
STARTCHAR 2195
ENCODING 8597
SWIDTH 630 0
DWIDTH 7 0
BBX 6 8 2 0
BITMAP
10
38
FC
30
30
FC
F0
60
ENDCHAR
STARTCHAR 2196
ENCODING 8598
SWIDTH 630 0
DWIDTH 7 0
BBX 5 6 2 1
BITMAP
F8
F0
E0
B0
38
18
ENDCHAR
STARTCHAR 2197
ENCODING 8599
SWIDTH 630 0
DWIDTH 7 0
BBX 6 6 2 1
BITMAP
3C
3C
3C
7C
C0
80
ENDCHAR
STARTCHAR 2198
ENCODING 8600
SWIDTH 630 0
DWIDTH 7 0
BBX 5 6 3 1
BITMAP
80
C0
F8
78
70
F0
ENDCHAR
STARTCHAR 2199
ENCODING 8601
SWIDTH 630 0
DWIDTH 7 0
BBX 7 6 1 1
BITMAP
02
4E
58
70
70
F8
ENDCHAR
STARTCHAR 2212
ENCODING 8722
SWIDTH 450 0
DWIDTH 5 0
BBX 5 2 1 3
BITMAP
F8
F8
ENDCHAR
STARTCHAR 2213
ENCODING 8723
SWIDTH 450 0
DWIDTH 5 0
BBX 5 6 1 0
BITMAP
78
00
20
F8
F8
60
ENDCHAR
STARTCHAR 2214
ENCODING 8724
SWIDTH 450 0
DWIDTH 5 0
BBX 5 6 1 2
BITMAP
10
00
30
F8
F8
60
ENDCHAR
STARTCHAR 2215
ENCODING 8725
SWIDTH 360 0
DWIDTH 4 0
BBX 6 8 0 0
BITMAP
0C
0C
18
10
30
20
40
C0
ENDCHAR
STARTCHAR 2216
ENCODING 8726
SWIDTH 360 0
DWIDTH 4 0
BBX 2 8 2 0
BITMAP
80
80
C0
C0
C0
C0
C0
40
ENDCHAR
STARTCHAR 2219
ENCODING 8729
SWIDTH 180 0
DWIDTH 2 0
BBX 2 2 1 3
BITMAP
C0
C0
ENDCHAR
STARTCHAR 221A
ENCODING 8730
SWIDTH 450 0
DWIDTH 5 0
BBX 6 8 1 0
BITMAP
04
08
08
D0
50
60
40
40
ENDCHAR
STARTCHAR 2248
ENCODING 8776
SWIDTH 450 0
DWIDTH 5 0
BBX 6 6 1 1
BITMAP
6C
F8
B0
58
F8
F0
ENDCHAR
STARTCHAR 2260
ENCODING 8800
SWIDTH 450 0
DWIDTH 5 0
BBX 5 6 1 1
BITMAP
10
F8
F8
20
F8
40
ENDCHAR
STARTCHAR 2261
ENCODING 8801
SWIDTH 450 0
DWIDTH 5 0
BBX 7 6 0 1
BITMAP
3E
78
7C
7C
00
F8
ENDCHAR
STARTCHAR 2310
ENCODING 8976
SWIDTH 450 0
DWIDTH 5 0
BBX 5 3 1 2
BITMAP
F8
F8
80
ENDCHAR
STARTCHAR 2319
ENCODING 8985
SWIDTH 450 0
DWIDTH 5 0
BBX 5 3 1 2
BITMAP
C0
F8
F8
ENDCHAR
STARTCHAR 2609
ENCODING 9737
SWIDTH 630 0
DWIDTH 7 0
BBX 7 8 1 0
BITMAP
08
3E
42
9A
BA
86
CC
70
ENDCHAR
STARTCHAR 2615
ENCODING 9749
SWIDTH 540 0
DWIDTH 6 0
BBX 6 8 1 0
BITMAP
40
50
20
FC
FC
F4
F8
F0
ENDCHAR
STARTCHAR 2621
ENCODING 9761
SWIDTH 540 0
DWIDTH 6 0
BBX 7 8 0 0
BITMAP
0E
0E
1C
14
34
2C
6E
EE
ENDCHAR
STARTCHAR 262E
ENCODING 9774
SWIDTH 630 0
DWIDTH 7 0
BBX 8 8 1 0
BITMAP
1C
6A
5B
99
FE
D6
D4
78
ENDCHAR
STARTCHAR 2647
ENCODING 9799
SWIDTH 450 0
DWIDTH 5 0
BBX 6 8 0 0
BITMAP
38
3C
64
6C
78
60
78
F8
ENDCHAR
STARTCHAR 29EB
ENCODING 10731
SWIDTH 450 0
DWIDTH 5 0
BBX 5 10 1 -1
BITMAP
10
30
70
78
F8
F8
F0
E0
E0
40
ENDCHAR
STARTCHAR 2E2E
ENCODING 11822
SWIDTH 450 0
DWIDTH 5 0
BBX 5 8 1 0
BITMAP
78
78
C0
E0
70
20
20
60
ENDCHAR
STARTCHAR 2E38
ENCODING 11832
SWIDTH 450 0
DWIDTH 5 0
BBX 5 10 0 -2
BITMAP
08
18
18
18
10
10
30
78
F8
20
ENDCHAR
STARTCHAR 2E4B
ENCODING 11851
SWIDTH 450 0
DWIDTH 5 0
BBX 7 10 0 -2
BITMAP
08
18
3E
18
7C
7C
30
F8
F8
20
ENDCHAR
STARTCHAR 3012
ENCODING 12306
SWIDTH 540 0
DWIDTH 6 0
BBX 7 8 1 0
BITMAP
7E
7E
00
FC
30
30
20
60
ENDCHAR
STARTCHAR 3036
ENCODING 12342
SWIDTH 630 0
DWIDTH 7 0
BBX 7 8 1 0
BITMAP
08
7E
7A
82
9A
94
CC
70
ENDCHAR
STARTCHAR 4E00
ENCODING 19968
SWIDTH 630 0
DWIDTH 7 0
BBX 7 2 1 3
BITMAP
FE
FE
ENDCHAR
STARTCHAR 5186
ENCODING 20870
SWIDTH 630 0
DWIDTH 7 0
BBX 9 8 0 0
BITMAP
1580
3F80
6D80
6D00
7F00
7B00
4300
C200
ENDCHAR
STARTCHAR 8336
ENCODING 33590
SWIDTH 630 0
DWIDTH 7 0
BBX 8 8 1 0
BITMAP
22
7F
1C
66
FC
7C
5C
B4
ENDCHAR
STARTCHAR 9F99
ENCODING 40857
SWIDTH 630 0
DWIDTH 7 0
BBX 9 8 0 0
BITMAP
0E00
0B00
7F80
1400
1500
2600
7900
CE00
ENDCHAR
STARTCHAR A78B
ENCODING 42891
SWIDTH 180 0
DWIDTH 2 0
BBX 3 6 1 2
BITMAP
60
60
40
C0
C0
C0
ENDCHAR
STARTCHAR A78C
ENCODING 42892
SWIDTH 180 0
DWIDTH 2 0
BBX 3 6 1 2
BITMAP
60
60
40
C0
C0
C0
ENDCHAR
STARTCHAR FFFD
ENCODING 65533
SWIDTH 450 0
DWIDTH 5 0
BBX 5 10 1 -1
BITMAP
10
30
70
88
A8
C8
D0
E0
A0
40
ENDCHAR
ENDFONT
